<svg xmlns="http://www.w3.org/2000/svg" xmlns:xlink="http://www.w3.org/1999/xlink" width="500" zoomAndPan="magnify" viewBox="0 0 375 374.999991" height="500" preserveAspectRatio="xMidYMid meet" version="1.0"><defs><g/><clipPath id="db8a3cbcd4"><path d="M 67 131 L 369 131 L 369 179 L 67 179 Z M 67 131 " clip-rule="nonzero"/></clipPath><clipPath id="68cd4383ad"><path d="M 64.304688 129.953125 L 365.878906 109.765625 L 370.035156 171.875 L 68.460938 192.0625 Z M 64.304688 129.953125 " clip-rule="nonzero"/></clipPath><clipPath id="fd36c90205"><path d="M 68.46875 192.167969 L 370.042969 171.980469 L 365.886719 109.871094 L 64.308594 130.054688 Z M 68.46875 192.167969 " clip-rule="nonzero"/></clipPath><clipPath id="1ad45f32cb"><path d="M 68.46875 192.167969 L 370.042969 171.980469 L 365.886719 109.871094 L 64.308594 130.054688 Z M 68.46875 192.167969 " clip-rule="nonzero"/></clipPath></defs><g fill="#231f20" fill-opacity="1"><g transform="translate(5.628923, 221.640664)"><g><path d="M 161.734375 -118.140625 C 165.785156 -114.859375 169.085938 -111.109375 171.640625 -106.890625 C 174.191406 -102.679688 175.898438 -97.953125 176.765625 -92.703125 C 177.203125 -90.015625 177.296875 -87.359375 177.046875 -84.734375 C 176.796875 -82.117188 176.34375 -79.519531 175.6875 -76.9375 C 174.625 -72.664062 173.101562 -68.609375 171.125 -64.765625 C 169.144531 -60.921875 166.820312 -57.265625 164.15625 -53.796875 C 160.601562 -49.273438 156.640625 -45.242188 152.265625 -41.703125 C 147.898438 -38.171875 143.25 -34.960938 138.3125 -32.078125 C 127.882812 -25.972656 116.925781 -21.007812 105.4375 -17.1875 C 104.664062 -16.882812 103.847656 -16.578125 102.984375 -16.265625 C 101.816406 -15.910156 100.988281 -15.59375 100.5 -15.3125 C 100.019531 -15.03125 99.71875 -14.613281 99.59375 -14.0625 C 99.46875 -13.507812 99.40625 -12.648438 99.40625 -11.484375 C 99.40625 2.960938 99.378906 17.390625 99.328125 31.796875 C 99.328125 33.679688 99.328125 35.535156 99.328125 37.359375 C 99.328125 37.503906 99.328125 37.601562 99.328125 37.65625 C 99.328125 38.6875 99.3125 39.707031 99.28125 40.71875 C 99.25 41.726562 99.082031 42.71875 98.78125 43.6875 C 98.34375 45.351562 97.332031 46.144531 95.75 46.0625 C 94.363281 46.007812 93.445312 45.316406 93 43.984375 C 92.445312 41.785156 92.210938 39.523438 92.296875 37.203125 C 92.296875 35.003906 92.296875 32.8125 92.296875 30.625 C 92.296875 18.28125 92.296875 5.953125 92.296875 -6.359375 C 92.296875 -6.804688 92.296875 -7.265625 92.296875 -7.734375 C 92.460938 -9.203125 92.304688 -10.800781 91.828125 -12.53125 C 90.972656 -12.445312 90.210938 -12.289062 89.546875 -12.0625 C 88.429688 -11.757812 87.363281 -11.691406 86.34375 -11.859375 C 85.957031 -11.910156 85.609375 -12.015625 85.296875 -12.171875 C 84.992188 -12.328125 84.816406 -12.625 84.765625 -13.0625 C 84.765625 -13.925781 85.140625 -14.46875 85.890625 -14.6875 C 87.328125 -15.300781 88.8125 -15.828125 90.34375 -16.265625 C 91.695312 -16.742188 92.347656 -17.6875 92.296875 -19.09375 C 92.296875 -19.957031 92.296875 -20.847656 92.296875 -21.765625 C 92.296875 -22.234375 92.296875 -22.742188 92.296875 -23.296875 C 92.296875 -30.679688 92.296875 -38.035156 92.296875 -45.359375 C 92.347656 -61.722656 92.375 -78.117188 92.375 -94.546875 C 92.375 -94.710938 92.375 -94.914062 92.375 -95.15625 C 92.375 -96.382812 92.398438 -97.582031 92.453125 -98.75 C 92.648438 -100.882812 93.816406 -101.953125 95.953125 -101.953125 C 98.003906 -101.890625 99.128906 -100.789062 99.328125 -98.65625 C 99.378906 -97.601562 99.378906 -96.5625 99.328125 -95.53125 C 99.328125 -95.175781 99.328125 -94.816406 99.328125 -94.453125 C 99.328125 -89.328125 99.328125 -84.222656 99.328125 -79.140625 C 99.378906 -61.390625 99.40625 -43.632812 99.40625 -25.875 C 99.40625 -25.4375 99.40625 -24.984375 99.40625 -24.515625 C 99.289062 -23.035156 99.414062 -21.59375 99.78125 -20.1875 C 100.144531 -19.875 100.492188 -19.753906 100.828125 -19.828125 C 101.160156 -19.898438 101.476562 -19.988281 101.78125 -20.09375 C 110.320312 -23.289062 118.515625 -27.078125 126.359375 -31.453125 C 134.210938 -35.835938 141.554688 -41.023438 148.390625 -47.015625 C 157.234375 -54.753906 163.488281 -64.269531 167.15625 -75.5625 C 169.039062 -81.800781 169.570312 -87.59375 168.75 -92.9375 C 167.9375 -98.28125 166.050781 -103.070312 163.09375 -107.3125 C 160.132812 -111.5625 156.394531 -115.171875 151.875 -118.140625 C 144.050781 -123.265625 134.757812 -126.4375 124 -127.65625 C 113.238281 -128.882812 101.945312 -128.488281 90.125 -126.46875 C 78.3125 -124.457031 66.910156 -121.191406 55.921875 -116.671875 C 44.941406 -112.148438 35.316406 -106.71875 27.046875 -100.375 C 18.773438 -94.039062 12.785156 -87.1875 9.078125 -79.8125 C 8.210938 -78.34375 7.597656 -76.804688 7.234375 -75.203125 C 6.878906 -73.609375 6.910156 -71.941406 7.328125 -70.203125 C 7.578125 -69.203125 7.4375 -68.457031 6.90625 -67.96875 C 6.375 -67.488281 5.625 -67.316406 4.65625 -67.453125 C 2.71875 -67.753906 1.375 -68.78125 0.625 -70.53125 C 0.0078125 -72.050781 -0.0976562 -73.617188 0.296875 -75.234375 C 0.960938 -78.390625 2.207031 -81.285156 4.03125 -83.921875 C 9.945312 -92.523438 18.164062 -100.171875 28.6875 -106.859375 C 39.21875 -113.546875 50.890625 -119.023438 63.703125 -123.296875 C 76.523438 -127.566406 89.34375 -130.328125 102.15625 -131.578125 C 114.96875 -132.828125 126.59375 -132.285156 137.03125 -129.953125 C 141.601562 -128.921875 145.945312 -127.441406 150.0625 -125.515625 C 154.1875 -123.585938 158.078125 -121.128906 161.734375 -118.140625 Z M 161.734375 -118.140625 "/></g></g><g transform="translate(160.345303, 221.640664)"><g><path d="M 40.765625 -20.203125 C 43.128906 -22.828125 44.375 -23.832031 44.5 -23.21875 C 44.625 -22.601562 44.117188 -21.179688 42.984375 -18.953125 C 41.847656 -16.722656 40.085938 -14.816406 37.703125 -13.234375 C 35.953125 -12.148438 34.445312 -11.421875 33.1875 -11.046875 C 31.925781 -10.671875 30.78125 -10.457031 29.75 -10.40625 C 27.726562 -10.289062 26.179688 -10.867188 25.109375 -12.140625 C 24.046875 -13.421875 23.304688 -15.066406 22.890625 -17.078125 C 22.472656 -19.085938 22.164062 -21.160156 21.96875 -23.296875 C 21.769531 -24.660156 21.585938 -25.882812 21.421875 -26.96875 C 21.179688 -28.6875 20.691406 -29.632812 19.953125 -29.8125 C 19.210938 -29.988281 18.082031 -28.882812 16.5625 -26.5 C 14.976562 -23.945312 13.585938 -21.128906 12.390625 -18.046875 C 11.203125 -14.972656 10.148438 -11.96875 9.234375 -9.03125 C 9.179688 -8.914062 9.128906 -8.765625 9.078125 -8.578125 C 8.878906 -8.160156 8.722656 -7.726562 8.609375 -7.28125 C 8.253906 -6.0625 7.828125 -4.867188 7.328125 -3.703125 C 6.910156 -2.734375 6.191406 -2.09375 5.171875 -1.78125 C 4.160156 -1.476562 3.101562 -1.550781 2 -2 C 1.28125 -2.300781 0.796875 -2.8125 0.546875 -3.53125 C 0.179688 -4.644531 0.0546875 -5.769531 0.171875 -6.90625 C 0.171875 -7.039062 0.171875 -7.140625 0.171875 -7.203125 C 0.421875 -12.023438 0.460938 -20.054688 0.296875 -31.296875 C 0.148438 -40.253906 0.078125 -49.890625 0.078125 -60.203125 C 0.078125 -70.523438 0.34375 -80.265625 0.875 -89.421875 C 1.40625 -98.578125 2.304688 -105.898438 3.578125 -111.390625 C 4.128906 -113.390625 5.039062 -115.1875 6.3125 -116.78125 C 7.59375 -118.375 9.007812 -119.242188 10.5625 -119.390625 C 12.125 -119.546875 13.582031 -118.488281 14.9375 -116.21875 C 15.851562 -114.28125 16.421875 -112.210938 16.640625 -110.015625 C 17.253906 -103.523438 16.707031 -93.550781 15 -80.09375 C 13.289062 -66.644531 11.503906 -54.867188 9.640625 -44.765625 C 7.785156 -34.671875 6.859375 -26.238281 6.859375 -19.46875 C 7.472656 -20.5 8.085938 -21.597656 8.703125 -22.765625 C 9.554688 -24.484375 10.515625 -26.191406 11.578125 -27.890625 C 12.648438 -29.597656 13.914062 -31.046875 15.375 -32.234375 C 16.832031 -33.429688 18.601562 -34.1875 20.6875 -34.5 C 22.09375 -34.71875 23.523438 -34.617188 24.984375 -34.203125 C 26.441406 -33.785156 27.421875 -32.773438 27.921875 -31.171875 C 28.535156 -28.367188 28.742188 -25.382812 28.546875 -22.21875 C 28.546875 -18.863281 29.128906 -16.738281 30.296875 -15.84375 C 31.460938 -14.957031 32.910156 -14.804688 34.640625 -15.390625 C 36.367188 -15.972656 38.410156 -17.578125 40.765625 -20.203125 Z M 9.6875 -106.234375 C 9.382812 -102.765625 9.039062 -96.972656 8.65625 -88.859375 C 8.269531 -80.742188 7.9375 -72.609375 7.65625 -64.453125 C 7.375 -56.296875 7.234375 -49.515625 7.234375 -44.109375 C 7.898438 -48.992188 8.703125 -55.351562 9.640625 -63.1875 C 10.585938 -71.019531 11.429688 -79.082031 12.171875 -87.375 C 12.910156 -95.675781 13.28125 -101.90625 13.28125 -106.0625 C 13.21875 -108.257812 13.0625 -109.890625 12.8125 -110.953125 C 12.5625 -112.023438 12.144531 -112.40625 11.5625 -112.09375 C 10.976562 -111.789062 10.535156 -111.015625 10.234375 -109.765625 C 9.929688 -108.515625 9.75 -107.335938 9.6875 -106.234375 Z M 9.6875 -106.234375 "/></g></g><g transform="translate(202.582292, 221.640664)"><g><path d="M 21.59375 -16.890625 C 20.738281 -15.117188 19.273438 -13.148438 17.203125 -10.984375 C 15.140625 -8.816406 12.796875 -7.441406 10.171875 -6.859375 C 7.546875 -6.273438 5.039062 -7.179688 2.65625 -9.578125 C 1.75 -10.628906 1.078125 -11.835938 0.640625 -13.203125 C 0.210938 -14.578125 0.0546875 -15.929688 0.171875 -17.265625 C 0.171875 -17.628906 0.171875 -18.085938 0.171875 -18.640625 C 0.171875 -20.054688 0.234375 -21.691406 0.359375 -23.546875 C 0.484375 -25.410156 0.757812 -27.085938 1.1875 -28.578125 C 1.613281 -30.078125 2.285156 -30.984375 3.203125 -31.296875 C 5.835938 -31.960938 7.265625 -31.046875 7.484375 -28.546875 C 7.484375 -27.742188 7.457031 -26.9375 7.40625 -26.125 C 7.351562 -25.707031 7.328125 -25.320312 7.328125 -24.96875 C 7.265625 -23.800781 7.207031 -22.632812 7.15625 -21.46875 C 7.15625 -20.550781 7.113281 -19.632812 7.03125 -18.71875 C 6.976562 -14.695312 7.878906 -12.304688 9.734375 -11.546875 C 11.597656 -10.785156 13.722656 -11.597656 16.109375 -13.984375 C 18.492188 -16.367188 20.050781 -18.347656 20.78125 -19.921875 C 21.519531 -21.503906 22.054688 -21.835938 22.390625 -20.921875 C 22.722656 -20.015625 22.457031 -18.671875 21.59375 -16.890625 Z M 6.953125 -39.859375 C 6.585938 -39.554688 6.148438 -39.363281 5.640625 -39.28125 C 5.128906 -39.195312 4.675781 -39.238281 4.28125 -39.40625 C 3.976562 -39.65625 3.785156 -39.976562 3.703125 -40.375 C 3.617188 -40.78125 3.578125 -41.257812 3.578125 -41.8125 C 3.578125 -41.925781 3.601562 -42.039062 3.65625 -42.15625 C 3.71875 -42.65625 3.84375 -43.15625 4.03125 -43.65625 C 4.59375 -44.976562 5.742188 -45.585938 7.484375 -45.484375 C 8.097656 -45.398438 8.578125 -45.148438 8.921875 -44.734375 C 9.273438 -44.316406 9.351562 -43.832031 9.15625 -43.28125 C 8.738281 -41.914062 8.003906 -40.773438 6.953125 -39.859375 Z M 6.953125 -39.859375 "/></g></g><g transform="translate(223.014175, 221.640664)"><g><path d="M 30.046875 -19.390625 C 30.515625 -20.523438 31.023438 -21.09375 31.578125 -21.09375 C 32.140625 -21.09375 32.320312 -20.523438 32.125 -19.390625 C 31.207031 -16.554688 30.109375 -13.84375 28.828125 -11.25 C 27.554688 -8.65625 25.828125 -6.332031 23.640625 -4.28125 C 21.972656 -2.625 19.988281 -1.554688 17.6875 -1.078125 C 14.550781 -0.640625 11.960938 -1.015625 9.921875 -2.203125 C 7.878906 -3.398438 6.257812 -5.113281 5.0625 -7.34375 C 3.875 -9.570312 2.988281 -12.007812 2.40625 -14.65625 C 1.832031 -17.3125 1.460938 -19.890625 1.296875 -22.390625 C 0.847656 -27.097656 0.519531 -33.296875 0.3125 -40.984375 C 0.101562 -48.671875 0.175781 -56.800781 0.53125 -65.375 C 0.894531 -73.945312 1.734375 -81.894531 3.046875 -89.21875 C 4.367188 -96.539062 6.304688 -102.210938 8.859375 -106.234375 C 10.328125 -108.203125 12.039062 -109.195312 14 -109.21875 C 15.957031 -109.25 17.695312 -108.351562 19.21875 -106.53125 C 20.25 -105.113281 21.023438 -103.613281 21.546875 -102.03125 C 22.078125 -100.445312 22.425781 -98.835938 22.59375 -97.203125 C 23.144531 -91.566406 23.070312 -85.617188 22.375 -79.359375 C 21.6875 -73.109375 20.59375 -66.429688 19.09375 -59.328125 C 17.601562 -52.234375 15.816406 -45.976562 13.734375 -40.5625 C 11.648438 -35.15625 9.914062 -30.875 8.53125 -27.71875 C 7.78125 -26.4375 7.503906 -24.503906 7.703125 -21.921875 C 7.953125 -19.117188 8.484375 -16.191406 9.296875 -13.140625 C 10.117188 -10.097656 11.265625 -7.6875 12.734375 -5.90625 C 14.117188 -4.4375 15.671875 -3.976562 17.390625 -4.53125 C 19.109375 -5.09375 20.820312 -6.257812 22.53125 -8.03125 C 24.238281 -9.800781 25.742188 -11.734375 27.046875 -13.828125 C 28.347656 -15.929688 29.347656 -17.785156 30.046875 -19.390625 Z M 7.859375 -61.953125 C 7.691406 -60.128906 7.53125 -57.363281 7.375 -53.65625 C 7.226562 -49.957031 7.085938 -46.191406 6.953125 -42.359375 C 6.835938 -38.085938 6.710938 -34.757812 6.578125 -32.375 C 7.929688 -35.425781 9.507812 -39.863281 11.3125 -45.6875 C 13.113281 -51.507812 14.753906 -58.375 16.234375 -66.28125 C 17.722656 -74.1875 18.691406 -82.742188 19.140625 -91.953125 C 18.890625 -97.335938 18.242188 -100.988281 17.203125 -102.90625 C 16.160156 -104.820312 15.03125 -104.988281 13.8125 -103.40625 C 12.59375 -101.820312 11.625 -98.492188 10.90625 -93.421875 C 9.789062 -85.015625 8.929688 -76.59375 8.328125 -68.15625 C 8.160156 -66.070312 8.003906 -64.003906 7.859375 -61.953125 Z M 7.859375 -61.953125 "/></g></g><g transform="translate(252.600874, 221.640664)"><g><path d="M 30.046875 -19.390625 C 30.515625 -20.523438 31.023438 -21.09375 31.578125 -21.09375 C 32.140625 -21.09375 32.320312 -20.523438 32.125 -19.390625 C 31.207031 -16.554688 30.109375 -13.84375 28.828125 -11.25 C 27.554688 -8.65625 25.828125 -6.332031 23.640625 -4.28125 C 21.972656 -2.625 19.988281 -1.554688 17.6875 -1.078125 C 14.550781 -0.640625 11.960938 -1.015625 9.921875 -2.203125 C 7.878906 -3.398438 6.257812 -5.113281 5.0625 -7.34375 C 3.875 -9.570312 2.988281 -12.007812 2.40625 -14.65625 C 1.832031 -17.3125 1.460938 -19.890625 1.296875 -22.390625 C 0.847656 -27.097656 0.519531 -33.296875 0.3125 -40.984375 C 0.101562 -48.671875 0.175781 -56.800781 0.53125 -65.375 C 0.894531 -73.945312 1.734375 -81.894531 3.046875 -89.21875 C 4.367188 -96.539062 6.304688 -102.210938 8.859375 -106.234375 C 10.328125 -108.203125 12.039062 -109.195312 14 -109.21875 C 15.957031 -109.25 17.695312 -108.351562 19.21875 -106.53125 C 20.25 -105.113281 21.023438 -103.613281 21.546875 -102.03125 C 22.078125 -100.445312 22.425781 -98.835938 22.59375 -97.203125 C 23.144531 -91.566406 23.070312 -85.617188 22.375 -79.359375 C 21.6875 -73.109375 20.59375 -66.429688 19.09375 -59.328125 C 17.601562 -52.234375 15.816406 -45.976562 13.734375 -40.5625 C 11.648438 -35.15625 9.914062 -30.875 8.53125 -27.71875 C 7.78125 -26.4375 7.503906 -24.503906 7.703125 -21.921875 C 7.953125 -19.117188 8.484375 -16.191406 9.296875 -13.140625 C 10.117188 -10.097656 11.265625 -7.6875 12.734375 -5.90625 C 14.117188 -4.4375 15.671875 -3.976562 17.390625 -4.53125 C 19.109375 -5.09375 20.820312 -6.257812 22.53125 -8.03125 C 24.238281 -9.800781 25.742188 -11.734375 27.046875 -13.828125 C 28.347656 -15.929688 29.347656 -17.785156 30.046875 -19.390625 Z M 7.859375 -61.953125 C 7.691406 -60.128906 7.53125 -57.363281 7.375 -53.65625 C 7.226562 -49.957031 7.085938 -46.191406 6.953125 -42.359375 C 6.835938 -38.085938 6.710938 -34.757812 6.578125 -32.375 C 7.929688 -35.425781 9.507812 -39.863281 11.3125 -45.6875 C 13.113281 -51.507812 14.753906 -58.375 16.234375 -66.28125 C 17.722656 -74.1875 18.691406 -82.742188 19.140625 -91.953125 C 18.890625 -97.335938 18.242188 -100.988281 17.203125 -102.90625 C 16.160156 -104.820312 15.03125 -104.988281 13.8125 -103.40625 C 12.59375 -101.820312 11.625 -98.492188 10.90625 -93.421875 C 9.789062 -85.015625 8.929688 -76.59375 8.328125 -68.15625 C 8.160156 -66.070312 8.003906 -64.003906 7.859375 -61.953125 Z M 7.859375 -61.953125 "/></g></g><g transform="translate(282.187572, 221.640664)"><g><path d="M 21.59375 -16.890625 C 20.738281 -15.117188 19.273438 -13.148438 17.203125 -10.984375 C 15.140625 -8.816406 12.796875 -7.441406 10.171875 -6.859375 C 7.546875 -6.273438 5.039062 -7.179688 2.65625 -9.578125 C 1.75 -10.628906 1.078125 -11.835938 0.640625 -13.203125 C 0.210938 -14.578125 0.0546875 -15.929688 0.171875 -17.265625 C 0.171875 -17.628906 0.171875 -18.085938 0.171875 -18.640625 C 0.171875 -20.054688 0.234375 -21.691406 0.359375 -23.546875 C 0.484375 -25.410156 0.757812 -27.085938 1.1875 -28.578125 C 1.613281 -30.078125 2.285156 -30.984375 3.203125 -31.296875 C 5.835938 -31.960938 7.265625 -31.046875 7.484375 -28.546875 C 7.484375 -27.742188 7.457031 -26.9375 7.40625 -26.125 C 7.351562 -25.707031 7.328125 -25.320312 7.328125 -24.96875 C 7.265625 -23.800781 7.207031 -22.632812 7.15625 -21.46875 C 7.15625 -20.550781 7.113281 -19.632812 7.03125 -18.71875 C 6.976562 -14.695312 7.878906 -12.304688 9.734375 -11.546875 C 11.597656 -10.785156 13.722656 -11.597656 16.109375 -13.984375 C 18.492188 -16.367188 20.050781 -18.347656 20.78125 -19.921875 C 21.519531 -21.503906 22.054688 -21.835938 22.390625 -20.921875 C 22.722656 -20.015625 22.457031 -18.671875 21.59375 -16.890625 Z M 6.953125 -39.859375 C 6.585938 -39.554688 6.148438 -39.363281 5.640625 -39.28125 C 5.128906 -39.195312 4.675781 -39.238281 4.28125 -39.40625 C 3.976562 -39.65625 3.785156 -39.976562 3.703125 -40.375 C 3.617188 -40.78125 3.578125 -41.257812 3.578125 -41.8125 C 3.578125 -41.925781 3.601562 -42.039062 3.65625 -42.15625 C 3.71875 -42.65625 3.84375 -43.15625 4.03125 -43.65625 C 4.59375 -44.976562 5.742188 -45.585938 7.484375 -45.484375 C 8.097656 -45.398438 8.578125 -45.148438 8.921875 -44.734375 C 9.273438 -44.316406 9.351562 -43.832031 9.15625 -43.28125 C 8.738281 -41.914062 8.003906 -40.773438 6.953125 -39.859375 Z M 6.953125 -39.859375 "/></g></g><g transform="translate(302.619455, 221.640664)"><g><path d="M 31.65625 -20.46875 C 32.9375 -20.78125 34.585938 -21.671875 36.609375 -23.140625 C 38.640625 -24.609375 39.554688 -24.632812 39.359375 -23.21875 C 39.171875 -21.800781 38.066406 -20.617188 36.046875 -19.671875 C 34.035156 -18.734375 32.1875 -18.054688 30.5 -17.640625 C 30.050781 -17.503906 29.613281 -17.269531 29.1875 -16.9375 C 28.757812 -16.601562 28.488281 -16.226562 28.375 -15.8125 C 28.070312 -14.039062 27.460938 -12.390625 26.546875 -10.859375 C 24.160156 -7.140625 20.773438 -5.671875 16.390625 -6.453125 C 14.671875 -6.890625 13.566406 -7.734375 13.078125 -8.984375 C 12.597656 -10.234375 12.84375 -11.625 13.8125 -13.15625 C 15.175781 -14.925781 16.851562 -16.242188 18.84375 -17.109375 C 19.59375 -17.460938 20.273438 -17.722656 20.890625 -17.890625 C 21.191406 -18.023438 21.550781 -18.148438 21.96875 -18.265625 C 22.769531 -18.710938 23.195312 -19.554688 23.25 -20.796875 C 23.3125 -22.046875 23.019531 -23.296875 22.375 -24.546875 C 21.738281 -25.796875 20.851562 -26.648438 19.71875 -27.109375 C 18.582031 -27.566406 17.222656 -27.15625 15.640625 -25.875 C 14.117188 -24.46875 12.96875 -22.820312 12.1875 -20.9375 C 10.363281 -17.15625 9.101562 -13.1875 8.40625 -9.03125 C 7.1875 -1.707031 6.335938 5.613281 5.859375 12.9375 C 5.671875 16.351562 5.34375 19.738281 4.875 23.09375 C 4.675781 24.507812 4.519531 25.953125 4.40625 27.421875 C 4.320312 27.890625 4.195312 28.375 4.03125 28.875 C 3.78125 29.789062 3.101562 30.179688 2 30.046875 C 0.863281 29.984375 0.253906 29.46875 0.171875 28.5 C 0.109375 27.476562 0.109375 26.4375 0.171875 25.375 C 0.171875 25.132812 0.171875 24.929688 0.171875 24.765625 C 0.253906 23.484375 0.320312 22.191406 0.375 20.890625 C 0.425781 18.585938 0.484375 16.296875 0.546875 14.015625 C 0.679688 4.753906 0.625 -4.578125 0.375 -13.984375 C 0.320312 -17.503906 0.253906 -20.984375 0.171875 -24.421875 C 0.171875 -24.785156 0.171875 -25.144531 0.171875 -25.5 C 0.0546875 -26.726562 0.125 -27.921875 0.375 -29.078125 C 0.625 -30.242188 1.382812 -30.910156 2.65625 -31.078125 C 3.988281 -31.222656 4.8125 -30.613281 5.125 -29.25 C 5.125 -29.132812 5.125 -29.007812 5.125 -28.875 C 5.5625 -26.269531 5.960938 -22.832031 6.328125 -18.5625 C 7.296875 -21.414062 8.515625 -23.71875 9.984375 -25.46875 C 11.453125 -27.21875 13.1875 -28.503906 15.1875 -29.328125 C 16.851562 -30.078125 18.566406 -30.375 20.328125 -30.21875 C 22.085938 -30.070312 23.6875 -29.351562 25.125 -28.0625 C 26.570312 -26.769531 27.5625 -24.847656 28.09375 -22.296875 C 28.34375 -21.191406 28.679688 -20.535156 29.109375 -20.328125 C 29.535156 -20.117188 30.382812 -20.164062 31.65625 -20.46875 Z M 19.21875 -9.109375 C 20.332031 -9.722656 21.191406 -10.535156 21.796875 -11.546875 C 22.410156 -12.554688 22.726562 -13.441406 22.75 -14.203125 C 22.78125 -14.972656 22.460938 -15.257812 21.796875 -15.0625 C 20.078125 -14.394531 18.898438 -13.523438 18.265625 -12.453125 C 17.628906 -11.390625 17.414062 -10.476562 17.625 -9.71875 C 17.832031 -8.957031 18.363281 -8.753906 19.21875 -9.109375 Z M 19.21875 -9.109375 "/></g></g></g><g clip-path="url(#db8a3cbcd4)"><g clip-path="url(#68cd4383ad)"><g clip-path="url(#fd36c90205)"><g clip-path="url(#1ad45f32cb)"><path fill="#231f20" d="M 70.394531 153.898438 C 69.664062 153.121094 68.445312 153.078125 67.667969 153.808594 C 66.890625 154.539062 66.847656 155.753906 67.578125 156.53125 C 72.113281 161.371094 76.117188 165.074219 80.378906 168.027344 L 80.5 168.105469 C 84.75 171.035156 89.214844 173.195312 94.660156 174.949219 C 129.558594 186.207031 175.628906 171.070312 220.539062 156.3125 C 282.972656 135.792969 343.132812 116.023438 365.132812 170.726562 C 365.527344 171.710938 366.648438 172.195312 367.640625 171.796875 C 368.632812 171.402344 369.113281 170.28125 368.710938 169.292969 C 345.363281 111.25 283.527344 131.566406 219.347656 152.660156 C 175.015625 167.230469 129.550781 182.171875 95.828125 171.300781 C 90.753906 169.660156 86.605469 167.660156 82.683594 164.953125 L 82.574219 164.871094 C 78.582031 162.101562 74.761719 158.5625 70.398438 153.902344 Z M 70.394531 153.898438 " fill-opacity="1" fill-rule="evenodd"/></g></g></g></g><g fill="#231f20" fill-opacity="1"><g transform="translate(147.249943, 259.38225)"><g><path d="M 7.578125 0.1875 C 6.671875 0.1875 5.820312 0.0195312 5.03125 -0.3125 C 4.25 -0.65625 3.5625 -1.117188 2.96875 -1.703125 C 2.382812 -2.296875 1.921875 -2.984375 1.578125 -3.765625 C 1.242188 -4.554688 1.078125 -5.40625 1.078125 -6.3125 C 1.078125 -7.207031 1.242188 -8.050781 1.578125 -8.84375 C 1.921875 -9.632812 2.382812 -10.320312 2.96875 -10.90625 C 3.5625 -11.5 4.25 -11.960938 5.03125 -12.296875 C 5.820312 -12.628906 6.671875 -12.796875 7.578125 -12.796875 C 8.441406 -12.796875 9.191406 -12.65625 9.828125 -12.375 C 10.460938 -12.101562 11 -11.804688 11.4375 -11.484375 C 11.925781 -11.097656 12.351562 -10.664062 12.71875 -10.1875 L 11.8125 -9.375 C 11.519531 -9.78125 11.171875 -10.140625 10.765625 -10.453125 C 10.410156 -10.734375 9.96875 -10.984375 9.4375 -11.203125 C 8.914062 -11.429688 8.296875 -11.546875 7.578125 -11.546875 C 6.847656 -11.546875 6.171875 -11.410156 5.546875 -11.140625 C 4.921875 -10.878906 4.378906 -10.515625 3.921875 -10.046875 C 3.460938 -9.578125 3.097656 -9.019531 2.828125 -8.375 C 2.566406 -7.738281 2.4375 -7.050781 2.4375 -6.3125 C 2.4375 -5.5625 2.566406 -4.867188 2.828125 -4.234375 C 3.097656 -3.597656 3.460938 -3.046875 3.921875 -2.578125 C 4.378906 -2.109375 4.921875 -1.738281 5.546875 -1.46875 C 6.171875 -1.207031 6.847656 -1.078125 7.578125 -1.078125 C 8.296875 -1.078125 8.925781 -1.1875 9.46875 -1.40625 C 10.007812 -1.632812 10.457031 -1.882812 10.8125 -2.15625 C 11.238281 -2.46875 11.601562 -2.832031 11.90625 -3.25 L 12.796875 -2.4375 C 12.429688 -1.9375 11.988281 -1.5 11.46875 -1.125 C 11.019531 -0.789062 10.472656 -0.488281 9.828125 -0.21875 C 9.191406 0.0507812 8.441406 0.1875 7.578125 0.1875 Z M 7.578125 0.1875 "/></g></g></g><g fill="#231f20" fill-opacity="1"><g transform="translate(172.315569, 259.38225)"><g><path d="M 1.890625 -12.625 L 3.25 -12.625 L 3.25 -7.03125 L 10.28125 -7.03125 L 10.28125 -12.625 L 11.625 -12.625 L 11.625 0 L 10.28125 0 L 10.28125 -5.765625 L 3.25 -5.765625 L 3.25 0 L 1.890625 0 Z M 1.890625 -12.625 "/></g></g></g><g fill="#231f20" fill-opacity="1"><g transform="translate(197.381195, 259.38225)"><g><path d="M 5.59375 -12.625 L 6.859375 -12.625 L 12.078125 0 L 10.640625 0 L 9.203125 -3.515625 L 3.25 -3.515625 L 1.796875 0 L 0.359375 0 Z M 8.65625 -4.78125 L 6.21875 -10.734375 L 3.78125 -4.78125 Z M 8.65625 -4.78125 "/></g></g></g><g fill="#231f20" fill-opacity="1"><g transform="translate(221.365033, 259.38225)"><g><path d="M 1.890625 -12.625 L 6.671875 -12.625 C 7.265625 -12.625 7.804688 -12.519531 8.296875 -12.3125 C 8.785156 -12.113281 9.207031 -11.832031 9.5625 -11.46875 C 9.925781 -11.113281 10.210938 -10.695312 10.421875 -10.21875 C 10.628906 -9.738281 10.734375 -9.21875 10.734375 -8.65625 C 10.734375 -8.09375 10.628906 -7.566406 10.421875 -7.078125 C 10.210938 -6.597656 9.925781 -6.179688 9.5625 -5.828125 C 9.207031 -5.472656 8.785156 -5.191406 8.296875 -4.984375 C 7.804688 -4.785156 7.265625 -4.6875 6.671875 -4.6875 L 3.25 -4.6875 L 3.25 0 L 1.890625 0 Z M 6.671875 -5.953125 C 7.484375 -5.953125 8.132812 -6.195312 8.625 -6.6875 C 9.125 -7.175781 9.375 -7.832031 9.375 -8.65625 C 9.375 -9.46875 9.125 -10.117188 8.625 -10.609375 C 8.132812 -11.109375 7.484375 -11.359375 6.671875 -11.359375 L 3.25 -11.359375 L 3.25 -5.953125 Z M 6.671875 -5.953125 "/></g></g></g><g fill="#231f20" fill-opacity="1"><g transform="translate(244.627707, 259.38225)"><g><path d="M 1.890625 -12.625 L 3.25 -12.625 L 3.25 0 L 1.890625 0 Z M 1.890625 -12.625 "/></g></g></g><g fill="#231f20" fill-opacity="1"><g transform="translate(261.309619, 259.38225)"><g><path d="M 4.328125 -11.359375 L 0.359375 -11.359375 L 0.359375 -12.625 L 9.640625 -12.625 L 9.640625 -11.359375 L 5.6875 -11.359375 L 5.6875 0 L 4.328125 0 Z M 4.328125 -11.359375 "/></g></g></g><g fill="#231f20" fill-opacity="1"><g transform="translate(282.859485, 259.38225)"><g><path d="M 5.59375 -12.625 L 6.859375 -12.625 L 12.078125 0 L 10.640625 0 L 9.203125 -3.515625 L 3.25 -3.515625 L 1.796875 0 L 0.359375 0 Z M 8.65625 -4.78125 L 6.21875 -10.734375 L 3.78125 -4.78125 Z M 8.65625 -4.78125 "/></g></g></g></svg>