<svg xmlns="http://www.w3.org/2000/svg" xmlns:xlink="http://www.w3.org/1999/xlink" width="500" zoomAndPan="magnify" viewBox="0 0 375 374.999991" height="500" preserveAspectRatio="xMidYMid meet" version="1.0"><defs><g/><clipPath id="f212bdd3ee"><path d="M 287.066406 188.25 L 291.136719 188.25 L 291.136719 192.320312 L 287.066406 192.320312 Z M 287.066406 188.25 " clip-rule="nonzero"/></clipPath><clipPath id="0619a8f456"><path d="M 289.101562 188.25 C 287.976562 188.25 287.066406 189.160156 287.066406 190.285156 C 287.066406 191.40625 287.976562 192.320312 289.101562 192.320312 C 290.226562 192.320312 291.136719 191.40625 291.136719 190.285156 C 291.136719 189.160156 290.226562 188.25 289.101562 188.25 Z M 289.101562 188.25 " clip-rule="nonzero"/></clipPath></defs><g fill="#000000" fill-opacity="1"><g transform="translate(67.747246, 234.014499)"><g><path d="M 80.8125 -35.578125 C 81.101562 -35.554688 81.335938 -35.46875 81.515625 -35.3125 C 81.703125 -35.164062 81.769531 -35.003906 81.71875 -34.828125 C 81.632812 -34.671875 81.53125 -34.5625 81.40625 -34.5 C 81.28125 -34.445312 81.144531 -34.421875 81 -34.421875 C 80.8125 -34.390625 80.617188 -34.375 80.421875 -34.375 C 77.648438 -33.988281 74.023438 -33.226562 69.546875 -32.09375 C 65.078125 -30.957031 61.484375 -29.976562 58.765625 -29.15625 C 56.679688 -28.53125 54.59375 -27.878906 52.5 -27.203125 C 52.457031 -27.203125 52.394531 -27.175781 52.3125 -27.125 C 51.445312 -26.851562 50.691406 -26.394531 50.046875 -25.75 C 47.609375 -23.457031 45.054688 -21.320312 42.390625 -19.34375 C 39.734375 -17.363281 37.007812 -15.476562 34.21875 -13.6875 C 29.664062 -10.738281 24.96875 -8.039062 20.125 -5.59375 C 19.125 -5.144531 18.460938 -4.390625 18.140625 -3.328125 C 16.617188 1.566406 14.972656 6.378906 13.203125 11.109375 C 11.628906 15.316406 10.164062 19.550781 8.8125 23.8125 C 8.8125 23.84375 8.796875 23.867188 8.765625 23.890625 C 8.734375 24.117188 8.660156 24.304688 8.546875 24.453125 C 8.367188 24.660156 8.140625 24.765625 7.859375 24.765625 C 7.703125 24.835938 7.550781 24.863281 7.40625 24.84375 C 7.070312 24.757812 6.875 24.550781 6.8125 24.21875 C 6.769531 23.65625 6.863281 23.109375 7.09375 22.578125 C 7.113281 22.546875 7.117188 22.515625 7.109375 22.484375 C 8.554688 18.484375 9.96875 14.492188 11.34375 10.515625 C 12.726562 6.546875 14.035156 2.535156 15.265625 -1.515625 C 15.367188 -1.859375 15.46875 -2.203125 15.5625 -2.546875 C 15.59375 -2.722656 15.632812 -2.90625 15.6875 -3.09375 C 15.5 -3.101562 15.320312 -3.113281 15.15625 -3.125 C 14.882812 -3.019531 14.617188 -2.894531 14.359375 -2.75 C 14.253906 -2.707031 14.160156 -2.65625 14.078125 -2.59375 C 10.679688 -0.988281 7.21875 0.46875 3.6875 1.78125 C 1.238281 2.632812 -1.238281 3.363281 -3.75 3.96875 C -3.875 4 -3.988281 4.023438 -4.09375 4.046875 C -4.34375 4.109375 -4.59375 4.160156 -4.84375 4.203125 C -5.832031 4.359375 -6.816406 4.367188 -7.796875 4.234375 C -8.535156 4.085938 -9.019531 3.75 -9.25 3.21875 C -9.476562 2.6875 -9.40625 2.066406 -9.03125 1.359375 C -8.519531 0.515625 -7.867188 -0.210938 -7.078125 -0.828125 C -5.316406 -2.367188 -3.414062 -3.710938 -1.375 -4.859375 C 4.039062 -7.972656 9.582031 -10.84375 15.25 -13.46875 C 15.550781 -13.625 15.878906 -13.769531 16.234375 -13.90625 C 16.960938 -14.1875 17.628906 -14.523438 18.234375 -14.921875 C 18.847656 -15.328125 19.269531 -15.921875 19.5 -16.703125 C 20.269531 -19.773438 21 -22.847656 21.6875 -25.921875 C 22.375 -29.003906 22.972656 -32.117188 23.484375 -35.265625 C 23.484375 -35.285156 23.488281 -35.320312 23.5 -35.375 C 23.570312 -35.945312 23.695312 -36.492188 23.875 -37.015625 C 23.945312 -37.179688 24.0625 -37.3125 24.21875 -37.40625 C 24.382812 -37.507812 24.554688 -37.550781 24.734375 -37.53125 C 24.859375 -37.59375 24.992188 -37.613281 25.140625 -37.59375 C 25.546875 -37.570312 25.804688 -37.351562 25.921875 -36.9375 C 26.054688 -36.144531 26.035156 -35.359375 25.859375 -34.578125 C 25.867188 -34.554688 25.863281 -34.523438 25.84375 -34.484375 C 25.21875 -30.453125 24.4375 -26.46875 23.5 -22.53125 C 23.238281 -21.445312 22.984375 -20.375 22.734375 -19.3125 C 22.617188 -18.925781 22.515625 -18.53125 22.421875 -18.125 C 22.304688 -17.644531 22.28125 -17.320312 22.34375 -17.15625 C 22.40625 -16.988281 22.535156 -16.925781 22.734375 -16.96875 C 22.929688 -17.007812 23.171875 -17.113281 23.453125 -17.28125 C 23.523438 -17.3125 23.613281 -17.347656 23.71875 -17.390625 C 24.800781 -17.859375 25.878906 -18.320312 26.953125 -18.78125 C 28.910156 -19.632812 30.875 -20.476562 32.84375 -21.3125 C 37.695312 -23.3125 42.617188 -25.148438 47.609375 -26.828125 C 48.484375 -27.128906 49.21875 -27.613281 49.8125 -28.28125 C 51.09375 -29.625 52.320312 -31.148438 53.5 -32.859375 C 54.675781 -34.578125 55.59375 -36.367188 56.25 -38.234375 C 56.90625 -40.109375 57.039062 -41.941406 56.65625 -43.734375 C 56.269531 -45.523438 55.144531 -47.1875 53.28125 -48.71875 C 52.09375 -49.625 50.789062 -50.332031 49.375 -50.84375 C 46.40625 -51.851562 42.945312 -52.390625 39 -52.453125 C 35.0625 -52.523438 30.898438 -52.222656 26.515625 -51.546875 C 22.140625 -50.878906 17.796875 -49.945312 13.484375 -48.75 C 9.171875 -47.5625 5.171875 -46.222656 1.484375 -44.734375 C -2.203125 -43.253906 -5.332031 -41.738281 -7.90625 -40.1875 C -10.113281 -38.863281 -12.175781 -37.34375 -14.09375 -35.625 C -14.882812 -34.945312 -15.609375 -34.226562 -16.265625 -33.46875 C -16.921875 -32.707031 -17.484375 -31.867188 -17.953125 -30.953125 C -18.117188 -30.566406 -18.394531 -30.332031 -18.78125 -30.25 C -18.863281 -30.226562 -18.953125 -30.210938 -19.046875 -30.203125 C -19.078125 -30.191406 -19.101562 -30.1875 -19.125 -30.1875 C -19.28125 -30.15625 -19.429688 -30.148438 -19.578125 -30.171875 C -19.722656 -30.191406 -19.84375 -30.257812 -19.9375 -30.375 C -20.007812 -30.457031 -20.050781 -30.550781 -20.0625 -30.65625 C -20.082031 -30.769531 -20.09375 -30.875 -20.09375 -30.96875 C -19.96875 -31.457031 -19.765625 -31.90625 -19.484375 -32.3125 C -19.203125 -32.726562 -18.914062 -33.128906 -18.625 -33.515625 C -17.820312 -34.453125 -16.972656 -35.320312 -16.078125 -36.125 C -15.179688 -36.925781 -14.253906 -37.691406 -13.296875 -38.421875 C -10.828125 -40.285156 -7.585938 -42.128906 -3.578125 -43.953125 C 0.429688 -45.773438 4.890625 -47.441406 9.796875 -48.953125 C 14.710938 -50.472656 19.710938 -51.679688 24.796875 -52.578125 C 29.890625 -53.472656 34.722656 -53.910156 39.296875 -53.890625 C 43.878906 -53.878906 47.875 -53.257812 51.28125 -52.03125 C 52.8125 -51.5 54.234375 -50.726562 55.546875 -49.71875 C 57.378906 -48.207031 58.539062 -46.609375 59.03125 -44.921875 C 59.53125 -43.242188 59.566406 -41.539062 59.140625 -39.8125 C 58.710938 -38.09375 58.015625 -36.398438 57.046875 -34.734375 C 56.078125 -33.078125 55.0625 -31.507812 54 -30.03125 C 53.875 -29.882812 53.75 -29.703125 53.625 -29.484375 C 53.5 -29.265625 53.457031 -29.09375 53.5 -28.96875 C 53.550781 -28.851562 53.753906 -28.851562 54.109375 -28.96875 C 58.265625 -30.34375 62.4375 -31.550781 66.625 -32.59375 C 70.820312 -33.644531 75.054688 -34.582031 79.328125 -35.40625 C 79.460938 -35.425781 79.582031 -35.441406 79.6875 -35.453125 L 79.71875 -35.46875 C 80.082031 -35.519531 80.445312 -35.554688 80.8125 -35.578125 Z M 16.640625 -6.140625 C 16.691406 -6.390625 16.8125 -6.742188 17 -7.203125 C 17.238281 -7.941406 17.488281 -8.757812 17.75 -9.65625 C 18.007812 -10.550781 18.175781 -11.320312 18.25 -11.96875 C 18.332031 -12.625 18.191406 -12.957031 17.828125 -12.96875 C 17.617188 -12.882812 17.410156 -12.796875 17.203125 -12.703125 C 17.160156 -12.691406 17.097656 -12.664062 17.015625 -12.625 C 16.242188 -12.25 15.46875 -11.878906 14.6875 -11.515625 C 12.820312 -10.617188 10.957031 -9.695312 9.09375 -8.75 C 9.019531 -8.707031 8.9375 -8.65625 8.84375 -8.59375 C 5.488281 -6.945312 2.21875 -5.148438 -0.96875 -3.203125 C -2.570312 -2.210938 -4.070312 -1.078125 -5.46875 0.203125 C -6 0.628906 -6.40625 1.148438 -6.6875 1.765625 C -6.8125 2.015625 -6.820312 2.226562 -6.71875 2.40625 C -6.625 2.59375 -6.445312 2.722656 -6.1875 2.796875 C -5.613281 2.867188 -5.050781 2.859375 -4.5 2.765625 C -4.019531 2.691406 -3.535156 2.59375 -3.046875 2.46875 C -3.023438 2.46875 -3.015625 2.46875 -3.015625 2.46875 C -0.535156 1.800781 1.878906 0.984375 4.234375 0.015625 C 7.972656 -1.460938 11.632812 -3.082031 15.21875 -4.84375 C 15.269531 -4.882812 15.304688 -4.90625 15.328125 -4.90625 C 15.617188 -5.03125 15.878906 -5.179688 16.109375 -5.359375 C 16.347656 -5.546875 16.523438 -5.804688 16.640625 -6.140625 Z M 19.765625 -7.34375 C 21.960938 -8.300781 24.898438 -9.90625 28.578125 -12.15625 C 32.265625 -14.414062 35.78125 -16.738281 39.125 -19.125 C 42.476562 -21.507812 44.710938 -23.398438 45.828125 -24.796875 C 45.648438 -24.765625 45.503906 -24.738281 45.390625 -24.71875 C 45.328125 -24.707031 45.285156 -24.703125 45.265625 -24.703125 C 37.535156 -21.816406 29.929688 -18.644531 22.453125 -15.1875 C 21.785156 -14.875 21.378906 -14.382812 21.234375 -13.71875 C 20.921875 -12.613281 20.617188 -11.523438 20.328125 -10.453125 C 20.078125 -9.648438 19.835938 -8.84375 19.609375 -8.03125 C 19.578125 -7.914062 19.566406 -7.789062 19.578125 -7.65625 C 19.585938 -7.53125 19.648438 -7.425781 19.765625 -7.34375 Z M 19.765625 -7.34375 "/></g></g><g transform="translate(116.398735, 226.112342)"><g><path d="M 12.78125 -10.375 C 12.59375 -10.144531 12.398438 -9.945312 12.203125 -9.78125 C 11.535156 -9.1875 10.925781 -8.707031 10.375 -8.34375 C 9.820312 -7.976562 9.160156 -7.59375 8.390625 -7.1875 C 7.253906 -6.632812 6.472656 -6.585938 6.046875 -7.046875 C 5.617188 -7.503906 5.441406 -8.21875 5.515625 -9.1875 C 5.628906 -10.570312 5.660156 -11.570312 5.609375 -12.1875 C 5.566406 -12.8125 5.332031 -12.988281 4.90625 -12.71875 C 4.476562 -12.445312 3.75 -11.679688 2.71875 -10.421875 C 1.28125 -8.703125 0.117188 -6.8125 -0.765625 -4.75 C -0.890625 -4.476562 -1.039062 -4.242188 -1.21875 -4.046875 C -1.40625 -3.847656 -1.664062 -3.722656 -2 -3.671875 C -2.300781 -3.617188 -2.535156 -3.660156 -2.703125 -3.796875 C -2.878906 -3.941406 -2.925781 -4.164062 -2.84375 -4.46875 C -2.40625 -6.070312 -1.945312 -7.671875 -1.46875 -9.265625 C -0.65625 -12.046875 0.132812 -14.800781 0.90625 -17.53125 C 1.488281 -19.582031 2.0625 -21.628906 2.625 -23.671875 C 2.96875 -24.890625 3.300781 -26.101562 3.625 -27.3125 C 3.65625 -27.40625 3.691406 -27.507812 3.734375 -27.625 C 3.753906 -27.757812 3.785156 -27.894531 3.828125 -28.03125 C 3.878906 -28.164062 3.9375 -28.3125 4 -28.46875 C 4.039062 -28.613281 4.148438 -28.742188 4.328125 -28.859375 C 4.503906 -28.972656 4.6875 -29.054688 4.875 -29.109375 C 5.070312 -29.160156 5.226562 -29.175781 5.34375 -29.15625 C 5.5 -29.0625 5.597656 -28.957031 5.640625 -28.84375 C 5.679688 -28.738281 5.679688 -28.617188 5.640625 -28.484375 C 5.617188 -28.453125 5.613281 -28.414062 5.625 -28.375 C 5.5 -27.632812 5.363281 -26.925781 5.21875 -26.25 C 4.320312 -22.476562 3.28125 -18.734375 2.09375 -15.015625 C 2.007812 -14.765625 1.910156 -14.460938 1.796875 -14.109375 C 1.609375 -13.597656 1.441406 -13.097656 1.296875 -12.609375 C 1.148438 -12.128906 1.125 -11.820312 1.21875 -11.6875 C 1.320312 -11.5625 1.648438 -11.734375 2.203125 -12.203125 C 2.359375 -12.367188 2.503906 -12.53125 2.640625 -12.6875 C 3.078125 -13.09375 3.503906 -13.476562 3.921875 -13.84375 C 4.296875 -14.1875 4.738281 -14.410156 5.25 -14.515625 C 6.445312 -14.796875 7.21875 -14.351562 7.5625 -13.1875 C 7.695312 -12.726562 7.753906 -12.257812 7.734375 -11.78125 C 7.722656 -11.300781 7.6875 -10.828125 7.625 -10.359375 C 7.625 -10.234375 7.625 -10.101562 7.625 -9.96875 C 7.550781 -9.144531 7.679688 -8.695312 8.015625 -8.625 C 8.359375 -8.5625 8.789062 -8.703125 9.3125 -9.046875 C 9.84375 -9.390625 10.378906 -9.773438 10.921875 -10.203125 C 11.285156 -10.492188 11.609375 -10.734375 11.890625 -10.921875 C 12.171875 -11.117188 12.390625 -11.222656 12.546875 -11.234375 C 12.835938 -11.234375 12.984375 -11.140625 12.984375 -10.953125 C 12.984375 -10.765625 12.914062 -10.570312 12.78125 -10.375 Z M 12.78125 -10.375 "/></g></g><g transform="translate(129.637353, 223.962077)"><g><path d="M 5.6875 -8.4375 C 5.195312 -7.601562 4.578125 -6.8125 3.828125 -6.0625 C 3.085938 -5.3125 2.203125 -4.742188 1.171875 -4.359375 C 0.148438 -3.972656 -0.679688 -3.914062 -1.328125 -4.1875 C -1.984375 -4.457031 -2.234375 -5.257812 -2.078125 -6.59375 C -1.835938 -7.988281 -1.40625 -9.347656 -0.78125 -10.671875 C -0.632812 -10.960938 -0.398438 -11.1875 -0.078125 -11.34375 C 0.160156 -11.4375 0.390625 -11.425781 0.609375 -11.3125 C 0.828125 -11.195312 0.929688 -11.023438 0.921875 -10.796875 C 0.816406 -10.347656 0.691406 -9.898438 0.546875 -9.453125 C 0.410156 -9.003906 0.320312 -8.710938 0.28125 -8.578125 C -0.0195312 -7.765625 -0.179688 -6.941406 -0.203125 -6.109375 C -0.128906 -5.648438 0.488281 -5.722656 1.65625 -6.328125 C 2.820312 -6.929688 3.90625 -7.867188 4.90625 -9.140625 C 5.90625 -10.410156 6.410156 -10.816406 6.421875 -10.359375 C 6.429688 -9.910156 6.1875 -9.269531 5.6875 -8.4375 Z M 1.75 -13.75 C 1.6875 -13.6875 1.566406 -13.609375 1.390625 -13.515625 C 1.222656 -13.429688 1.039062 -13.351562 0.84375 -13.28125 C 0.65625 -13.21875 0.492188 -13.222656 0.359375 -13.296875 C 0.234375 -13.378906 0.203125 -13.566406 0.265625 -13.859375 C 0.378906 -14.367188 0.503906 -14.820312 0.640625 -15.21875 C 0.773438 -15.625 0.972656 -16.078125 1.234375 -16.578125 C 1.410156 -16.796875 1.617188 -16.929688 1.859375 -16.984375 C 2.097656 -17.035156 2.3125 -17.003906 2.5 -16.890625 C 2.6875 -16.785156 2.765625 -16.601562 2.734375 -16.34375 C 2.617188 -15.375 2.289062 -14.507812 1.75 -13.75 Z M 1.75 -13.75 "/></g></g><g transform="translate(136.404144, 222.862989)"><g><path d="M 7.0625 -9.640625 C 7.375 -10.085938 7.65625 -10.351562 7.90625 -10.4375 C 8.15625 -10.519531 8.328125 -10.503906 8.421875 -10.390625 C 8.523438 -10.285156 8.503906 -10.109375 8.359375 -9.859375 C 7.535156 -8.460938 6.566406 -7.21875 5.453125 -6.125 C 4.335938 -5.03125 3.125 -4.300781 1.8125 -3.9375 C 0.5 -3.582031 -0.425781 -4.179688 -0.96875 -5.734375 C -1.4375 -7.285156 -1 -10.671875 0.34375 -15.890625 C 1.6875 -21.109375 2.71875 -25.367188 3.4375 -28.671875 C 3.5 -28.972656 3.617188 -29.242188 3.796875 -29.484375 C 4.023438 -29.804688 4.34375 -29.921875 4.75 -29.828125 C 4.894531 -29.785156 5.039062 -29.710938 5.1875 -29.609375 C 5.332031 -29.515625 5.410156 -29.296875 5.421875 -28.953125 C 2.054688 -15.085938 0.550781 -7.601562 0.90625 -6.5 C 1.257812 -5.394531 2.035156 -5.234375 3.234375 -6.015625 C 4.429688 -6.804688 5.332031 -7.554688 5.9375 -8.265625 C 6.539062 -8.972656 6.914062 -9.429688 7.0625 -9.640625 Z M 7.0625 -9.640625 "/></g></g><g transform="translate(145.062165, 221.456721)"><g><path d="M 7.0625 -9.640625 C 7.375 -10.085938 7.65625 -10.351562 7.90625 -10.4375 C 8.15625 -10.519531 8.328125 -10.503906 8.421875 -10.390625 C 8.523438 -10.285156 8.503906 -10.109375 8.359375 -9.859375 C 7.535156 -8.460938 6.566406 -7.21875 5.453125 -6.125 C 4.335938 -5.03125 3.125 -4.300781 1.8125 -3.9375 C 0.5 -3.582031 -0.425781 -4.179688 -0.96875 -5.734375 C -1.4375 -7.285156 -1 -10.671875 0.34375 -15.890625 C 1.6875 -21.109375 2.71875 -25.367188 3.4375 -28.671875 C 3.5 -28.972656 3.617188 -29.242188 3.796875 -29.484375 C 4.023438 -29.804688 4.34375 -29.921875 4.75 -29.828125 C 4.894531 -29.785156 5.039062 -29.710938 5.1875 -29.609375 C 5.332031 -29.515625 5.410156 -29.296875 5.421875 -28.953125 C 2.054688 -15.085938 0.550781 -7.601562 0.90625 -6.5 C 1.257812 -5.394531 2.035156 -5.234375 3.234375 -6.015625 C 4.429688 -6.804688 5.332031 -7.554688 5.9375 -8.265625 C 6.539062 -8.972656 6.914062 -9.429688 7.0625 -9.640625 Z M 7.0625 -9.640625 "/></g></g><g transform="translate(153.720187, 220.050453)"><g><path d="M 5.6875 -8.4375 C 5.195312 -7.601562 4.578125 -6.8125 3.828125 -6.0625 C 3.085938 -5.3125 2.203125 -4.742188 1.171875 -4.359375 C 0.148438 -3.972656 -0.679688 -3.914062 -1.328125 -4.1875 C -1.984375 -4.457031 -2.234375 -5.257812 -2.078125 -6.59375 C -1.835938 -7.988281 -1.40625 -9.347656 -0.78125 -10.671875 C -0.632812 -10.960938 -0.398438 -11.1875 -0.078125 -11.34375 C 0.160156 -11.4375 0.390625 -11.425781 0.609375 -11.3125 C 0.828125 -11.195312 0.929688 -11.023438 0.921875 -10.796875 C 0.816406 -10.347656 0.691406 -9.898438 0.546875 -9.453125 C 0.410156 -9.003906 0.320312 -8.710938 0.28125 -8.578125 C -0.0195312 -7.765625 -0.179688 -6.941406 -0.203125 -6.109375 C -0.128906 -5.648438 0.488281 -5.722656 1.65625 -6.328125 C 2.820312 -6.929688 3.90625 -7.867188 4.90625 -9.140625 C 5.90625 -10.410156 6.410156 -10.816406 6.421875 -10.359375 C 6.429688 -9.910156 6.1875 -9.269531 5.6875 -8.4375 Z M 1.75 -13.75 C 1.6875 -13.6875 1.566406 -13.609375 1.390625 -13.515625 C 1.222656 -13.429688 1.039062 -13.351562 0.84375 -13.28125 C 0.65625 -13.21875 0.492188 -13.222656 0.359375 -13.296875 C 0.234375 -13.378906 0.203125 -13.566406 0.265625 -13.859375 C 0.378906 -14.367188 0.503906 -14.820312 0.640625 -15.21875 C 0.773438 -15.625 0.972656 -16.078125 1.234375 -16.578125 C 1.410156 -16.796875 1.617188 -16.929688 1.859375 -16.984375 C 2.097656 -17.035156 2.3125 -17.003906 2.5 -16.890625 C 2.6875 -16.785156 2.765625 -16.601562 2.734375 -16.34375 C 2.617188 -15.375 2.289062 -14.507812 1.75 -13.75 Z M 1.75 -13.75 "/></g></g><g transform="translate(160.486978, 218.951366)"><g><path d="M 12.328125 -11.359375 C 12.097656 -11.210938 11.847656 -11.082031 11.578125 -10.96875 C 11.515625 -10.914062 11.453125 -10.875 11.390625 -10.84375 C 11.140625 -10.695312 10.878906 -10.554688 10.609375 -10.421875 C 9.867188 -10.023438 9.109375 -9.625 8.328125 -9.21875 C 7.742188 -8.9375 7.328125 -8.476562 7.078125 -7.84375 C 6.671875 -6.832031 6.078125 -6 5.296875 -5.34375 C 4.523438 -4.695312 3.71875 -4.195312 2.875 -3.84375 C 2.03125 -3.488281 1.273438 -3.226562 0.609375 -3.0625 C -0.046875 -2.90625 -0.484375 -2.828125 -0.703125 -2.828125 C -0.722656 -2.816406 -0.75 -2.8125 -0.78125 -2.8125 C -1.019531 -2.582031 -1.238281 -2.191406 -1.4375 -1.640625 C -1.632812 -1.085938 -1.804688 -0.585938 -1.953125 -0.140625 C -1.972656 -0.0351562 -1.988281 0.0625 -2 0.15625 C -2.78125 2.625 -3.539062 5.09375 -4.28125 7.5625 C -4.726562 8.945312 -5.164062 10.328125 -5.59375 11.703125 C -5.726562 12.191406 -5.894531 12.660156 -6.09375 13.109375 C -6.300781 13.484375 -6.609375 13.601562 -7.015625 13.46875 C -7.296875 13.320312 -7.398438 13.078125 -7.328125 12.734375 C -7.253906 12.367188 -7.175781 12.007812 -7.09375 11.65625 C -5.863281 6.625 -4.503906 1.625 -3.015625 -3.34375 C -2.554688 -4.875 -2.140625 -6.425781 -1.765625 -8 C -1.597656 -8.738281 -1.421875 -9.484375 -1.234375 -10.234375 C -1.222656 -10.316406 -1.191406 -10.40625 -1.140625 -10.5 C -1.054688 -10.90625 -0.941406 -11.300781 -0.796875 -11.6875 C -0.722656 -11.832031 -0.5625 -11.941406 -0.3125 -12.015625 C -0.0703125 -12.097656 0.148438 -12.097656 0.359375 -12.015625 C 0.617188 -11.898438 0.773438 -11.695312 0.828125 -11.40625 C 0.847656 -11.257812 0.84375 -11.097656 0.8125 -10.921875 C 0.789062 -10.773438 0.78125 -10.640625 0.78125 -10.515625 C 0.789062 -10.398438 0.851562 -10.28125 0.96875 -10.15625 C 1.15625 -10.164062 1.3125 -10.222656 1.4375 -10.328125 C 1.5625 -10.429688 1.679688 -10.546875 1.796875 -10.671875 C 1.898438 -10.785156 2.039062 -10.875 2.21875 -10.9375 C 2.3125 -11.019531 2.398438 -11.097656 2.484375 -11.171875 C 3.003906 -11.503906 3.519531 -11.8125 4.03125 -12.09375 C 4.707031 -12.425781 5.414062 -12.488281 6.15625 -12.28125 C 6.5 -12.132812 6.765625 -11.941406 6.953125 -11.703125 C 7.148438 -11.460938 7.3125 -11.195312 7.4375 -10.90625 C 7.550781 -10.695312 7.78125 -10.609375 8.125 -10.640625 C 8.476562 -10.679688 8.851562 -10.785156 9.25 -10.953125 C 9.65625 -11.128906 10.023438 -11.300781 10.359375 -11.46875 C 10.640625 -11.59375 10.832031 -11.675781 10.9375 -11.71875 C 11.28125 -11.863281 11.640625 -11.941406 12.015625 -11.953125 C 12.109375 -11.972656 12.203125 -11.972656 12.296875 -11.953125 C 12.390625 -11.941406 12.445312 -11.859375 12.46875 -11.703125 C 12.476562 -11.640625 12.46875 -11.570312 12.4375 -11.5 C 12.414062 -11.425781 12.378906 -11.378906 12.328125 -11.359375 Z M 5.234375 -9.015625 C 5.441406 -9.203125 5.539062 -9.472656 5.53125 -9.828125 C 5.53125 -10.191406 5.4375 -10.523438 5.25 -10.828125 C 5.175781 -10.921875 5.085938 -10.976562 4.984375 -11 C 4.890625 -11.03125 4.785156 -11.035156 4.671875 -11.015625 C 4.472656 -10.953125 4.28125 -10.859375 4.09375 -10.734375 C 2.132812 -9.304688 0.660156 -7.5 -0.328125 -5.3125 C -0.515625 -4.800781 -0.453125 -4.597656 -0.140625 -4.703125 C 0.160156 -4.804688 0.601562 -5.078125 1.1875 -5.515625 C 1.769531 -5.960938 2.363281 -6.460938 2.96875 -7.015625 C 3.582031 -7.578125 4.109375 -8.054688 4.546875 -8.453125 C 4.941406 -8.796875 5.171875 -8.984375 5.234375 -9.015625 Z M 5.234375 -9.015625 "/></g></g><g transform="translate(173.274477, 216.874372)"><g/></g><g transform="translate(186.39164, 214.743834)"><g><path d="M 60.3125 -37.515625 C 60.195312 -37.472656 60.0625 -37.453125 59.90625 -37.453125 C 59.75 -37.453125 59.59375 -37.492188 59.4375 -37.578125 C 59.28125 -37.710938 59.203125 -37.84375 59.203125 -37.96875 C 59.203125 -38.09375 59.226562 -38.222656 59.28125 -38.359375 C 60.1875 -40.492188 60.910156 -42.703125 61.453125 -44.984375 C 61.804688 -46.398438 62.082031 -47.84375 62.28125 -49.3125 C 62.40625 -50.226562 62.273438 -51.164062 61.890625 -52.125 C 61.503906 -53.144531 60.742188 -53.796875 59.609375 -54.078125 C 58.753906 -54.234375 57.90625 -54.253906 57.0625 -54.140625 C 56.914062 -54.117188 56.769531 -54.09375 56.625 -54.0625 C 54.851562 -53.707031 53.160156 -53.175781 51.546875 -52.46875 C 48.753906 -51.289062 46.085938 -49.957031 43.546875 -48.46875 C 41.003906 -46.976562 38.539062 -45.40625 36.15625 -43.75 C 25.6875 -36.375 16.640625 -27.738281 9.015625 -17.84375 C 7.078125 -15.425781 5.460938 -12.820312 4.171875 -10.03125 C 3.722656 -9.039062 3.363281 -8.015625 3.09375 -6.953125 C 2.914062 -6.347656 2.828125 -5.71875 2.828125 -5.0625 C 2.773438 -2.945312 3.914062 -1.554688 6.25 -0.890625 C 8.207031 -0.335938 10.140625 -0.164062 12.046875 -0.375 C 13.546875 -0.476562 14.992188 -0.644531 16.390625 -0.875 C 17.054688 -0.976562 17.691406 -1.109375 18.296875 -1.265625 C 27.191406 -2.804688 35.414062 -5.332031 42.96875 -8.84375 C 43.082031 -8.914062 43.195312 -8.972656 43.3125 -9.015625 C 43.820312 -9.285156 44.363281 -9.519531 44.9375 -9.71875 C 45.082031 -9.757812 45.328125 -9.820312 45.671875 -9.90625 C 46.023438 -9.988281 46.363281 -10.019531 46.6875 -10 C 47.019531 -9.988281 47.25 -9.878906 47.375 -9.671875 C 47.414062 -9.554688 47.40625 -9.457031 47.34375 -9.375 C 47.289062 -9.300781 47.203125 -9.242188 47.078125 -9.203125 C 46.617188 -8.992188 46.160156 -8.785156 45.703125 -8.578125 C 44.328125 -7.972656 42.960938 -7.375 41.609375 -6.78125 C 33.921875 -3.414062 25.757812 -1.0625 17.125 0.28125 C 15.34375 0.570312 13.554688 0.832031 11.765625 1.0625 C 9.753906 1.300781 7.679688 1.203125 5.546875 0.765625 C 1.296875 -0.128906 -0.519531 -2.460938 0.09375 -6.234375 C 0.34375 -7.734375 0.816406 -9.160156 1.515625 -10.515625 C 2.460938 -12.484375 3.566406 -14.351562 4.828125 -16.125 C 6.085938 -17.90625 7.410156 -19.640625 8.796875 -21.328125 C 15.046875 -28.921875 22.160156 -35.726562 30.140625 -41.75 C 32.578125 -43.582031 35.082031 -45.328125 37.65625 -46.984375 C 40.226562 -48.640625 42.921875 -50.171875 45.734375 -51.578125 C 48.085938 -52.765625 50.53125 -53.769531 53.0625 -54.59375 C 54.09375 -54.914062 55.128906 -55.160156 56.171875 -55.328125 C 56.859375 -55.441406 57.550781 -55.53125 58.25 -55.59375 C 59.070312 -55.644531 59.910156 -55.613281 60.765625 -55.5 C 63.085938 -55.070312 64.441406 -53.800781 64.828125 -51.6875 C 64.984375 -50.757812 65 -49.835938 64.875 -48.921875 C 64.632812 -47.148438 64.25 -45.425781 63.71875 -43.75 C 63.195312 -42.082031 62.609375 -40.4375 61.953125 -38.8125 C 61.785156 -38.25 61.425781 -37.847656 60.875 -37.609375 C 60.707031 -37.554688 60.550781 -37.53125 60.40625 -37.53125 Z M 60.3125 -37.515625 "/></g></g><g transform="translate(235.823913, 206.71486)"><g><path d="M 12.78125 -10.375 C 12.59375 -10.144531 12.398438 -9.945312 12.203125 -9.78125 C 11.535156 -9.1875 10.925781 -8.707031 10.375 -8.34375 C 9.820312 -7.976562 9.160156 -7.59375 8.390625 -7.1875 C 7.253906 -6.632812 6.472656 -6.585938 6.046875 -7.046875 C 5.617188 -7.503906 5.441406 -8.21875 5.515625 -9.1875 C 5.628906 -10.570312 5.660156 -11.570312 5.609375 -12.1875 C 5.566406 -12.8125 5.332031 -12.988281 4.90625 -12.71875 C 4.476562 -12.445312 3.75 -11.679688 2.71875 -10.421875 C 1.28125 -8.703125 0.117188 -6.8125 -0.765625 -4.75 C -0.890625 -4.476562 -1.039062 -4.242188 -1.21875 -4.046875 C -1.40625 -3.847656 -1.664062 -3.722656 -2 -3.671875 C -2.300781 -3.617188 -2.535156 -3.660156 -2.703125 -3.796875 C -2.878906 -3.941406 -2.925781 -4.164062 -2.84375 -4.46875 C -2.40625 -6.070312 -1.945312 -7.671875 -1.46875 -9.265625 C -0.65625 -12.046875 0.132812 -14.800781 0.90625 -17.53125 C 1.488281 -19.582031 2.0625 -21.628906 2.625 -23.671875 C 2.96875 -24.890625 3.300781 -26.101562 3.625 -27.3125 C 3.65625 -27.40625 3.691406 -27.507812 3.734375 -27.625 C 3.753906 -27.757812 3.785156 -27.894531 3.828125 -28.03125 C 3.878906 -28.164062 3.9375 -28.3125 4 -28.46875 C 4.039062 -28.613281 4.148438 -28.742188 4.328125 -28.859375 C 4.503906 -28.972656 4.6875 -29.054688 4.875 -29.109375 C 5.070312 -29.160156 5.226562 -29.175781 5.34375 -29.15625 C 5.5 -29.0625 5.597656 -28.957031 5.640625 -28.84375 C 5.679688 -28.738281 5.679688 -28.617188 5.640625 -28.484375 C 5.617188 -28.453125 5.613281 -28.414062 5.625 -28.375 C 5.5 -27.632812 5.363281 -26.925781 5.21875 -26.25 C 4.320312 -22.476562 3.28125 -18.734375 2.09375 -15.015625 C 2.007812 -14.765625 1.910156 -14.460938 1.796875 -14.109375 C 1.609375 -13.597656 1.441406 -13.097656 1.296875 -12.609375 C 1.148438 -12.128906 1.125 -11.820312 1.21875 -11.6875 C 1.320312 -11.5625 1.648438 -11.734375 2.203125 -12.203125 C 2.359375 -12.367188 2.503906 -12.53125 2.640625 -12.6875 C 3.078125 -13.09375 3.503906 -13.476562 3.921875 -13.84375 C 4.296875 -14.1875 4.738281 -14.410156 5.25 -14.515625 C 6.445312 -14.796875 7.21875 -14.351562 7.5625 -13.1875 C 7.695312 -12.726562 7.753906 -12.257812 7.734375 -11.78125 C 7.722656 -11.300781 7.6875 -10.828125 7.625 -10.359375 C 7.625 -10.234375 7.625 -10.101562 7.625 -9.96875 C 7.550781 -9.144531 7.679688 -8.695312 8.015625 -8.625 C 8.359375 -8.5625 8.789062 -8.703125 9.3125 -9.046875 C 9.84375 -9.390625 10.378906 -9.773438 10.921875 -10.203125 C 11.285156 -10.492188 11.609375 -10.734375 11.890625 -10.921875 C 12.171875 -11.117188 12.390625 -11.222656 12.546875 -11.234375 C 12.835938 -11.234375 12.984375 -11.140625 12.984375 -10.953125 C 12.984375 -10.765625 12.914062 -10.570312 12.78125 -10.375 Z M 12.78125 -10.375 "/></g></g><g transform="translate(249.062531, 204.564594)"><g><path d="M 11.15625 -10.875 C 11.457031 -10.769531 11.535156 -10.398438 11.390625 -9.765625 C 11.140625 -9.265625 10.851562 -8.789062 10.53125 -8.34375 C 10.207031 -7.90625 9.835938 -7.492188 9.421875 -7.109375 C 9.390625 -7.109375 9.378906 -7.097656 9.390625 -7.078125 C 9.128906 -6.828125 8.835938 -6.597656 8.515625 -6.390625 C 5.921875 -4.941406 4.421875 -5.296875 4.015625 -7.453125 C 3.046875 -6.296875 2.390625 -5.578125 2.046875 -5.296875 C 1.222656 -4.609375 0.269531 -4.210938 -0.8125 -4.109375 C -1.601562 -4.003906 -2.175781 -4.144531 -2.53125 -4.53125 C -2.882812 -4.925781 -2.957031 -5.523438 -2.75 -6.328125 C -2.425781 -7.578125 -1.863281 -8.734375 -1.0625 -9.796875 C -0.132812 -10.992188 0.953125 -12.007812 2.203125 -12.84375 C 2.859375 -13.320312 3.582031 -13.582031 4.375 -13.625 C 5.175781 -13.707031 5.722656 -13.34375 6.015625 -12.53125 C 6.117188 -12.28125 6.09375 -12.039062 5.9375 -11.8125 C 5.71875 -11.539062 5.429688 -11.4375 5.078125 -11.5 C 5.054688 -11.5 5.019531 -11.5 4.96875 -11.5 C 4.925781 -11.507812 4.890625 -11.523438 4.859375 -11.546875 C 4.460938 -11.960938 4.097656 -12.101562 3.765625 -11.96875 C 3.429688 -11.832031 3.09375 -11.613281 2.75 -11.3125 C 1.132812 -9.988281 0.0507812 -8.328125 -0.5 -6.328125 C -0.539062 -6.234375 -0.554688 -6.132812 -0.546875 -6.03125 C -0.546875 -5.9375 -0.503906 -5.863281 -0.421875 -5.8125 C -0.210938 -5.78125 0.0078125 -5.832031 0.25 -5.96875 C 0.488281 -6.113281 0.71875 -6.300781 0.9375 -6.53125 C 1.164062 -6.769531 1.359375 -6.960938 1.515625 -7.109375 C 1.535156 -7.148438 1.546875 -7.171875 1.546875 -7.171875 C 2.273438 -8.015625 2.984375 -8.875 3.671875 -9.75 C 3.960938 -10.1875 4.378906 -10.472656 4.921875 -10.609375 C 5.679688 -10.734375 6.046875 -10.445312 6.015625 -9.75 C 5.992188 -9.476562 5.960938 -9.207031 5.921875 -8.9375 C 5.796875 -7.789062 5.890625 -7.144531 6.203125 -7 C 6.515625 -6.851562 6.9375 -6.921875 7.46875 -7.203125 C 8.007812 -7.492188 8.523438 -7.953125 9.015625 -8.578125 C 9.503906 -9.210938 9.910156 -9.78125 10.234375 -10.28125 C 10.554688 -10.789062 10.863281 -10.988281 11.15625 -10.875 Z M 11.15625 -10.875 "/></g></g><g transform="translate(260.566075, 202.696146)"><g><path d="M 12.328125 -11.359375 C 12.097656 -11.210938 11.847656 -11.082031 11.578125 -10.96875 C 11.515625 -10.914062 11.453125 -10.875 11.390625 -10.84375 C 11.140625 -10.695312 10.878906 -10.554688 10.609375 -10.421875 C 9.867188 -10.023438 9.109375 -9.625 8.328125 -9.21875 C 7.742188 -8.9375 7.328125 -8.476562 7.078125 -7.84375 C 6.671875 -6.832031 6.078125 -6 5.296875 -5.34375 C 4.523438 -4.695312 3.71875 -4.195312 2.875 -3.84375 C 2.03125 -3.488281 1.273438 -3.226562 0.609375 -3.0625 C -0.046875 -2.90625 -0.484375 -2.828125 -0.703125 -2.828125 C -0.722656 -2.816406 -0.75 -2.8125 -0.78125 -2.8125 C -1.019531 -2.582031 -1.238281 -2.191406 -1.4375 -1.640625 C -1.632812 -1.085938 -1.804688 -0.585938 -1.953125 -0.140625 C -1.972656 -0.0351562 -1.988281 0.0625 -2 0.15625 C -2.78125 2.625 -3.539062 5.09375 -4.28125 7.5625 C -4.726562 8.945312 -5.164062 10.328125 -5.59375 11.703125 C -5.726562 12.191406 -5.894531 12.660156 -6.09375 13.109375 C -6.300781 13.484375 -6.609375 13.601562 -7.015625 13.46875 C -7.296875 13.320312 -7.398438 13.078125 -7.328125 12.734375 C -7.253906 12.367188 -7.175781 12.007812 -7.09375 11.65625 C -5.863281 6.625 -4.503906 1.625 -3.015625 -3.34375 C -2.554688 -4.875 -2.140625 -6.425781 -1.765625 -8 C -1.597656 -8.738281 -1.421875 -9.484375 -1.234375 -10.234375 C -1.222656 -10.316406 -1.191406 -10.40625 -1.140625 -10.5 C -1.054688 -10.90625 -0.941406 -11.300781 -0.796875 -11.6875 C -0.722656 -11.832031 -0.5625 -11.941406 -0.3125 -12.015625 C -0.0703125 -12.097656 0.148438 -12.097656 0.359375 -12.015625 C 0.617188 -11.898438 0.773438 -11.695312 0.828125 -11.40625 C 0.847656 -11.257812 0.84375 -11.097656 0.8125 -10.921875 C 0.789062 -10.773438 0.78125 -10.640625 0.78125 -10.515625 C 0.789062 -10.398438 0.851562 -10.28125 0.96875 -10.15625 C 1.15625 -10.164062 1.3125 -10.222656 1.4375 -10.328125 C 1.5625 -10.429688 1.679688 -10.546875 1.796875 -10.671875 C 1.898438 -10.785156 2.039062 -10.875 2.21875 -10.9375 C 2.3125 -11.019531 2.398438 -11.097656 2.484375 -11.171875 C 3.003906 -11.503906 3.519531 -11.8125 4.03125 -12.09375 C 4.707031 -12.425781 5.414062 -12.488281 6.15625 -12.28125 C 6.5 -12.132812 6.765625 -11.941406 6.953125 -11.703125 C 7.148438 -11.460938 7.3125 -11.195312 7.4375 -10.90625 C 7.550781 -10.695312 7.78125 -10.609375 8.125 -10.640625 C 8.476562 -10.679688 8.851562 -10.785156 9.25 -10.953125 C 9.65625 -11.128906 10.023438 -11.300781 10.359375 -11.46875 C 10.640625 -11.59375 10.832031 -11.675781 10.9375 -11.71875 C 11.28125 -11.863281 11.640625 -11.941406 12.015625 -11.953125 C 12.109375 -11.972656 12.203125 -11.972656 12.296875 -11.953125 C 12.390625 -11.941406 12.445312 -11.859375 12.46875 -11.703125 C 12.476562 -11.640625 12.46875 -11.570312 12.4375 -11.5 C 12.414062 -11.425781 12.378906 -11.378906 12.328125 -11.359375 Z M 5.234375 -9.015625 C 5.441406 -9.203125 5.539062 -9.472656 5.53125 -9.828125 C 5.53125 -10.191406 5.4375 -10.523438 5.25 -10.828125 C 5.175781 -10.921875 5.085938 -10.976562 4.984375 -11 C 4.890625 -11.03125 4.785156 -11.035156 4.671875 -11.015625 C 4.472656 -10.953125 4.28125 -10.859375 4.09375 -10.734375 C 2.132812 -9.304688 0.660156 -7.5 -0.328125 -5.3125 C -0.515625 -4.800781 -0.453125 -4.597656 -0.140625 -4.703125 C 0.160156 -4.804688 0.601562 -5.078125 1.1875 -5.515625 C 1.769531 -5.960938 2.363281 -6.460938 2.96875 -7.015625 C 3.582031 -7.578125 4.109375 -8.054688 4.546875 -8.453125 C 4.941406 -8.796875 5.171875 -8.984375 5.234375 -9.015625 Z M 5.234375 -9.015625 "/></g></g><g transform="translate(273.353574, 200.619152)"><g><path d="M 5.6875 -8.4375 C 5.195312 -7.601562 4.578125 -6.8125 3.828125 -6.0625 C 3.085938 -5.3125 2.203125 -4.742188 1.171875 -4.359375 C 0.148438 -3.972656 -0.679688 -3.914062 -1.328125 -4.1875 C -1.984375 -4.457031 -2.234375 -5.257812 -2.078125 -6.59375 C -1.835938 -7.988281 -1.40625 -9.347656 -0.78125 -10.671875 C -0.632812 -10.960938 -0.398438 -11.1875 -0.078125 -11.34375 C 0.160156 -11.4375 0.390625 -11.425781 0.609375 -11.3125 C 0.828125 -11.195312 0.929688 -11.023438 0.921875 -10.796875 C 0.816406 -10.347656 0.691406 -9.898438 0.546875 -9.453125 C 0.410156 -9.003906 0.320312 -8.710938 0.28125 -8.578125 C -0.0195312 -7.765625 -0.179688 -6.941406 -0.203125 -6.109375 C -0.128906 -5.648438 0.488281 -5.722656 1.65625 -6.328125 C 2.820312 -6.929688 3.90625 -7.867188 4.90625 -9.140625 C 5.90625 -10.410156 6.410156 -10.816406 6.421875 -10.359375 C 6.429688 -9.910156 6.1875 -9.269531 5.6875 -8.4375 Z M 1.75 -13.75 C 1.6875 -13.6875 1.566406 -13.609375 1.390625 -13.515625 C 1.222656 -13.429688 1.039062 -13.351562 0.84375 -13.28125 C 0.65625 -13.21875 0.492188 -13.222656 0.359375 -13.296875 C 0.234375 -13.378906 0.203125 -13.566406 0.265625 -13.859375 C 0.378906 -14.367188 0.503906 -14.820312 0.640625 -15.21875 C 0.773438 -15.625 0.972656 -16.078125 1.234375 -16.578125 C 1.410156 -16.796875 1.617188 -16.929688 1.859375 -16.984375 C 2.097656 -17.035156 2.3125 -17.003906 2.5 -16.890625 C 2.6875 -16.785156 2.765625 -16.601562 2.734375 -16.34375 C 2.617188 -15.375 2.289062 -14.507812 1.75 -13.75 Z M 1.75 -13.75 "/></g></g><g transform="translate(280.120365, 199.520065)"><g><path d="M 9.484375 -10.140625 C 8.222656 -8.054688 6.921875 -6.457031 5.578125 -5.34375 C 4.234375 -4.238281 2.691406 -3.695312 0.953125 -3.71875 C -0.785156 -3.738281 -1.671875 -4.765625 -1.703125 -6.796875 C -1.648438 -7.816406 -1.519531 -8.835938 -1.3125 -9.859375 C -0.769531 -12.210938 -0.222656 -14.550781 0.328125 -16.875 C 0.492188 -17.71875 0.679688 -18.5625 0.890625 -19.40625 C 0.941406 -19.59375 0.988281 -19.78125 1.03125 -19.96875 C 1.101562 -20.269531 1.179688 -20.582031 1.265625 -20.90625 C 1.367188 -21.445312 1.125 -21.679688 0.53125 -21.609375 C 0.195312 -21.554688 -0.128906 -21.503906 -0.453125 -21.453125 C -0.597656 -21.421875 -0.765625 -21.390625 -0.953125 -21.359375 C -1.128906 -21.316406 -1.304688 -21.269531 -1.484375 -21.21875 C -1.773438 -21.132812 -2.066406 -21.066406 -2.359375 -21.015625 C -2.660156 -20.972656 -2.953125 -21.007812 -3.234375 -21.125 C -3.304688 -21.132812 -3.367188 -21.171875 -3.421875 -21.234375 C -3.472656 -21.296875 -3.503906 -21.367188 -3.515625 -21.453125 C -3.503906 -21.492188 -3.476562 -21.550781 -3.4375 -21.625 C -3.394531 -21.695312 -3.332031 -21.753906 -3.25 -21.796875 C -3.019531 -21.941406 -2.765625 -22.054688 -2.484375 -22.140625 C -1.773438 -22.296875 -1.070312 -22.4375 -0.375 -22.5625 C -0.09375 -22.613281 0.148438 -22.65625 0.359375 -22.6875 C 0.816406 -22.757812 1.15625 -22.832031 1.375 -22.90625 C 1.601562 -22.976562 1.765625 -23.128906 1.859375 -23.359375 C 1.960938 -23.585938 2.070312 -23.929688 2.1875 -24.390625 C 2.257812 -24.640625 2.351562 -24.914062 2.46875 -25.21875 C 2.707031 -26.09375 2.953125 -26.984375 3.203125 -27.890625 C 3.304688 -28.296875 3.421875 -28.695312 3.546875 -29.09375 C 3.648438 -29.46875 3.847656 -29.78125 4.140625 -30.03125 C 4.421875 -30.238281 4.691406 -30.273438 4.953125 -30.140625 C 5.035156 -30.097656 5.101562 -30.023438 5.15625 -29.921875 C 5.21875 -29.828125 5.253906 -29.738281 5.265625 -29.65625 C 5.335938 -29.207031 5.289062 -28.75 5.125 -28.28125 C 5.09375 -28.1875 5.0625 -28.066406 5.03125 -27.921875 C 4.945312 -27.484375 4.859375 -27.035156 4.765625 -26.578125 C 4.546875 -25.742188 4.351562 -24.890625 4.1875 -24.015625 C 4.125 -23.847656 4.140625 -23.710938 4.234375 -23.609375 C 4.335938 -23.503906 4.460938 -23.460938 4.609375 -23.484375 C 5.429688 -23.585938 6.238281 -23.703125 7.03125 -23.828125 C 7.4375 -23.898438 7.835938 -23.96875 8.234375 -24.03125 C 9.503906 -24.21875 10.046875 -24.128906 9.859375 -23.765625 C 9.710938 -23.523438 9.539062 -23.375 9.34375 -23.3125 C 9.15625 -23.257812 8.953125 -23.234375 8.734375 -23.234375 C 8.597656 -23.210938 8.46875 -23.191406 8.34375 -23.171875 C 7.0625 -22.867188 5.785156 -22.609375 4.515625 -22.390625 C 3.929688 -22.285156 3.582031 -21.953125 3.46875 -21.390625 C 3.351562 -20.859375 3.234375 -20.316406 3.109375 -19.765625 C 2.921875 -19.046875 2.757812 -18.351562 2.625 -17.6875 C 2.46875 -17.050781 2.304688 -16.398438 2.140625 -15.734375 C 1.734375 -14.066406 1.351562 -12.40625 1 -10.75 C 0.78125 -9.675781 0.648438 -8.585938 0.609375 -7.484375 C 0.429688 -5.472656 1.296875 -4.859375 3.203125 -5.640625 C 5.066406 -6.410156 6.878906 -8.132812 8.640625 -10.8125 C 9.453125 -11.570312 9.734375 -11.347656 9.484375 -10.140625 Z M 9.484375 -10.140625 "/></g></g><g transform="translate(289.975588, 197.919343)"><g><path d="M 11.15625 -10.875 C 11.457031 -10.769531 11.535156 -10.398438 11.390625 -9.765625 C 11.140625 -9.265625 10.851562 -8.789062 10.53125 -8.34375 C 10.207031 -7.90625 9.835938 -7.492188 9.421875 -7.109375 C 9.390625 -7.109375 9.378906 -7.097656 9.390625 -7.078125 C 9.128906 -6.828125 8.835938 -6.597656 8.515625 -6.390625 C 5.921875 -4.941406 4.421875 -5.296875 4.015625 -7.453125 C 3.046875 -6.296875 2.390625 -5.578125 2.046875 -5.296875 C 1.222656 -4.609375 0.269531 -4.210938 -0.8125 -4.109375 C -1.601562 -4.003906 -2.175781 -4.144531 -2.53125 -4.53125 C -2.882812 -4.925781 -2.957031 -5.523438 -2.75 -6.328125 C -2.425781 -7.578125 -1.863281 -8.734375 -1.0625 -9.796875 C -0.132812 -10.992188 0.953125 -12.007812 2.203125 -12.84375 C 2.859375 -13.320312 3.582031 -13.582031 4.375 -13.625 C 5.175781 -13.707031 5.722656 -13.34375 6.015625 -12.53125 C 6.117188 -12.28125 6.09375 -12.039062 5.9375 -11.8125 C 5.71875 -11.539062 5.429688 -11.4375 5.078125 -11.5 C 5.054688 -11.5 5.019531 -11.5 4.96875 -11.5 C 4.925781 -11.507812 4.890625 -11.523438 4.859375 -11.546875 C 4.460938 -11.960938 4.097656 -12.101562 3.765625 -11.96875 C 3.429688 -11.832031 3.09375 -11.613281 2.75 -11.3125 C 1.132812 -9.988281 0.0507812 -8.328125 -0.5 -6.328125 C -0.539062 -6.234375 -0.554688 -6.132812 -0.546875 -6.03125 C -0.546875 -5.9375 -0.503906 -5.863281 -0.421875 -5.8125 C -0.210938 -5.78125 0.0078125 -5.832031 0.25 -5.96875 C 0.488281 -6.113281 0.71875 -6.300781 0.9375 -6.53125 C 1.164062 -6.769531 1.359375 -6.960938 1.515625 -7.109375 C 1.535156 -7.148438 1.546875 -7.171875 1.546875 -7.171875 C 2.273438 -8.015625 2.984375 -8.875 3.671875 -9.75 C 3.960938 -10.1875 4.378906 -10.472656 4.921875 -10.609375 C 5.679688 -10.734375 6.046875 -10.445312 6.015625 -9.75 C 5.992188 -9.476562 5.960938 -9.207031 5.921875 -8.9375 C 5.796875 -7.789062 5.890625 -7.144531 6.203125 -7 C 6.515625 -6.851562 6.9375 -6.921875 7.46875 -7.203125 C 8.007812 -7.492188 8.523438 -7.953125 9.015625 -8.578125 C 9.503906 -9.210938 9.910156 -9.78125 10.234375 -10.28125 C 10.554688 -10.789062 10.863281 -10.988281 11.15625 -10.875 Z M 11.15625 -10.875 "/></g></g></g><g clip-path="url(#f212bdd3ee)"><g clip-path="url(#0619a8f456)"><path fill="#000000" d="M 287.066406 188.25 L 291.136719 188.25 L 291.136719 192.320312 L 287.066406 192.320312 Z M 287.066406 188.25 " fill-opacity="1" fill-rule="nonzero"/></g></g></svg>