<svg xmlns="http://www.w3.org/2000/svg" xmlns:xlink="http://www.w3.org/1999/xlink" width="500" zoomAndPan="magnify" viewBox="0 0 375 374.999991" height="500" preserveAspectRatio="xMidYMid meet" version="1.0"><defs><g/><clipPath id="66312757b1"><path d="M 120 156 L 289 156 L 289 183 L 120 183 Z M 120 156 " clip-rule="nonzero"/></clipPath><clipPath id="5da8c1cce7"><path d="M 119.195312 155.59375 L 286.820312 144.371094 L 289.125 178.796875 L 121.5 190.015625 Z M 119.195312 155.59375 " clip-rule="nonzero"/></clipPath><clipPath id="f79d0f6ebd"><path d="M 121.503906 190.085938 L 289.128906 178.867188 L 286.824219 144.441406 L 119.199219 155.664062 Z M 121.503906 190.085938 " clip-rule="nonzero"/></clipPath><clipPath id="bcee770c41"><path d="M 121.503906 190.085938 L 289.128906 178.867188 L 286.824219 144.441406 L 119.199219 155.664062 Z M 121.503906 190.085938 " clip-rule="nonzero"/></clipPath></defs><g fill="#231f20" fill-opacity="1"><g transform="translate(86.665626, 206.428522)"><g><path d="M 89.671875 -65.5 C 91.921875 -63.6875 93.753906 -61.609375 95.171875 -59.265625 C 96.585938 -56.929688 97.53125 -54.3125 98 -51.40625 C 98.25 -49.914062 98.300781 -48.441406 98.15625 -46.984375 C 98.019531 -45.523438 97.769531 -44.082031 97.40625 -42.65625 C 96.820312 -40.289062 95.976562 -38.039062 94.875 -35.90625 C 93.78125 -33.78125 92.492188 -31.753906 91.015625 -29.828125 C 89.046875 -27.328125 86.847656 -25.09375 84.421875 -23.125 C 82.003906 -21.164062 79.425781 -19.382812 76.6875 -17.78125 C 70.90625 -14.40625 64.832031 -11.65625 58.46875 -9.53125 C 58.03125 -9.363281 57.570312 -9.191406 57.09375 -9.015625 C 56.445312 -8.816406 55.988281 -8.640625 55.71875 -8.484375 C 55.457031 -8.335938 55.289062 -8.109375 55.21875 -7.796875 C 55.15625 -7.492188 55.125 -7.019531 55.125 -6.375 C 55.125 1.644531 55.109375 9.644531 55.078125 17.625 C 55.078125 18.675781 55.078125 19.707031 55.078125 20.71875 C 55.078125 20.789062 55.078125 20.84375 55.078125 20.875 C 55.078125 21.445312 55.066406 22.015625 55.046875 22.578125 C 55.035156 23.140625 54.941406 23.6875 54.765625 24.21875 C 54.523438 25.144531 53.96875 25.585938 53.09375 25.546875 C 52.320312 25.515625 51.8125 25.128906 51.5625 24.390625 C 51.257812 23.171875 51.128906 21.914062 51.171875 20.625 C 51.171875 19.40625 51.171875 18.191406 51.171875 16.984375 C 51.171875 10.140625 51.171875 3.300781 51.171875 -3.53125 C 51.171875 -3.78125 51.171875 -4.035156 51.171875 -4.296875 C 51.265625 -5.109375 51.179688 -5.988281 50.921875 -6.9375 C 50.441406 -6.894531 50.019531 -6.8125 49.65625 -6.6875 C 49.039062 -6.519531 48.445312 -6.484375 47.875 -6.578125 C 47.65625 -6.609375 47.460938 -6.664062 47.296875 -6.75 C 47.128906 -6.832031 47.03125 -7 47 -7.25 C 47 -7.71875 47.207031 -8.015625 47.625 -8.140625 C 48.414062 -8.484375 49.238281 -8.773438 50.09375 -9.015625 C 50.84375 -9.273438 51.203125 -9.800781 51.171875 -10.59375 C 51.171875 -11.070312 51.171875 -11.5625 51.171875 -12.0625 C 51.171875 -12.320312 51.171875 -12.609375 51.171875 -12.921875 C 51.171875 -17.015625 51.171875 -21.085938 51.171875 -25.140625 C 51.203125 -34.222656 51.21875 -43.316406 51.21875 -52.421875 C 51.21875 -52.515625 51.21875 -52.628906 51.21875 -52.765625 C 51.21875 -53.441406 51.234375 -54.101562 51.265625 -54.75 C 51.367188 -55.9375 52.015625 -56.53125 53.203125 -56.53125 C 54.335938 -56.5 54.960938 -55.890625 55.078125 -54.703125 C 55.109375 -54.117188 55.109375 -53.539062 55.078125 -52.96875 C 55.078125 -52.769531 55.078125 -52.570312 55.078125 -52.375 C 55.078125 -49.53125 55.078125 -46.695312 55.078125 -43.875 C 55.109375 -34.03125 55.125 -24.1875 55.125 -14.34375 C 55.125 -14.101562 55.125 -13.851562 55.125 -13.59375 C 55.0625 -12.769531 55.128906 -11.96875 55.328125 -11.1875 C 55.523438 -11.019531 55.710938 -10.953125 55.890625 -10.984375 C 56.078125 -11.023438 56.257812 -11.078125 56.4375 -11.140625 C 61.164062 -12.910156 65.707031 -15.007812 70.0625 -17.4375 C 74.414062 -19.875 78.484375 -22.753906 82.265625 -26.078125 C 87.171875 -30.359375 90.640625 -35.628906 92.671875 -41.890625 C 93.722656 -45.359375 94.019531 -48.570312 93.5625 -51.53125 C 93.113281 -54.488281 92.066406 -57.144531 90.421875 -59.5 C 88.785156 -61.851562 86.710938 -63.851562 84.203125 -65.5 C 79.867188 -68.34375 74.71875 -70.101562 68.75 -70.78125 C 62.78125 -71.457031 56.519531 -71.238281 49.96875 -70.125 C 43.414062 -69.007812 37.09375 -67.195312 31 -64.6875 C 24.914062 -62.1875 19.582031 -59.175781 15 -55.65625 C 10.414062 -52.144531 7.09375 -48.34375 5.03125 -44.25 C 4.550781 -43.4375 4.210938 -42.585938 4.015625 -41.703125 C 3.816406 -40.816406 3.832031 -39.890625 4.0625 -38.921875 C 4.195312 -38.367188 4.117188 -37.957031 3.828125 -37.6875 C 3.535156 -37.414062 3.117188 -37.320312 2.578125 -37.40625 C 1.503906 -37.570312 0.757812 -38.140625 0.34375 -39.109375 C 0.0078125 -39.953125 -0.0507812 -40.820312 0.15625 -41.71875 C 0.53125 -43.46875 1.222656 -45.070312 2.234375 -46.53125 C 5.515625 -51.300781 10.070312 -55.539062 15.90625 -59.25 C 21.738281 -62.957031 28.207031 -65.992188 35.3125 -68.359375 C 42.425781 -70.722656 49.535156 -72.25 56.640625 -72.9375 C 63.742188 -73.632812 70.1875 -73.335938 75.96875 -72.046875 C 78.507812 -71.484375 80.921875 -70.664062 83.203125 -69.59375 C 85.484375 -68.519531 87.640625 -67.15625 89.671875 -65.5 Z M 89.671875 -65.5 "/></g></g><g transform="translate(172.444673, 206.428522)"><g><path d="M 22.609375 -11.1875 C 23.921875 -12.644531 24.609375 -13.203125 24.671875 -12.859375 C 24.742188 -12.523438 24.460938 -11.738281 23.828125 -10.5 C 23.203125 -9.269531 22.226562 -8.21875 20.90625 -7.34375 C 19.9375 -6.738281 19.097656 -6.332031 18.390625 -6.125 C 17.691406 -5.914062 17.0625 -5.796875 16.5 -5.765625 C 15.375 -5.703125 14.515625 -6.023438 13.921875 -6.734375 C 13.328125 -7.441406 12.914062 -8.351562 12.6875 -9.46875 C 12.457031 -10.582031 12.289062 -11.734375 12.1875 -12.921875 C 12.070312 -13.671875 11.96875 -14.347656 11.875 -14.953125 C 11.738281 -15.898438 11.46875 -16.425781 11.0625 -16.53125 C 10.65625 -16.632812 10.03125 -16.023438 9.1875 -14.703125 C 8.3125 -13.285156 7.539062 -11.722656 6.875 -10.015625 C 6.21875 -8.304688 5.632812 -6.632812 5.125 -5 C 5.09375 -4.945312 5.0625 -4.863281 5.03125 -4.75 C 4.925781 -4.519531 4.84375 -4.28125 4.78125 -4.03125 C 4.570312 -3.351562 4.332031 -2.691406 4.0625 -2.046875 C 3.832031 -1.515625 3.4375 -1.160156 2.875 -0.984375 C 2.3125 -0.816406 1.722656 -0.859375 1.109375 -1.109375 C 0.703125 -1.273438 0.429688 -1.5625 0.296875 -1.96875 C 0.0976562 -2.582031 0.03125 -3.203125 0.09375 -3.828125 C 0.09375 -3.898438 0.09375 -3.953125 0.09375 -3.984375 C 0.226562 -6.660156 0.25 -11.113281 0.15625 -17.34375 C 0.0820312 -22.3125 0.046875 -27.65625 0.046875 -33.375 C 0.046875 -39.101562 0.191406 -44.503906 0.484375 -49.578125 C 0.773438 -54.648438 1.273438 -58.710938 1.984375 -61.765625 C 2.296875 -62.867188 2.800781 -63.863281 3.5 -64.75 C 4.207031 -65.632812 4.992188 -66.117188 5.859375 -66.203125 C 6.722656 -66.285156 7.53125 -65.695312 8.28125 -64.4375 C 8.789062 -63.363281 9.109375 -62.21875 9.234375 -61 C 9.566406 -57.40625 9.257812 -51.875 8.3125 -44.40625 C 7.363281 -36.945312 6.375 -30.414062 5.34375 -24.8125 C 4.320312 -19.21875 3.8125 -14.546875 3.8125 -10.796875 C 4.144531 -11.367188 4.484375 -11.976562 4.828125 -12.625 C 5.296875 -13.570312 5.828125 -14.519531 6.421875 -15.46875 C 7.015625 -16.414062 7.710938 -17.21875 8.515625 -17.875 C 9.328125 -18.539062 10.3125 -18.957031 11.46875 -19.125 C 12.25 -19.25 13.039062 -19.195312 13.84375 -18.96875 C 14.65625 -18.738281 15.203125 -18.175781 15.484375 -17.28125 C 15.816406 -15.726562 15.929688 -14.070312 15.828125 -12.3125 C 15.828125 -10.457031 16.148438 -9.28125 16.796875 -8.78125 C 17.441406 -8.289062 18.242188 -8.207031 19.203125 -8.53125 C 20.171875 -8.851562 21.304688 -9.738281 22.609375 -11.1875 Z M 5.375 -58.90625 C 5.207031 -56.976562 5.015625 -53.765625 4.796875 -49.265625 C 4.578125 -44.765625 4.390625 -40.253906 4.234375 -35.734375 C 4.085938 -31.210938 4.015625 -27.453125 4.015625 -24.453125 C 4.378906 -27.160156 4.820312 -30.6875 5.34375 -35.03125 C 5.875 -39.375 6.34375 -43.84375 6.75 -48.4375 C 7.15625 -53.039062 7.359375 -56.5 7.359375 -58.8125 C 7.328125 -60.019531 7.238281 -60.921875 7.09375 -61.515625 C 6.957031 -62.109375 6.726562 -62.320312 6.40625 -62.15625 C 6.082031 -61.988281 5.835938 -61.554688 5.671875 -60.859375 C 5.503906 -60.171875 5.40625 -59.519531 5.375 -58.90625 Z M 5.375 -58.90625 "/></g></g><g transform="translate(195.86203, 206.428522)"><g><path d="M 11.96875 -9.359375 C 11.5 -8.378906 10.691406 -7.289062 9.546875 -6.09375 C 8.398438 -4.894531 7.097656 -4.132812 5.640625 -3.8125 C 4.179688 -3.488281 2.796875 -3.988281 1.484375 -5.3125 C 0.972656 -5.894531 0.597656 -6.566406 0.359375 -7.328125 C 0.117188 -8.085938 0.03125 -8.835938 0.09375 -9.578125 C 0.09375 -9.773438 0.09375 -10.03125 0.09375 -10.34375 C 0.09375 -11.125 0.125 -12.03125 0.1875 -13.0625 C 0.257812 -14.09375 0.414062 -15.019531 0.65625 -15.84375 C 0.894531 -16.675781 1.269531 -17.175781 1.78125 -17.34375 C 3.238281 -17.71875 4.03125 -17.210938 4.15625 -15.828125 C 4.15625 -15.378906 4.140625 -14.929688 4.109375 -14.484375 C 4.078125 -14.253906 4.0625 -14.039062 4.0625 -13.84375 C 4.03125 -13.195312 4 -12.550781 3.96875 -11.90625 C 3.96875 -11.394531 3.945312 -10.882812 3.90625 -10.375 C 3.875 -8.144531 4.367188 -6.816406 5.390625 -6.390625 C 6.421875 -5.972656 7.597656 -6.425781 8.921875 -7.75 C 10.242188 -9.070312 11.109375 -10.171875 11.515625 -11.046875 C 11.929688 -11.921875 12.226562 -12.101562 12.40625 -11.59375 C 12.59375 -11.09375 12.445312 -10.347656 11.96875 -9.359375 Z M 3.859375 -22.109375 C 3.648438 -21.929688 3.40625 -21.816406 3.125 -21.765625 C 2.84375 -21.722656 2.59375 -21.75 2.375 -21.84375 C 2.207031 -21.988281 2.097656 -22.171875 2.046875 -22.390625 C 2.003906 -22.609375 1.984375 -22.875 1.984375 -23.1875 C 1.984375 -23.25 2 -23.3125 2.03125 -23.375 C 2.0625 -23.644531 2.128906 -23.921875 2.234375 -24.203125 C 2.546875 -24.941406 3.1875 -25.28125 4.15625 -25.21875 C 4.488281 -25.164062 4.75 -25.023438 4.9375 -24.796875 C 5.132812 -24.566406 5.179688 -24.300781 5.078125 -24 C 4.847656 -23.238281 4.441406 -22.609375 3.859375 -22.109375 Z M 3.859375 -22.109375 "/></g></g><g transform="translate(207.190032, 206.428522)"><g><path d="M 16.65625 -10.75 C 16.914062 -11.382812 17.195312 -11.703125 17.5 -11.703125 C 17.8125 -11.703125 17.914062 -11.382812 17.8125 -10.75 C 17.300781 -9.175781 16.691406 -7.671875 15.984375 -6.234375 C 15.273438 -4.796875 14.316406 -3.507812 13.109375 -2.375 C 12.179688 -1.445312 11.082031 -0.851562 9.8125 -0.59375 C 8.070312 -0.351562 6.632812 -0.5625 5.5 -1.21875 C 4.375 -1.882812 3.476562 -2.832031 2.8125 -4.0625 C 2.15625 -5.300781 1.664062 -6.65625 1.34375 -8.125 C 1.019531 -9.601562 0.8125 -11.03125 0.71875 -12.40625 C 0.46875 -15.019531 0.285156 -18.457031 0.171875 -22.71875 C 0.0546875 -26.976562 0.0976562 -31.484375 0.296875 -36.234375 C 0.492188 -40.992188 0.957031 -45.40625 1.6875 -49.46875 C 2.425781 -53.53125 3.503906 -56.675781 4.921875 -58.90625 C 5.734375 -60 6.679688 -60.550781 7.765625 -60.5625 C 8.847656 -60.570312 9.8125 -60.070312 10.65625 -59.0625 C 11.226562 -58.28125 11.660156 -57.445312 11.953125 -56.5625 C 12.242188 -55.6875 12.4375 -54.796875 12.53125 -53.890625 C 12.832031 -50.773438 12.789062 -47.484375 12.40625 -44.015625 C 12.019531 -40.546875 11.410156 -36.84375 10.578125 -32.90625 C 9.753906 -28.96875 8.765625 -25.5 7.609375 -22.5 C 6.460938 -19.5 5.503906 -17.117188 4.734375 -15.359375 C 4.316406 -14.648438 4.160156 -13.582031 4.265625 -12.15625 C 4.398438 -10.601562 4.695312 -8.976562 5.15625 -7.28125 C 5.613281 -5.59375 6.25 -4.257812 7.0625 -3.28125 C 7.832031 -2.457031 8.691406 -2.195312 9.640625 -2.5 C 10.597656 -2.8125 11.546875 -3.457031 12.484375 -4.4375 C 13.429688 -5.425781 14.265625 -6.5 14.984375 -7.65625 C 15.710938 -8.820312 16.269531 -9.851562 16.65625 -10.75 Z M 4.359375 -34.359375 C 4.265625 -33.335938 4.175781 -31.800781 4.09375 -29.75 C 4.007812 -27.695312 3.929688 -25.609375 3.859375 -23.484375 C 3.796875 -21.117188 3.722656 -19.273438 3.640625 -17.953125 C 4.398438 -19.640625 5.28125 -22.097656 6.28125 -25.328125 C 7.28125 -28.554688 8.191406 -32.363281 9.015625 -36.75 C 9.835938 -41.132812 10.367188 -45.878906 10.609375 -50.984375 C 10.472656 -53.972656 10.113281 -55.992188 9.53125 -57.046875 C 8.957031 -58.109375 8.332031 -58.203125 7.65625 -57.328125 C 6.976562 -56.453125 6.441406 -54.609375 6.046875 -51.796875 C 5.429688 -47.128906 4.953125 -42.460938 4.609375 -37.796875 C 4.515625 -36.640625 4.429688 -35.492188 4.359375 -34.359375 Z M 4.359375 -34.359375 "/></g></g><g transform="translate(223.593718, 206.428522)"><g><path d="M 16.65625 -10.75 C 16.914062 -11.382812 17.195312 -11.703125 17.5 -11.703125 C 17.8125 -11.703125 17.914062 -11.382812 17.8125 -10.75 C 17.300781 -9.175781 16.691406 -7.671875 15.984375 -6.234375 C 15.273438 -4.796875 14.316406 -3.507812 13.109375 -2.375 C 12.179688 -1.445312 11.082031 -0.851562 9.8125 -0.59375 C 8.070312 -0.351562 6.632812 -0.5625 5.5 -1.21875 C 4.375 -1.882812 3.476562 -2.832031 2.8125 -4.0625 C 2.15625 -5.300781 1.664062 -6.65625 1.34375 -8.125 C 1.019531 -9.601562 0.8125 -11.03125 0.71875 -12.40625 C 0.46875 -15.019531 0.285156 -18.457031 0.171875 -22.71875 C 0.0546875 -26.976562 0.0976562 -31.484375 0.296875 -36.234375 C 0.492188 -40.992188 0.957031 -45.40625 1.6875 -49.46875 C 2.425781 -53.53125 3.503906 -56.675781 4.921875 -58.90625 C 5.734375 -60 6.679688 -60.550781 7.765625 -60.5625 C 8.847656 -60.570312 9.8125 -60.070312 10.65625 -59.0625 C 11.226562 -58.28125 11.660156 -57.445312 11.953125 -56.5625 C 12.242188 -55.6875 12.4375 -54.796875 12.53125 -53.890625 C 12.832031 -50.773438 12.789062 -47.484375 12.40625 -44.015625 C 12.019531 -40.546875 11.410156 -36.84375 10.578125 -32.90625 C 9.753906 -28.96875 8.765625 -25.5 7.609375 -22.5 C 6.460938 -19.5 5.503906 -17.117188 4.734375 -15.359375 C 4.316406 -14.648438 4.160156 -13.582031 4.265625 -12.15625 C 4.398438 -10.601562 4.695312 -8.976562 5.15625 -7.28125 C 5.613281 -5.59375 6.25 -4.257812 7.0625 -3.28125 C 7.832031 -2.457031 8.691406 -2.195312 9.640625 -2.5 C 10.597656 -2.8125 11.546875 -3.457031 12.484375 -4.4375 C 13.429688 -5.425781 14.265625 -6.5 14.984375 -7.65625 C 15.710938 -8.820312 16.269531 -9.851562 16.65625 -10.75 Z M 4.359375 -34.359375 C 4.265625 -33.335938 4.175781 -31.800781 4.09375 -29.75 C 4.007812 -27.695312 3.929688 -25.609375 3.859375 -23.484375 C 3.796875 -21.117188 3.722656 -19.273438 3.640625 -17.953125 C 4.398438 -19.640625 5.28125 -22.097656 6.28125 -25.328125 C 7.28125 -28.554688 8.191406 -32.363281 9.015625 -36.75 C 9.835938 -41.132812 10.367188 -45.878906 10.609375 -50.984375 C 10.472656 -53.972656 10.113281 -55.992188 9.53125 -57.046875 C 8.957031 -58.109375 8.332031 -58.203125 7.65625 -57.328125 C 6.976562 -56.453125 6.441406 -54.609375 6.046875 -51.796875 C 5.429688 -47.128906 4.953125 -42.460938 4.609375 -37.796875 C 4.515625 -36.640625 4.429688 -35.492188 4.359375 -34.359375 Z M 4.359375 -34.359375 "/></g></g><g transform="translate(239.997403, 206.428522)"><g><path d="M 11.96875 -9.359375 C 11.5 -8.378906 10.691406 -7.289062 9.546875 -6.09375 C 8.398438 -4.894531 7.097656 -4.132812 5.640625 -3.8125 C 4.179688 -3.488281 2.796875 -3.988281 1.484375 -5.3125 C 0.972656 -5.894531 0.597656 -6.566406 0.359375 -7.328125 C 0.117188 -8.085938 0.03125 -8.835938 0.09375 -9.578125 C 0.09375 -9.773438 0.09375 -10.03125 0.09375 -10.34375 C 0.09375 -11.125 0.125 -12.03125 0.1875 -13.0625 C 0.257812 -14.09375 0.414062 -15.019531 0.65625 -15.84375 C 0.894531 -16.675781 1.269531 -17.175781 1.78125 -17.34375 C 3.238281 -17.71875 4.03125 -17.210938 4.15625 -15.828125 C 4.15625 -15.378906 4.140625 -14.929688 4.109375 -14.484375 C 4.078125 -14.253906 4.0625 -14.039062 4.0625 -13.84375 C 4.03125 -13.195312 4 -12.550781 3.96875 -11.90625 C 3.96875 -11.394531 3.945312 -10.882812 3.90625 -10.375 C 3.875 -8.144531 4.367188 -6.816406 5.390625 -6.390625 C 6.421875 -5.972656 7.597656 -6.425781 8.921875 -7.75 C 10.242188 -9.070312 11.109375 -10.171875 11.515625 -11.046875 C 11.929688 -11.921875 12.226562 -12.101562 12.40625 -11.59375 C 12.59375 -11.09375 12.445312 -10.347656 11.96875 -9.359375 Z M 3.859375 -22.109375 C 3.648438 -21.929688 3.40625 -21.816406 3.125 -21.765625 C 2.84375 -21.722656 2.59375 -21.75 2.375 -21.84375 C 2.207031 -21.988281 2.097656 -22.171875 2.046875 -22.390625 C 2.003906 -22.609375 1.984375 -22.875 1.984375 -23.1875 C 1.984375 -23.25 2 -23.3125 2.03125 -23.375 C 2.0625 -23.644531 2.128906 -23.921875 2.234375 -24.203125 C 2.546875 -24.941406 3.1875 -25.28125 4.15625 -25.21875 C 4.488281 -25.164062 4.75 -25.023438 4.9375 -24.796875 C 5.132812 -24.566406 5.179688 -24.300781 5.078125 -24 C 4.847656 -23.238281 4.441406 -22.609375 3.859375 -22.109375 Z M 3.859375 -22.109375 "/></g></g><g transform="translate(251.325405, 206.428522)"><g><path d="M 17.5625 -11.34375 C 18.269531 -11.519531 19.179688 -12.015625 20.296875 -12.828125 C 21.421875 -13.640625 21.925781 -13.65625 21.8125 -12.875 C 21.707031 -12.09375 21.097656 -11.4375 19.984375 -10.90625 C 18.867188 -10.382812 17.84375 -10.007812 16.90625 -9.78125 C 16.664062 -9.707031 16.425781 -9.578125 16.1875 -9.390625 C 15.945312 -9.203125 15.796875 -8.992188 15.734375 -8.765625 C 15.566406 -7.785156 15.226562 -6.867188 14.71875 -6.015625 C 13.394531 -3.960938 11.519531 -3.148438 9.09375 -3.578125 C 8.132812 -3.816406 7.519531 -4.28125 7.25 -4.96875 C 6.988281 -5.664062 7.125 -6.441406 7.65625 -7.296875 C 8.414062 -8.273438 9.347656 -9.003906 10.453125 -9.484375 C 10.867188 -9.679688 11.242188 -9.828125 11.578125 -9.921875 C 11.742188 -9.992188 11.945312 -10.0625 12.1875 -10.125 C 12.625 -10.375 12.859375 -10.84375 12.890625 -11.53125 C 12.921875 -12.226562 12.757812 -12.921875 12.40625 -13.609375 C 12.050781 -14.304688 11.554688 -14.78125 10.921875 -15.03125 C 10.296875 -15.28125 9.546875 -15.050781 8.671875 -14.34375 C 7.828125 -13.5625 7.191406 -12.648438 6.765625 -11.609375 C 5.742188 -9.515625 5.039062 -7.3125 4.65625 -5 C 3.976562 -0.945312 3.507812 3.109375 3.25 7.171875 C 3.144531 9.066406 2.960938 10.941406 2.703125 12.796875 C 2.585938 13.585938 2.503906 14.390625 2.453125 15.203125 C 2.398438 15.460938 2.328125 15.734375 2.234375 16.015625 C 2.097656 16.515625 1.722656 16.726562 1.109375 16.65625 C 0.472656 16.625 0.132812 16.335938 0.09375 15.796875 C 0.0625 15.234375 0.0625 14.660156 0.09375 14.078125 C 0.09375 13.929688 0.09375 13.816406 0.09375 13.734375 C 0.132812 13.023438 0.171875 12.304688 0.203125 11.578125 C 0.234375 10.304688 0.265625 9.039062 0.296875 7.78125 C 0.378906 2.632812 0.347656 -2.539062 0.203125 -7.75 C 0.171875 -9.707031 0.132812 -11.640625 0.09375 -13.546875 C 0.09375 -13.742188 0.09375 -13.941406 0.09375 -14.140625 C 0.03125 -14.816406 0.0664062 -15.476562 0.203125 -16.125 C 0.347656 -16.769531 0.773438 -17.140625 1.484375 -17.234375 C 2.210938 -17.304688 2.664062 -16.96875 2.84375 -16.21875 C 2.84375 -16.15625 2.84375 -16.085938 2.84375 -16.015625 C 3.082031 -14.566406 3.300781 -12.660156 3.5 -10.296875 C 4.039062 -11.878906 4.71875 -13.15625 5.53125 -14.125 C 6.351562 -15.09375 7.316406 -15.804688 8.421875 -16.265625 C 9.347656 -16.679688 10.296875 -16.847656 11.265625 -16.765625 C 12.242188 -16.679688 13.132812 -16.28125 13.9375 -15.5625 C 14.738281 -14.84375 15.285156 -13.773438 15.578125 -12.359375 C 15.710938 -11.742188 15.898438 -11.378906 16.140625 -11.265625 C 16.378906 -11.148438 16.851562 -11.175781 17.5625 -11.34375 Z M 10.65625 -5.046875 C 11.269531 -5.390625 11.742188 -5.84375 12.078125 -6.40625 C 12.421875 -6.96875 12.597656 -7.457031 12.609375 -7.875 C 12.628906 -8.300781 12.457031 -8.460938 12.09375 -8.359375 C 11.132812 -7.984375 10.476562 -7.5 10.125 -6.90625 C 9.769531 -6.3125 9.648438 -5.800781 9.765625 -5.375 C 9.878906 -4.957031 10.175781 -4.847656 10.65625 -5.046875 Z M 10.65625 -5.046875 "/></g></g></g><g clip-path="url(#66312757b1)"><g clip-path="url(#5da8c1cce7)"><g clip-path="url(#f79d0f6ebd)"><g clip-path="url(#bcee770c41)"><path fill="#231f20" d="M 122.582031 168.875 C 122.175781 168.445312 121.5 168.421875 121.066406 168.828125 C 120.636719 169.230469 120.613281 169.90625 121.019531 170.335938 C 123.539062 173.015625 125.761719 175.070312 128.132812 176.707031 L 128.199219 176.75 C 130.558594 178.375 133.042969 179.570312 136.070312 180.539062 C 155.464844 186.777344 181.070312 178.382812 206.035156 170.199219 C 240.738281 158.820312 274.175781 147.855469 286.398438 178.171875 C 286.617188 178.71875 287.242188 178.984375 287.792969 178.765625 C 288.34375 178.546875 288.609375 177.925781 288.386719 177.375 C 275.417969 145.210938 241.046875 156.476562 205.371094 168.175781 C 180.730469 176.253906 155.457031 184.539062 136.71875 178.519531 C 133.898438 177.609375 131.59375 176.503906 129.414062 175.003906 L 129.351562 174.957031 C 127.132812 173.421875 125.011719 171.460938 122.585938 168.878906 Z M 122.582031 168.875 " fill-opacity="1" fill-rule="evenodd"/></g></g></g></g><g fill="#231f20" fill-opacity="1"><g transform="translate(165.184242, 227.353507)"><g><path d="M 4.203125 0.09375 C 3.703125 0.09375 3.234375 0.00390625 2.796875 -0.171875 C 2.359375 -0.359375 1.972656 -0.613281 1.640625 -0.9375 C 1.316406 -1.269531 1.0625 -1.65625 0.875 -2.09375 C 0.6875 -2.53125 0.59375 -3 0.59375 -3.5 C 0.59375 -4 0.6875 -4.46875 0.875 -4.90625 C 1.0625 -5.34375 1.316406 -5.722656 1.640625 -6.046875 C 1.972656 -6.378906 2.359375 -6.632812 2.796875 -6.8125 C 3.234375 -7 3.703125 -7.09375 4.203125 -7.09375 C 4.679688 -7.09375 5.097656 -7.015625 5.453125 -6.859375 C 5.804688 -6.710938 6.101562 -6.550781 6.34375 -6.375 C 6.613281 -6.15625 6.847656 -5.914062 7.046875 -5.65625 L 6.546875 -5.203125 C 6.390625 -5.429688 6.195312 -5.628906 5.96875 -5.796875 C 5.78125 -5.953125 5.535156 -6.09375 5.234375 -6.21875 C 4.941406 -6.34375 4.597656 -6.40625 4.203125 -6.40625 C 3.796875 -6.40625 3.421875 -6.328125 3.078125 -6.171875 C 2.734375 -6.023438 2.429688 -5.820312 2.171875 -5.5625 C 1.921875 -5.3125 1.71875 -5.007812 1.5625 -4.65625 C 1.414062 -4.300781 1.34375 -3.914062 1.34375 -3.5 C 1.34375 -3.082031 1.414062 -2.695312 1.5625 -2.34375 C 1.71875 -1.988281 1.921875 -1.679688 2.171875 -1.421875 C 2.429688 -1.171875 2.734375 -0.96875 3.078125 -0.8125 C 3.421875 -0.664062 3.796875 -0.59375 4.203125 -0.59375 C 4.597656 -0.59375 4.945312 -0.65625 5.25 -0.78125 C 5.550781 -0.90625 5.800781 -1.046875 6 -1.203125 C 6.226562 -1.367188 6.425781 -1.566406 6.59375 -1.796875 L 7.09375 -1.34375 C 6.894531 -1.070312 6.648438 -0.832031 6.359375 -0.625 C 6.109375 -0.4375 5.804688 -0.269531 5.453125 -0.125 C 5.097656 0.0195312 4.679688 0.09375 4.203125 0.09375 Z M 4.203125 0.09375 "/></g></g></g><g fill="#231f20" fill-opacity="1"><g transform="translate(179.081319, 227.353507)"><g><path d="M 1.046875 -7 L 1.796875 -7 L 1.796875 -3.90625 L 5.703125 -3.90625 L 5.703125 -7 L 6.453125 -7 L 6.453125 0 L 5.703125 0 L 5.703125 -3.203125 L 1.796875 -3.203125 L 1.796875 0 L 1.046875 0 Z M 1.046875 -7 "/></g></g></g><g fill="#231f20" fill-opacity="1"><g transform="translate(192.978397, 227.353507)"><g><path d="M 3.09375 -7 L 3.796875 -7 L 6.703125 0 L 5.90625 0 L 5.09375 -1.953125 L 1.796875 -1.953125 L 1 0 L 0.203125 0 Z M 4.796875 -2.65625 L 3.453125 -5.953125 L 2.09375 -2.65625 Z M 4.796875 -2.65625 "/></g></g></g><g fill="#231f20" fill-opacity="1"><g transform="translate(206.275701, 227.353507)"><g><path d="M 1.046875 -7 L 3.703125 -7 C 4.023438 -7 4.320312 -6.941406 4.59375 -6.828125 C 4.875 -6.710938 5.113281 -6.554688 5.3125 -6.359375 C 5.507812 -6.160156 5.664062 -5.925781 5.78125 -5.65625 C 5.894531 -5.394531 5.953125 -5.109375 5.953125 -4.796875 C 5.953125 -4.484375 5.894531 -4.191406 5.78125 -3.921875 C 5.664062 -3.660156 5.507812 -3.429688 5.3125 -3.234375 C 5.113281 -3.035156 4.875 -2.878906 4.59375 -2.765625 C 4.320312 -2.648438 4.023438 -2.59375 3.703125 -2.59375 L 1.796875 -2.59375 L 1.796875 0 L 1.046875 0 Z M 3.703125 -3.296875 C 4.148438 -3.296875 4.507812 -3.429688 4.78125 -3.703125 C 5.0625 -3.984375 5.203125 -4.347656 5.203125 -4.796875 C 5.203125 -5.253906 5.0625 -5.617188 4.78125 -5.890625 C 4.507812 -6.160156 4.148438 -6.296875 3.703125 -6.296875 L 1.796875 -6.296875 L 1.796875 -3.296875 Z M 3.703125 -3.296875 "/></g></g></g><g fill="#231f20" fill-opacity="1"><g transform="translate(219.173172, 227.353507)"><g><path d="M 1.046875 -7 L 1.796875 -7 L 1.796875 0 L 1.046875 0 Z M 1.046875 -7 "/></g></g></g><g fill="#231f20" fill-opacity="1"><g transform="translate(228.422086, 227.353507)"><g><path d="M 2.40625 -6.296875 L 0.203125 -6.296875 L 0.203125 -7 L 5.34375 -7 L 5.34375 -6.296875 L 3.15625 -6.296875 L 3.15625 0 L 2.40625 0 Z M 2.40625 -6.296875 "/></g></g></g><g fill="#231f20" fill-opacity="1"><g transform="translate(240.369929, 227.353507)"><g><path d="M 3.09375 -7 L 3.796875 -7 L 6.703125 0 L 5.90625 0 L 5.09375 -1.953125 L 1.796875 -1.953125 L 1 0 L 0.203125 0 Z M 4.796875 -2.65625 L 3.453125 -5.953125 L 2.09375 -2.65625 Z M 4.796875 -2.65625 "/></g></g></g></svg>