<svg viewBox="346.7625000000003 866.0256410256411 3269.475000000001 2523.8461538461534" fill="none" xmlns="http://www.w3.org/2000/svg" xmlns:xlink="http://www.w3.org/1999/xlink" overflow="visible" width="3269.475000000001px" height="2523.8461538461534px"><g id="Master/Spot Illustration/Happy Place"><g id="Blobs" opacity="0.5" transform="matrix(-1 0 0 1 2774 327) scale(1 1)"><g id="Blobs/6"><path id="Shape" fill-rule="evenodd" clip-rule="evenodd" d="M778.088 582.026C579.282 582.026 361.947 651.009 232.711 809.413C172.999 882.607 143.095 968.527 143 1053.93C142.953 1150.35 180.913 1246.11 256.976 1322.38C327.32 1392.89 417.149 1440.62 508.897 1479.81L519.019 1484.11C529.355 1488.54 539.875 1493.51 546.393 1502.51C551.299 1509.23 553.435 1517.5 555.289 1525.59L555.634 1527.11C574.965 1612.03 610.466 1684.56 657.857 1745.74H657.899C742.308 1854.75 864.719 1927.66 1001.11 1970.33C1105.56 2003.03 1218.26 2018.03 1328.48 2018.03C1513.88 2018.03 1684.06 1974.59 1817.37 1902.11L1817.42 1902.06C1840.64 1889.52 1862.77 1875.99 1883.63 1861.7C2019.4 1768.69 2103 1641.65 2103 1501.6C2103 1234.62 1799.13 1014.94 1409.38 987.978C1365.93 758.552 1099.87 582.026 778.088 582.026ZM1633.5 593.026C1565.84 593.026 1511 630.187 1511 676.026C1511 721.871 1565.84 759.026 1633.5 759.026C1701.16 759.026 1756 721.871 1756 676.026C1756 630.187 1701.16 593.026 1633.5 593.026Z" fill="#FFF5F3"/></g></g><ellipse id="Floor" opacity="0.5" cx="1982" cy="3206" rx="1602" ry="58" fill="#D5ECFF"/><g id="Tall Vase Plant" transform="translate(2207 859) scale(1 1)"><g id="Tall Vase Plant/Plant 4"><g id="Group"><path id="Fill 32" fill-rule="evenodd" clip-rule="evenodd" d="M695.446 1432.05C695.446 1432.05 1048.99 1136.8 1000.8 753.481C952.611 370.157 704.94 537.571 633.269 784.502C561.597 1031.43 592.143 1246.8 695.446 1432.05" fill="#F9C818"/><path id="Fill 33" fill-rule="evenodd" clip-rule="evenodd" d="M728.664 1461.45C728.664 1461.45 1174.44 1367.97 1303.32 1005.01C1432.2 642.059 1137.56 672.577 963.435 857.462C789.308 1042.35 719.978 1247.92 728.664 1461.45" fill="#237978"/><path id="Fill 35" fill-rule="evenodd" clip-rule="evenodd" d="M829.823 2346.06L837.18 2343.53C836.471 2341.34 765.907 2120.91 732.104 1810.12C712.257 1627.64 708.778 1450.18 721.765 1282.66C737.991 1073.35 780.115 879.066 846.965 705.204L839.755 702.254C772.607 876.89 730.306 1071.99 714.024 1282.14C701.004 1450.19 704.501 1628.2 724.417 1811.21C758.325 2122.79 829.112 2343.87 829.823 2346.06" fill="#0A4343"/><path id="Fill 38" fill-rule="evenodd" clip-rule="evenodd" d="M715.381 1558.97C719.158 1494.33 743.944 1419.98 789.048 1337.99C825.756 1271.25 876.048 1199.15 938.531 1123.68C1037.02 1004.71 1139.82 908.986 1179.44 873.352C1180.99 871.961 1181.99 871.065 1182.39 870.689L1177.17 864.77C1176.78 865.13 1175.83 865.988 1174.35 867.322C1134.59 903.073 1031.46 999.112 932.632 1118.48C869.831 1194.34 819.252 1266.87 782.302 1334.04C736.608 1417.1 711.489 1492.62 707.64 1558.49L715.381 1558.97Z" fill="#0A4343"/></g><g id="Tall Vase Plant 1"><path id="Fill 39" fill-rule="evenodd" clip-rule="evenodd" d="M647.163 1607.39C647.108 1606.33 641.372 1500.06 618.321 1364.73C604.791 1285.29 588.032 1211.54 568.508 1145.51C544.139 1063.09 515.377 992.574 483.023 935.923L489.706 931.863C522.377 989.069 551.392 1060.18 575.943 1143.23C595.56 1209.58 612.393 1283.67 625.977 1363.45C649.099 1499.23 654.853 1605.9 654.909 1606.96L647.163 1607.39Z" fill="#0A4343"/><path id="Fill 40" fill-rule="evenodd" clip-rule="evenodd" d="M564.194 881.81C563.048 930.949 523.499 969.826 475.858 968.643C428.217 967.461 390.527 926.667 391.674 877.528C392.82 828.389 432.37 789.512 480.01 790.695C527.65 791.877 565.34 832.671 564.194 881.81" fill="#F9C818"/><path id="Fill 41" fill-rule="evenodd" clip-rule="evenodd" d="M582.13 990.395C582.13 990.395 440.151 701.183 575.572 473.568C710.995 245.953 821.261 423.705 798.779 600.277C776.297 776.848 698.023 903.719 582.13 990.395" fill="#237978"/><path id="Fill 42" fill-rule="evenodd" clip-rule="evenodd" d="M540.962 1044.67L535.793 1038.7C567.992 1009.01 596.321 963.44 619.991 903.26C639.282 854.212 655.578 795.272 668.427 728.076C688.689 622.112 694.906 523.698 696.639 486.304C696.706 484.829 696.751 483.88 696.777 483.491L704.515 484.039C704.491 484.405 704.45 485.298 704.386 486.686C702.645 524.256 696.398 623.139 676.037 729.624C663.092 797.318 646.654 856.749 627.178 906.267C603.059 967.589 574.051 1014.15 540.962 1044.67" fill="#0A4343"/><path id="Fill 46" fill-rule="evenodd" clip-rule="evenodd" d="M512.113 1333.2C512.113 1333.2 557.999 1493.04 666.077 1629.63C774.155 1766.22 859.249 1780.34 859.249 1780.34L868.843 1739.68C868.843 1739.68 777.685 1690.28 701.802 1596.34C625.919 1502.4 550.308 1322.44 550.308 1322.44L512.113 1333.2Z" fill="#0A4343"/><path id="Fill 47" fill-rule="evenodd" clip-rule="evenodd" d="M319.902 1256.79C319.902 1256.79 331.581 1310.03 397.069 1305.47C462.555 1300.9 476.195 1392.06 539.923 1359.47C539.923 1359.47 575.919 1343.86 562.672 1289.88C549.424 1235.89 547.023 1228.76 580.518 1198.69C614.013 1168.62 592.289 1120.76 592.289 1120.76C592.289 1120.76 520.94 1131.1 436.483 1187.44C352.026 1243.78 319.902 1256.79 319.902 1256.79" fill="#EC7070"/><path id="Fill 48" fill-rule="evenodd" clip-rule="evenodd" d="M319.902 1256.79C319.902 1256.79 413.22 1245.73 492.34 1190.67C571.462 1135.61 592.289 1120.76 592.289 1120.76C592.289 1120.76 532.872 1119.96 459.412 1157.77C385.952 1195.57 358.723 1239.66 319.902 1256.79" fill="#EECCDC"/><path id="Fill 49" fill-rule="evenodd" clip-rule="evenodd" d="M201.656 2346.7H639.279H1080.02L886.122 1505.7H395.556L201.656 2346.7Z" fill="#237978"/></g></g></g><g id="Pet" transform="matrix(-1 0 0 1 1969 2227) scale(1 1)"><g id="Pet/Puppy"><g id="Animal"><path id="Fill 1" fill-rule="evenodd" clip-rule="evenodd" d="M598.082 922.929C598.082 922.929 580.163 916.967 557.766 802.796C535.368 688.625 559.908 652.135 618.811 662.007C677.713 671.88 631.889 917.475 598.082 922.929" fill="#AEE2FF"/><path id="Fill 3" fill-rule="evenodd" clip-rule="evenodd" d="M647.634 993.114H601.154C570.817 993.114 546.223 968.521 546.223 938.183C546.223 907.845 570.817 883.252 601.154 883.252H647.634C677.972 883.252 702.566 907.845 702.566 938.183C702.566 968.521 677.972 993.114 647.634 993.114" fill="#FCEBEC"/><path id="Stroke 5" fill-rule="evenodd" clip-rule="evenodd" d="M601.153 882.03H647.633C678.647 882.03 703.788 907.171 703.788 938.184C703.788 969.197 678.647 994.337 647.633 994.337H601.153C570.141 994.337 545 969.197 545 938.184C545 907.171 570.141 882.03 601.153 882.03ZM647.633 884.475H601.153C571.491 884.475 547.445 908.521 547.445 938.184C547.445 967.846 571.491 991.892 601.153 991.892H647.633C677.297 991.892 701.343 967.846 701.343 938.184C701.343 908.521 677.297 884.475 647.633 884.475Z" fill="#FFA7C4"/><path id="Fill 7" fill-rule="evenodd" clip-rule="evenodd" d="M957.803 997.738H911.323C880.985 997.738 856.391 973.145 856.391 942.807C856.391 912.469 880.985 887.876 911.323 887.876H957.803C988.14 887.876 1012.73 912.469 1012.73 942.807C1012.73 973.145 988.14 997.738 957.803 997.738" fill="#FCEBEC"/><path id="Stroke 9" fill-rule="evenodd" clip-rule="evenodd" d="M911.326 886.654H957.806C988.819 886.654 1013.96 911.795 1013.96 942.808C1013.96 973.821 988.819 998.961 957.806 998.961H911.326C880.313 998.961 855.172 973.821 855.172 942.808C855.172 911.795 880.313 886.654 911.326 886.654ZM957.806 889.099H911.326C881.663 889.099 857.617 913.145 857.617 942.808C857.617 972.47 881.663 996.516 911.326 996.516H957.806C987.469 996.516 1011.51 972.47 1011.51 942.808C1011.51 913.145 987.469 889.099 957.806 889.099Z" fill="#FFA7C4"/><path id="Fill 11" fill-rule="evenodd" clip-rule="evenodd" d="M663.367 627.168C663.367 627.168 584.111 691.167 593.778 975.056L950.644 982.034C950.644 982.034 1003.72 796.759 889.744 625.46L663.367 627.168Z" fill="#AEE2FF"/><path id="Stroke 13" d="M659.873 626.211C660.401 625.483 661.42 625.321 662.148 625.849C662.876 626.377 663.039 627.396 662.511 628.124C642.32 655.966 626.998 689.104 616.029 726.433C605.828 761.147 599.741 798.202 597.019 836.013L596.812 838.988C595.082 864.682 595.053 888.092 596.053 907.806L596.161 909.835C596.246 911.364 596.334 912.777 596.422 914.069L596.549 915.846L596.698 917.687C596.78 918.583 596.121 919.376 595.225 919.458C594.329 919.54 593.536 918.88 593.454 917.984L593.35 916.737C593.318 916.329 593.284 915.877 593.248 915.381L593.133 913.725C593.019 912.002 592.906 910.082 592.799 907.971C591.754 887.373 591.826 862.784 593.77 835.779C596.507 797.751 602.631 760.471 612.903 725.514C623.971 687.849 639.447 654.378 659.873 626.211Z" fill="#56ACF6"/><path id="Fill 15" fill-rule="evenodd" clip-rule="evenodd" d="M877.069 636.434H675.486C667.294 636.434 660.652 629.792 660.652 621.6V611.986C660.652 603.793 667.294 597.152 675.486 597.152H877.069C885.261 597.152 891.903 603.793 891.903 611.986V621.6C891.903 629.792 885.261 636.434 877.069 636.434" fill="#FFA7C4"/><path id="Fill 17" fill-rule="evenodd" clip-rule="evenodd" d="M826.675 638.208C826.675 628.759 818.964 621.047 809.515 621.047C801.368 621.047 794.634 626.586 792.788 634.189H757.379C755.533 626.586 748.799 621.047 740.653 621.047C731.203 621.047 723.492 628.759 723.492 638.208C723.492 642.118 724.795 645.811 727.185 648.853C724.795 651.894 723.492 655.586 723.492 659.497C723.492 668.946 731.203 676.658 740.653 676.658C748.799 676.658 755.533 671.118 757.379 663.515H792.788C794.634 671.118 801.368 676.658 809.515 676.658C818.964 676.658 826.676 668.946 826.676 659.497C826.676 655.586 825.372 651.894 822.983 648.853C825.372 645.811 826.675 642.118 826.675 638.208" fill="#56ACF6"/><path id="Fill 19" fill-rule="evenodd" clip-rule="evenodd" d="M642.953 372.863C642.953 372.863 711.94 347.841 751.177 389.408C790.412 430.975 825.375 402.228 825.375 402.228L831.934 394.086C831.934 394.086 891.282 367.443 933.499 386.001L882.481 432.141L776.815 436.026L685.912 419.71L642.953 372.863Z" fill="#FFA7C4"/><g id="Group 23"><mask id="mask0_406_320651f6b2687-0db0-403b-94c5-cd8309d535d0" style="mask-type:luminance" maskUnits="userSpaceOnUse" x="639" y="365" width="296" height="162" fill="#ffffff"><path id="Clip 22" fill-rule="evenodd" clip-rule="evenodd" d="M639.605 365H934.691V526.473H639.605V365Z" fill="#ffffff"/></mask><g mask="url(#mask0_406_320651f6b2687-0db0-403b-94c5-cd8309d535d0)"><path id="Fill 21" fill-rule="evenodd" clip-rule="evenodd" d="M642.954 372.863C642.954 372.863 629.311 416.824 657.102 472.406C657.102 472.406 650.028 486.555 649.017 501.714C648.008 516.873 661.145 526.473 661.145 526.473L901.161 510.809C901.161 510.809 903.687 489.587 896.613 474.933C896.613 474.933 942.596 443.099 933.5 386.001C933.5 386.001 897.624 374.379 856.189 410.255C856.189 410.255 850.126 398.633 831.935 394.086L829.409 379.432C829.409 379.432 814.755 379.937 800.101 389.032C800.101 389.032 797.575 378.926 802.123 368.821C802.123 368.821 784.437 375.389 776.352 387.011C776.352 387.011 774.331 373.368 774.837 365.789C775.342 358.209 722.791 407.729 722.791 407.729C722.791 407.729 705.611 372.358 642.954 372.863" fill="#AEE2FF"/></g></g><path id="Fill 24" fill-rule="evenodd" clip-rule="evenodd" d="M726.502 456.597C726.502 462.336 721.85 466.989 716.11 466.989C710.371 466.989 705.719 462.336 705.719 456.597C705.719 450.858 710.371 446.205 716.11 446.205C721.85 446.205 726.502 450.858 726.502 456.597" fill="black"/><path id="Fill 26" fill-rule="evenodd" clip-rule="evenodd" d="M841.17 456.597C841.17 462.336 836.518 466.989 830.778 466.989C825.039 466.989 820.387 462.336 820.387 456.597C820.387 450.858 825.039 446.205 830.778 446.205C836.518 446.205 841.17 450.858 841.17 456.597" fill="black"/><path id="Stroke 28" d="M883.025 497.587C884.556 497.755 886.22 498.076 887.981 498.584C892.825 499.981 897.641 502.555 902.142 506.583C902.812 507.184 902.869 508.213 902.269 508.884C901.669 509.554 900.639 509.611 899.969 509.011C895.846 505.321 891.466 502.979 887.078 501.714C885.501 501.259 884.02 500.974 882.669 500.826C881.893 500.741 881.273 500.711 880.831 500.714L878.949 500.721L719.057 500.946L666.105 501.108C665.555 501.113 665.144 501.118 664.877 501.123C660.779 501.2 657.219 502.103 654.204 503.555C653.11 504.082 652.169 504.644 651.387 505.201L651.109 505.403C650.814 505.623 650.618 505.787 650.523 505.876C649.866 506.49 648.835 506.456 648.221 505.799C647.606 505.142 647.64 504.111 648.297 503.497C649.106 502.74 650.608 501.671 652.791 500.62C656.066 499.043 659.884 498.042 664.221 497.882L664.816 497.866C665.424 497.854 666.73 497.842 668.716 497.831L772.507 497.598L880.59 497.459C881.178 497.444 882.001 497.475 883.025 497.587Z" fill="#56ACF6"/><path id="Fill 30" fill-rule="evenodd" clip-rule="evenodd" d="M877.11 614.9H668.524C648.264 614.9 631.84 598.476 631.84 578.215V536.571C631.84 516.31 648.264 499.886 668.524 499.886H877.11C897.371 499.886 913.795 516.31 913.795 536.571V578.215C913.795 598.476 897.371 614.9 877.11 614.9" fill="#FCEBEC"/><path id="Fill 32" fill-rule="evenodd" clip-rule="evenodd" d="M792.908 499.143L780.678 511.308C778.983 512.991 776.767 513.828 774.552 513.806C772.38 513.784 770.208 512.958 768.556 511.308L756.327 499.143C750.885 493.734 754.72 484.458 762.387 484.458H786.847C794.515 484.458 798.349 493.734 792.908 499.143" fill="black"/><path id="Stroke 34" d="M776.141 504.581L776.262 535.356L773.004 535.369L772.883 504.594L776.141 504.581Z" fill="black"/><path id="Stroke 36" d="M757.988 525.176C758.676 524.597 759.704 524.686 760.283 525.375L760.622 525.769L761.074 526.279C761.234 526.458 761.404 526.645 761.582 526.839C762.601 527.948 763.691 529.056 764.801 530.087C765.891 531.098 766.942 531.978 767.926 532.687C768.707 533.249 769.429 533.692 770.074 534.001L770.342 534.124H779.378L779.629 534.024L779.749 533.973C780.271 533.747 780.862 533.443 781.504 533.05C783.376 531.904 785.262 530.276 787.034 528.078C787.596 527.38 788.138 526.634 788.658 525.837C789.15 525.084 790.16 524.872 790.913 525.364C791.666 525.856 791.878 526.865 791.386 527.619C790.807 528.506 790.2 529.34 789.57 530.122C787.558 532.619 785.388 534.493 783.205 535.829C781.952 536.595 780.931 537.051 780.255 537.271L779.888 537.382H769.716L769.432 537.272C768.368 536.86 767.232 536.202 766.021 535.33C764.917 534.535 763.767 533.571 762.585 532.475C761.406 531.38 760.257 530.212 759.183 529.044L758.647 528.453L757.976 527.691C757.893 527.595 757.83 527.521 757.788 527.471C757.209 526.782 757.299 525.754 757.988 525.176Z" fill="black"/><path id="Fill 38" fill-rule="evenodd" clip-rule="evenodd" d="M681.114 993.274H634.634C604.296 993.274 579.703 968.68 579.703 938.343C579.703 908.005 604.296 883.412 634.634 883.412H681.114C711.451 883.412 736.045 908.005 736.045 938.343C736.045 968.68 711.451 993.274 681.114 993.274" fill="#FCEBEC"/><path id="Stroke 40" fill-rule="evenodd" clip-rule="evenodd" d="M634.634 882.189H681.114C712.126 882.189 737.267 907.33 737.267 938.343C737.267 969.355 712.126 994.496 681.114 994.496H634.634C603.621 994.496 578.48 969.355 578.48 938.343C578.48 907.33 603.621 882.189 634.634 882.189ZM681.114 884.634H634.634C604.971 884.634 580.925 908.68 580.925 938.343C580.925 968.005 604.971 992.051 634.634 992.051H681.114C710.776 992.051 734.822 968.005 734.822 938.343C734.822 908.68 710.776 884.634 681.114 884.634Z" fill="#FFA7C4"/><path id="Fill 42" fill-rule="evenodd" clip-rule="evenodd" d="M928.497 997.718H882.017C851.679 997.718 827.086 973.124 827.086 942.787C827.086 912.449 851.679 887.856 882.017 887.856H928.497C958.834 887.856 983.428 912.449 983.428 942.787C983.428 973.124 958.834 997.718 928.497 997.718" fill="#FCEBEC"/><path id="Stroke 44" fill-rule="evenodd" clip-rule="evenodd" d="M882.017 886.634H928.497C959.509 886.634 984.65 911.775 984.65 942.788C984.65 973.8 959.509 998.941 928.497 998.941H882.017C851.004 998.941 825.863 973.8 825.863 942.788C825.863 911.775 851.004 886.634 882.017 886.634ZM928.497 889.079H882.017C852.354 889.079 828.308 913.125 828.308 942.788C828.308 972.45 852.354 996.496 882.017 996.496H928.497C958.159 996.496 982.205 972.45 982.205 942.788C982.205 913.125 958.159 889.079 928.497 889.079Z" fill="#FFA7C4"/><path id="Stroke 46" d="M722.808 736.463C723.225 735.932 723.994 735.84 724.524 736.257C725.055 736.675 725.148 737.443 724.73 737.974C713.294 752.529 704.275 770.753 697.422 791.81C690.902 811.843 686.674 833.322 684.288 854.803C683.499 861.905 682.969 868.527 682.65 874.517L682.596 875.568C682.509 877.32 682.445 878.915 682.401 880.34L682.357 882.042L682.336 883.416C682.333 884.092 681.784 884.637 681.108 884.634C680.433 884.632 679.888 884.082 679.891 883.407L679.896 882.867L679.912 881.991L679.957 880.266C680.001 878.825 680.066 877.215 680.154 875.446C680.468 869.135 681.017 862.104 681.858 854.533C684.261 832.898 688.52 811.261 695.097 791.053C702.032 769.742 711.176 751.267 722.808 736.463Z" fill="#56ACF6"/><path id="Stroke 48" d="M834.671 731.034C835.255 730.695 836.003 730.894 836.342 731.478C856.601 766.368 869.733 803.148 877.153 839.53C879.657 851.811 881.325 863.202 882.315 873.447L882.422 874.581C882.764 878.272 882.99 881.545 883.124 884.365L883.16 885.181C883.177 885.574 883.191 885.943 883.202 886.289L883.241 887.847C883.246 888.522 882.703 889.074 882.028 889.079C881.353 889.084 880.801 888.541 880.796 887.866L880.778 887.013L880.747 886.023C880.734 885.668 880.718 885.291 880.7 884.89L880.619 883.26C880.483 880.764 880.277 877.938 879.988 874.806C879.021 864.356 877.336 852.665 874.757 840.019C867.388 803.882 854.344 767.35 834.228 732.705C833.889 732.121 834.087 731.373 834.671 731.034Z" fill="#56ACF6"/></g></g></g><g id="Master/Character/Sitting On Floor" transform="translate(876 650) scale(1 1)"><g id="Master/Character/Sitting On Floor"><g id="Upper Body" transform="translate(911 1329) scale(1 1)"><g id="Upper Body/With Tablet"><path id="Fill 1" fill-rule="evenodd" clip-rule="evenodd" d="M571.998 659L536 996.203C536 996.203 886.321 1080.45 1014.04 970.265L1027 673.411L571.998 659Z" fill="#D60000"/><path id="Neck" fill-rule="evenodd" clip-rule="evenodd" d="M724.954 220C724.954 220 721.263 301.153 673.924 329.8C630.973 355.791 721.969 506.61 819.858 497.614C873.442 492.688 886 346.158 886 346.158C886 346.158 842.734 337.797 858.716 271.819L724.954 220Z" fill="#f6cbc3"/><path id="Head" fill-rule="evenodd" clip-rule="evenodd" d="M803.337 302.516C739.877 294.841 694.078 253.116 687.665 183.898C669.216 186.835 664.865 138.765 670.003 123.323C675.146 107.859 691.933 116.901 691.933 116.901C691.933 116.901 693.327 113.235 694.303 109.226C722.025 -4.48555 799.67 0.0243587 799.67 0.0243587C942.344 7.45716 908.914 153.12 900.763 191.763C892.611 230.41 864.684 309.927 803.337 302.516Z" fill="#f6cbc3"/><g id="Group 32"><path id="Fill 1_2" fill-rule="evenodd" clip-rule="evenodd" d="M1014.32 767.127C993.27 758.554 966.142 731.422 933.689 686.486C909.623 653.163 891.426 621.916 891.246 621.605L894.705 619.597C895.423 620.834 967.127 743.586 1015.83 763.422L1014.32 767.127Z" fill="#864A56"/><g id="Group 5"><mask id="mask0_406_32696172da7ec-15ef-4111-972f-3851589ebe13" style="mask-type:luminance" maskUnits="userSpaceOnUse" x="446" y="325" width="604" height="618" fill="#ffffff"><path id="Clip 4" fill-rule="evenodd" clip-rule="evenodd" d="M446 325.601H1049.92V942.318H446V325.601Z" fill="#ffffff"/></mask><g mask="url(#mask0_406_32696172da7ec-15ef-4111-972f-3851589ebe13)"><path id="Fill 3" fill-rule="evenodd" clip-rule="evenodd" d="M677.976 325.601C677.976 325.601 500.268 342.427 463.622 527.014C426.976 711.601 422.587 929.328 704.976 940.601C987.366 951.873 1011.38 904.363 1011.18 893.982C1010.98 883.601 1015.98 712.601 1038.98 582.601C1061.98 452.601 1063.98 382.601 887.976 339.601C887.976 339.601 809.976 443.601 677.976 325.601" fill="#D60000"/></g></g><path id="Fill 6" fill-rule="evenodd" clip-rule="evenodd" d="M812.977 401.601L833.977 305.601C833.977 305.601 832.977 289.601 857.977 290.601C882.977 291.601 1059.98 288.601 1059.98 288.601C1059.98 288.601 1073.98 286.601 1077.98 299.601C1081.98 312.601 1029.98 530.601 1029.98 530.601C1029.98 530.601 1030.98 545.601 1013.98 545.601C996.977 545.601 787.977 553.601 787.977 553.601L812.977 401.601" fill="#204EB2"/><g id="Group 10"><mask id="mask1_406_32696172da7ec-15ef-4111-972f-3851589ebe13" style="mask-type:luminance" maskUnits="userSpaceOnUse" x="787" y="288" width="292" height="267" fill="#ffffff"><path id="Clip 9" fill-rule="evenodd" clip-rule="evenodd" d="M787.383 288H1078.68V554.124H787.383V288Z" fill="#ffffff"/></mask><g mask="url(#mask1_406_32696172da7ec-15ef-4111-972f-3851589ebe13)"><path id="Fill 8" fill-rule="evenodd" clip-rule="evenodd" d="M813.467 401.694L788.569 553.077C801.109 552.598 997.615 545.1 1013.98 545.1C1019.2 545.1 1023.21 543.657 1025.87 540.809C1029.82 536.604 1029.48 530.692 1029.48 530.633L1029.47 530.558L1029.49 530.484C1030.01 528.305 1081.41 312.469 1077.5 299.748C1073.67 287.316 1060.6 289.016 1060.05 289.095C1058.21 289.131 882.682 292.091 857.956 291.1C848.798 290.733 842.151 292.597 838.187 296.638C834.233 300.67 834.472 305.521 834.475 305.57L834.479 305.639L834.464 305.707L813.467 401.694ZM787.383 554.124L812.488 401.494L833.473 305.558C833.447 304.881 833.42 300.083 837.456 295.955C841.624 291.692 848.553 289.734 857.995 290.1C882.697 291.09 1058.2 288.13 1059.97 288.1C1060.05 288.084 1074.38 286.2 1078.45 299.453C1082.44 312.402 1032.84 520.762 1030.48 530.645C1030.52 531.418 1030.64 537.176 1026.61 541.485C1023.75 544.548 1019.49 546.1 1013.98 546.1C997.18 546.1 790.085 554.02 787.995 554.1L787.383 554.124Z" fill="black"/></g></g><path id="Fill 11" fill-rule="evenodd" clip-rule="evenodd" d="M819.977 408.601L840.977 312.601C840.977 312.601 839.977 296.601 864.977 297.601C889.977 298.601 1066.98 295.601 1066.98 295.601C1066.98 295.601 1080.98 293.601 1084.98 306.601C1088.98 319.601 1036.98 537.601 1036.98 537.601C1036.98 537.601 1037.98 552.601 1020.98 552.601C1003.98 552.601 794.977 560.601 794.977 560.601L819.977 408.601" fill="#56ACF6"/><path id="Fill 13" fill-rule="evenodd" clip-rule="evenodd" d="M711.178 559.129C711.178 559.129 769.334 492.851 785.196 464.445C801.057 436.04 801.057 419.47 799.735 406.451C798.413 393.432 798.413 378.046 808.987 375.679C819.561 373.312 820.883 379.23 822.204 393.432C823.527 407.635 822.204 421.837 845.996 413.553C869.787 405.268 927.945 385.148 934.553 401.717C941.161 418.287 926.622 420.653 926.622 420.653C926.622 420.653 937.197 421.837 939.84 430.122C942.484 438.407 939.84 444.325 931.909 447.875C923.979 451.426 920.014 452.609 920.014 452.609C920.014 452.609 935.874 450.242 939.84 462.078C943.805 473.913 937.197 479.831 930.588 482.198C930.588 482.198 939.088 483.566 941.161 492.851C942.484 498.769 934.553 502.318 925.301 505.869C912.793 510.67 875.074 511.787 843.353 531.907C811.63 552.028 734.969 683.402 696.639 723.643C658.308 763.884 619.977 659.732 619.977 659.732C619.977 659.732 667.56 599.37 711.178 559.129" fill="#f6cbc3"/><path id="Fill 15" fill-rule="evenodd" clip-rule="evenodd" d="M860.924 439.855L860.145 436.959L926.232 419.205L927.011 422.101L860.924 439.855Z" fill="black"/><path id="Fill 17" fill-rule="evenodd" clip-rule="evenodd" d="M860.924 470.628L860.145 467.732L926.232 449.978L927.011 452.874L860.924 470.628Z" fill="black"/><path id="Fill 19" fill-rule="evenodd" clip-rule="evenodd" d="M868.855 501.4L868.078 498.504L934.165 480.751L934.942 483.647L868.855 501.4Z" fill="black"/><g id="Group 23"><mask id="mask2_406_32696172da7ec-15ef-4111-972f-3851589ebe13" style="mask-type:luminance" maskUnits="userSpaceOnUse" x="986" y="372" width="129" height="396" fill="#ffffff"><path id="Clip 22" fill-rule="evenodd" clip-rule="evenodd" d="M986.301 372.626H1114.97V767.601H986.301V372.626Z" fill="#ffffff"/></mask><g mask="url(#mask2_406_32696172da7ec-15ef-4111-972f-3851589ebe13)"><path id="Fill 21" fill-rule="evenodd" clip-rule="evenodd" d="M1019.77 711.174C1019.77 711.174 1029.02 663.832 1032.99 604.654C1036.95 545.478 1035.63 519.44 1030.34 514.705C1025.06 509.971 988.047 511.154 988.047 492.218C988.047 473.28 1014.48 479.198 1014.48 479.198C1014.48 479.198 986.726 474.464 989.37 460.262C992.013 446.059 1007.87 448.426 1007.87 448.426C1007.87 448.426 982.76 443.692 986.726 428.306C990.691 412.92 1014.48 418.837 1014.48 418.837C1014.48 418.837 992.013 415.287 1001.26 399.901C1010.52 384.515 1026.38 393.983 1044.88 398.717C1063.39 403.451 1064.71 404.635 1066.03 397.533C1067.35 390.432 1064.71 371.495 1079.25 372.679C1093.79 373.862 1096.43 378.597 1096.43 404.635C1096.43 430.673 1100.4 454.344 1104.36 478.015C1108.33 501.686 1109.65 528.907 1107 572.699C1104.36 616.49 1141.37 745.497 1075.28 764.435C1009.2 783.371 1019.77 711.174 1019.77 711.174" fill="#f6cbc3"/></g></g><path id="Fill 24" fill-rule="evenodd" clip-rule="evenodd" d="M1047.72 487.321L1008.85 478.972L1009.48 476.039L1048.35 484.387L1047.72 487.321Z" fill="black"/><path id="Fill 26" fill-rule="evenodd" clip-rule="evenodd" d="M1046.79 458.242L1007.91 449.892L1008.55 446.959L1047.42 455.308L1046.79 458.242Z" fill="black"/><path id="Fill 28" fill-rule="evenodd" clip-rule="evenodd" d="M1048.49 426.963L1009.62 418.614L1010.25 415.681L1049.12 424.029L1048.49 426.963Z" fill="black"/><path id="Fill 30" fill-rule="evenodd" clip-rule="evenodd" d="M1084.27 407.876L1065.11 403.733L1065.74 400.802L1084.91 404.944L1084.27 407.876Z" fill="black"/></g></g></g><g id="Lower Body/Sitting on Floor" transform="matrix(-1 0 0 1 2330 1832) scale(1 1)"><g id="Lower Body/Sitting on Floor/Spread Out 3"><g id="Lower Body"><path id="Fill 1" fill-rule="evenodd" clip-rule="evenodd" d="M2010.3 637.559L1982.3 740.416L2033.3 757.559L2065.3 656.559L2010.3 637.559Z" fill="#F8D8B8"/><path id="Fill 2" fill-rule="evenodd" clip-rule="evenodd" d="M2062.3 649.559L2026.3 763.559L2078.3 780.559L2116.3 669.559L2062.3 649.559Z" fill="#E4F9FF"/><g id="Group 44"><path id="Fill 3" fill-rule="evenodd" clip-rule="evenodd" d="M2120.3 657.559C2120.3 657.559 2112.3 657.559 2102.3 662.559C2092.3 667.559 2040.3 736.559 2070.3 779.559C2070.3 779.559 2075.3 782.559 2081.3 783.559C2087.3 784.559 2098.3 802.559 2117.3 812.559C2117.3 812.559 2113.3 799.559 2128.3 760.559C2143.3 721.559 2229.3 514.559 2270.3 512.559C2270.3 512.559 2254.3 499.559 2205.3 555.559C2159.01 608.459 2120.3 657.559 2120.3 657.559" fill="#2E2C36"/><path id="Fill 5" fill-rule="evenodd" clip-rule="evenodd" d="M2117.3 812.559C2117.3 812.559 2134.3 841.559 2161.3 836.559C2188.3 831.559 2196.13 806.824 2205.22 786.192C2214.3 765.559 2306.21 538.565 2306.21 538.565C2306.21 538.565 2296.09 505.877 2268.38 512.217C2236.3 519.559 2206.3 587.559 2206.3 587.559L2119.3 767.559C2119.3 767.559 2110.3 793.559 2117.3 812.559" fill="#E4F9FF"/><g id="Group 9"><mask id="mask0_406_14426ecfdadbe-4aef-4472-8ff9-e2df308dfb6f" style="mask-type:luminance" maskUnits="userSpaceOnUse" x="2141" y="530" width="169" height="295" fill="#ffffff"><path id="Clip 8" fill-rule="evenodd" clip-rule="evenodd" d="M2141.3 530.524H2309.58V824.062H2141.3V530.524Z" fill="#ffffff"/></mask><g mask="url(#mask0_406_14426ecfdadbe-4aef-4472-8ff9-e2df308dfb6f)"><path id="Fill 7" fill-rule="evenodd" clip-rule="evenodd" d="M2141.3 802.559L2252.3 564.559C2252.3 564.559 2275.3 523.559 2298.3 531.559C2321.3 539.559 2303.3 576.559 2295.3 605.559C2287.3 634.559 2207.3 804.559 2186.3 820.559C2171.63 831.734 2142.3 813.559 2141.3 802.559" fill="#2E2C36"/></g></g><path id="Fill 10" fill-rule="evenodd" clip-rule="evenodd" d="M2081.3 783.559C2081.3 783.559 2070.3 754.559 2083.3 719.559C2096.3 684.559 2120.3 657.559 2120.3 657.559C2120.3 657.559 2095 649.632 2073.65 700.596C2052.3 751.559 2056.3 778.559 2081.3 785.559" fill="#3B3D4A"/><path id="Stroke 12 (Stroke)" fill-rule="evenodd" clip-rule="evenodd" d="M2153.92 674.506C2154.05 680.616 2153.81 688.658 2152.15 695.323C2151.03 699.789 2148.13 703.157 2144.81 705.746C2141.51 708.321 2137.44 710.405 2133.32 712.232C2130.38 713.537 2127.2 714.8 2124.1 716.034C2122.87 716.522 2121.66 717.005 2120.47 717.484C2116.19 719.217 2112.18 720.948 2108.72 722.89M2153.92 674.506C2153.85 671.397 2153.69 668.679 2153.55 666.736ZM2153.55 666.736C2153.47 665.763 2153.41 664.98 2153.35 664.435ZM2153.35 664.435C2153.33 664.163 2153.31 663.95 2153.29 663.801ZM2153.29 663.801C2153.28 663.727 2153.28 663.669 2153.27 663.629ZM2153.27 663.629L2153.27 663.58ZM2153.27 663.58L2153.27 663.566ZM2153.27 663.566L2153.27 663.561ZM2153.27 663.561L2153.27 663.559ZM2153.27 663.559C2153.27 663.558 2153.27 663.558 2148.3 664.11ZM2148.3 664.11C2143.33 664.662 2143.33 664.662 2143.33 664.661ZM2143.33 664.661L2143.33 664.666ZM2143.33 664.666L2143.33 664.695ZM2143.33 664.695C2143.33 664.723 2143.34 664.768 2143.34 664.829ZM2143.34 664.829C2143.36 664.95 2143.38 665.135 2143.4 665.378ZM2143.4 665.378C2143.44 665.865 2143.51 666.582 2143.58 667.484ZM2143.58 667.484C2143.71 669.29 2143.86 671.823 2143.92 674.714ZM2143.92 674.714C2144.04 680.604 2143.78 687.562 2142.45 692.897ZM2142.45 692.897C2142.06 694.431 2140.96 696.063 2138.66 697.861ZM2138.66 697.861C2136.33 699.675 2133.15 701.367 2129.26 703.092ZM2129.26 703.092C2126.52 704.312 2123.63 705.46 2120.6 706.662ZM2120.6 706.662C2119.33 707.167 2118.04 707.681 2116.72 708.214ZM2116.72 708.214C2112.37 709.973 2107.87 711.898 2103.83 714.166ZM2099.41 755.304C2099.41 755.303 2099.41 755.301 2094.44 755.85C2089.47 756.398 2089.47 756.397 2089.47 756.395L2089.47 756.383L2089.46 756.356L2089.45 756.272C2089.45 756.202 2089.44 756.105 2089.43 755.982C2089.4 755.737 2089.37 755.388 2089.34 754.949C2089.28 754.072 2089.21 752.828 2089.18 751.315C2089.11 748.304 2089.18 744.162 2089.76 739.699C2090.87 731.212 2094.07 719.633 2103.83 714.166M2099.41 755.304L2099.41 755.302ZM2099.41 755.302L2099.4 755.262ZM2099.4 755.262C2099.4 755.222 2099.39 755.156 2099.38 755.064ZM2099.38 755.064C2099.37 754.882 2099.34 754.601 2099.32 754.234ZM2099.32 754.234C2099.26 753.498 2099.2 752.418 2099.17 751.089ZM2099.17 751.089C2099.11 748.418 2099.18 744.809 2099.68 740.993ZM2099.68 740.993C2100.73 732.924 2103.45 725.842 2108.72 722.89Z" fill="white"/><path id="Fill 14" fill-rule="evenodd" clip-rule="evenodd" d="M850.416 776.286C850.416 776.286 861.398 820.171 866.455 828.046C871.512 835.92 965.475 878.245 995.462 875.352C1025.45 872.459 1075.86 853.374 1082.47 839.007C1089.08 824.64 1080.18 780.286 1070.69 772.124C1061.19 763.962 850.416 776.286 850.416 776.286" fill="#E4F9FF"/><g id="Group 18"><path id="Fill 16" fill-rule="evenodd" clip-rule="evenodd" d="M400.18 395.067C400.18 395.067 326.296 672.559 494.296 715.559C662.296 758.559 850.034 719.685 1056.3 652.559C1225.3 597.559 1218.3 534.559 1433.3 596.559C1587.14 640.923 1983.3 751.559 1983.3 751.559L2024.3 631.559C2024.3 631.559 1433.3 326.559 1198.3 333.559C1110.28 336.18 833.112 392.55 833.112 392.55L400.18 395.067Z" fill="#FC7750"/></g><g id="Group 21"><path id="Fill 19" fill-rule="evenodd" clip-rule="evenodd" d="M421.971 429.284C421.971 429.284 606.296 47.5584 676.296 13.5584C746.296 -20.4416 773.296 20.5584 779.296 65.5584C785.296 110.558 915.296 538.558 915.296 538.558L760.296 579.558L421.971 429.284Z" fill="#FC7750"/></g><path id="Stroke 22" d="M666.552 366.481L762.05 566.326L757.539 568.482L662.041 368.637L666.552 366.481Z" fill="black"/><path id="Fill 24" fill-rule="evenodd" clip-rule="evenodd" d="M892.845 538.972L904.564 577.334C857.995 577.289 821.112 598.485 811.035 603.533L800.512 565.927L892.845 538.972Z" fill="#F7C8A9"/><path id="Fill 26" fill-rule="evenodd" clip-rule="evenodd" d="M930.277 649.839L828.429 675.145L807.297 598.559C807.297 598.559 807.576 598.428 809.297 597.559C819.374 592.51 859.42 573.845 905.989 573.891" fill="#E4F9FF"/><path id="Fill 28" fill-rule="evenodd" clip-rule="evenodd" d="M896.668 801.87C896.668 801.87 968.021 831.261 1016.35 812.645C1064.68 794.029 1075.8 781.63 1075.53 780.404C1075.25 779.179 995.277 710.164 979.53 703.41C963.783 696.656 923.217 667.164 907.084 692.691C890.95 718.218 866.912 737.799 870.013 756.417C873.114 775.035 896.668 801.87 896.668 801.87" fill="#353644"/><path id="Fill 30" fill-rule="evenodd" clip-rule="evenodd" d="M830.811 689.273C830.811 689.273 834.745 755.298 852.615 786.041L899.303 803.852C899.303 803.852 885.823 768.308 896.876 754.228C907.928 740.148 914.263 724.555 914.413 715.507C914.563 706.459 954.9 696.083 954.9 696.083C954.9 696.083 961.614 711.311 973.621 711.181C985.629 711.051 1047.47 755.974 1047.47 755.974C1047.47 755.974 1032.33 740.011 1016.46 722.984C1000.59 705.956 944.959 651.963 944.959 651.963L830.811 689.273Z" fill="#2C262B"/><path id="Fill 32" fill-rule="evenodd" clip-rule="evenodd" d="M825.491 662.481C825.491 662.481 815.543 672.923 821.863 682.775C828.183 692.627 849.425 686.815 869.692 681.224C889.958 675.632 938.516 663.666 942.074 656.714C945.633 649.762 939.19 634.813 926.165 631.597C926.165 631.597 929.998 644.059 924.584 647.329C919.17 650.599 834.421 674.82 830.835 672.553C827.249 670.285 825.491 662.481 825.491 662.481" fill="#3E454F"/><path id="Fill 34" fill-rule="evenodd" clip-rule="evenodd" d="M897.995 715.849C897.995 715.849 924.377 687.353 953.794 695.076C953.794 695.076 963.453 697 959.963 690.611C956.473 684.221 951.376 684.345 951.376 684.345C951.376 684.345 952.008 678.052 946.691 677.2C946.691 677.2 948.298 670.687 941.03 670.275C941.03 670.275 938.708 655.422 923.003 663.061C907.298 670.7 876.837 676.538 880.766 684.879C884.695 693.219 886.963 689.633 886.963 689.633C886.963 689.633 885.135 695.17 889.38 700.364C893.626 705.557 892.967 702.631 892.967 702.631C892.967 702.631 888.116 712.949 897.995 715.849" fill="white"/><path id="Stroke 36 (Stroke)" fill-rule="evenodd" clip-rule="evenodd" d="M885.979 694.915C885.979 694.915 885.98 694.915 884.63 693.439C883.28 691.963 883.281 691.962 883.281 691.962L883.282 691.961L883.285 691.959L883.292 691.952L883.312 691.934C883.329 691.919 883.351 691.899 883.379 691.875C883.435 691.825 883.514 691.757 883.616 691.671C883.82 691.499 884.114 691.259 884.495 690.967C885.257 690.383 886.366 689.592 887.79 688.732C890.635 687.013 894.761 685.005 899.895 683.849L900.775 687.751C896.154 688.792 892.428 690.603 889.858 692.155C888.576 692.93 887.588 693.636 886.929 694.142C886.599 694.394 886.353 694.596 886.193 694.73C886.113 694.798 886.055 694.848 886.019 694.879C886.002 694.895 885.989 694.906 885.983 694.912L885.978 694.916L885.979 694.915Z" fill="black"/><path id="Stroke 38 (Stroke)" fill-rule="evenodd" clip-rule="evenodd" d="M945.41 668.42C945.41 668.42 945.411 668.42 945.672 670.403C945.933 672.386 945.933 672.386 945.933 672.386L945.929 672.387L945.909 672.389L945.824 672.401C945.747 672.412 945.632 672.428 945.482 672.45C945.182 672.495 944.742 672.563 944.193 672.655C943.094 672.84 941.562 673.123 939.837 673.512C936.34 674.299 932.231 675.484 929.291 677.09L927.373 673.58C930.822 671.696 935.382 670.415 938.958 669.609C940.77 669.201 942.375 668.905 943.529 668.711C944.106 668.614 944.572 668.542 944.895 668.494C945.057 668.47 945.184 668.452 945.271 668.439L945.372 668.426L945.399 668.422L945.41 668.42Z" fill="black"/><path id="Stroke 40 (Stroke)" fill-rule="evenodd" clip-rule="evenodd" d="M956.818 684.091C956.818 684.091 956.818 684.091 956.756 686.09C956.693 688.089 956.693 688.089 956.693 688.089L956.685 688.088L956.655 688.087L956.534 688.084C956.426 688.081 956.265 688.078 956.057 688.074C955.641 688.066 955.036 688.057 954.289 688.055C952.794 688.05 950.734 688.069 948.474 688.165C943.854 688.362 938.739 688.873 935.776 690L934.354 686.261C937.999 684.874 943.729 684.364 948.303 684.169C950.64 684.069 952.764 684.05 954.302 684.055C955.073 684.058 955.698 684.066 956.132 684.074C956.35 684.079 956.519 684.083 956.635 684.086L956.769 684.089L956.804 684.09L956.818 684.091Z" fill="black"/><path id="Stroke 42 (Stroke)" fill-rule="evenodd" clip-rule="evenodd" d="M891.168 709.099C891.169 709.099 891.169 709.099 889.849 707.596C888.529 706.094 888.529 706.094 888.529 706.093L888.533 706.09L888.541 706.083L888.567 706.06C888.589 706.041 888.62 706.015 888.66 705.98C888.74 705.912 888.856 705.814 889.006 705.69C889.307 705.442 889.745 705.089 890.311 704.654C891.443 703.785 893.087 702.591 895.158 701.268C899.294 698.628 905.176 695.452 912.121 693.357L913.276 697.187C906.784 699.145 901.241 702.131 897.311 704.64C895.35 705.892 893.801 707.018 892.747 707.827C892.221 708.231 891.819 708.555 891.552 708.775C891.419 708.885 891.32 708.969 891.255 709.024C891.223 709.052 891.2 709.072 891.185 709.084L891.17 709.097L891.168 709.099Z" fill="black"/></g></g></g></g><g id="Expression" transform="translate(1633 1412) scale(1 1)"><g id="Expression/Sweet"><g id="Group 124"><path id="Stroke 114" d="M123.94 52.5156L127.749 53.7376L127.377 54.9309C127.077 55.9042 126.744 57.0178 126.384 58.2528C125.356 61.7837 124.327 65.576 123.368 69.4789C122.301 73.8175 121.387 78.0249 120.672 81.9976L120.465 83.1739C118.727 93.2775 118.482 100.993 120.034 105.142L120.126 105.377C129.004 127.34 116.948 138.478 91.6439 130.679L90.873 130.436L92.0921 126.627C114.886 133.921 124.027 125.703 116.417 106.876C114.322 101.694 114.645 92.8992 116.735 81.2889C117.466 77.2272 118.398 72.9393 119.483 68.5239C120.349 65.0027 121.269 61.5727 122.196 58.338L122.543 57.1344C122.752 56.4175 122.952 55.7405 123.143 55.1067L123.631 53.5023L123.94 52.5156Z" fill="black"/><path id="Stroke 122" d="M25.1855 205.534L27.1425 202.045L27.8567 202.435L28.5118 202.783C29.5036 203.305 30.6327 203.881 31.8877 204.498L32.4332 204.765C36.6543 206.821 41.3224 208.878 46.301 210.798C57.7489 215.212 69.0606 218.225 79.5848 219.202C84.3541 219.645 88.8741 219.656 93.1069 219.202L93.9496 219.105L94.4385 223.075C89.6635 223.663 84.5751 223.683 79.2149 223.185C68.2771 222.169 56.6257 219.066 44.8619 214.53C39.7712 212.567 35.0001 210.465 30.6815 208.361L29.0484 207.554C28.354 207.206 27.7021 206.873 27.0948 206.556L25.9633 205.958L25.1855 205.534Z" fill="black"/></g><g id="Group 16"><path id="Fill 3" fill-rule="evenodd" clip-rule="evenodd" d="M98.0372 161.995C79.1662 161.995 64.9382 153.351 64.2702 152.938C62.8612 152.068 62.4252 150.219 63.2962 148.809C64.1652 147.401 66.0142 146.963 67.4242 147.834C67.7062 148.006 84.4192 158.048 104.568 155.603C106.201 155.405 107.707 156.575 107.908 158.22C108.108 159.864 106.936 161.36 105.291 161.559C102.814 161.861 100.388 161.995 98.0372 161.995" fill="black"/><path id="Fill 5" fill-rule="evenodd" clip-rule="evenodd" d="M105.825 133.166C101.782 133.166 96.7384 132.375 90.4434 130.361L91.6614 126.551C103.385 130.302 112.045 129.996 116.046 125.687C119.449 122.02 119.428 115.313 115.987 106.801C113.652 101.026 114.229 90.0734 117.702 74.2454C120.243 62.6624 123.477 52.5414 123.51 52.4404L127.318 53.6624C123.811 64.5954 115.606 95.1874 119.695 105.302C124.893 118.16 122.174 124.964 118.977 128.408C116.697 130.866 112.718 133.166 105.825 133.166" fill="black"/><g id="Group 9"><path id="Fill 7" fill-rule="evenodd" clip-rule="evenodd" d="M93.6837 39.7324C93.1031 39.888 92.4861 39.9498 91.8534 39.9029C85.6893 39.4468 68.006 38.5821 60.3106 40.0457C53.0642 41.4231 43.1641 47.838 39.9609 50.1944C37.514 51.993 34.0726 51.4709 32.2726 49.0265C30.4714 46.5813 30.9918 43.1414 33.4354 41.3385C33.9853 40.9334 47.051 31.3688 58.2557 29.2393C68.9489 27.2064 91.7026 28.8617 92.6661 28.9338C95.6955 29.1584 97.9686 31.796 97.7449 34.8251C97.5669 37.2208 95.8802 39.1439 93.6837 39.7324" fill="black"/></g><path id="Fill 10" fill-rule="evenodd" clip-rule="evenodd" d="M175.674 73.3322C174.652 72.9194 173.748 72.1894 173.123 71.1801C171.126 67.9573 164.642 58.7939 158.707 55.1578C152.373 51.2789 136.23 46.2493 130.544 44.6368C127.694 43.8249 126.034 40.8605 126.843 38.0086C127.65 35.1554 130.618 33.4975 133.47 34.3057C134.363 34.5584 155.428 40.5585 164.315 46.002C173.659 51.7252 181.91 64.9728 182.257 65.5346C183.815 68.0568 183.034 71.365 180.511 72.9235C178.999 73.8572 177.205 73.9507 175.674 73.3322" fill="black"/></g><g id="Group 19"><path id="Fill 10_2" fill-rule="evenodd" clip-rule="evenodd" d="M75.5217 74.6586C75.5217 77.9056 72.8887 80.5386 69.6417 80.5386C66.3947 80.5386 63.7617 77.9056 63.7617 74.6586C63.7617 71.4106 66.3947 68.7786 69.6417 68.7786C72.8887 68.7786 75.5217 71.4106 75.5217 74.6586" fill="black"/><path id="Fill 12" fill-rule="evenodd" clip-rule="evenodd" d="M150.762 81.3383C150.762 84.5863 148.129 87.2183 144.882 87.2183C141.635 87.2183 139.002 84.5863 139.002 81.3383C139.002 78.0913 141.635 75.4583 144.882 75.4583C148.129 75.4583 150.762 78.0913 150.762 81.3383" fill="black"/></g></g></g><g id="Hairstyle" transform="translate(1142 1085) scale(1 1)"><g id="Hairstyle/Short Combed Hair"><g id="Group 3"><mask id="mask0_406_1403971db6d94-7568-4ecb-b459-fb0a52de4154" style="mask-type:luminance" maskUnits="userSpaceOnUse" x="443" y="202" width="268" height="210" fill="#ffffff"><path id="Clip 2" fill-rule="evenodd" clip-rule="evenodd" d="M443 202H710.057V411.266H443V202Z" fill="#ffffff"/></mask><g mask="url(#mask0_406_1403971db6d94-7568-4ecb-b459-fb0a52de4154)"><path id="Fill 1" fill-rule="evenodd" clip-rule="evenodd" d="M462.041 373.117C462.041 373.117 426.041 328.117 453.041 266.117C480.041 204.117 542.041 195.117 579.041 208.117C579.041 208.117 708.041 171.117 710.041 279.117C711.674 367.306 584.041 297.117 584.041 297.117C584.041 297.117 584.041 349.117 533.041 343.117C482.041 337.117 482.041 415.117 473.041 411.117C464.041 407.117 462.041 373.117 462.041 373.117" fill="#9b5120"/></g></g></g></g><g id="Accessories" transform="translate(1586 1445) scale(1 1)"><g id="Accessories/Glasses and Earring"><g id="Group 136"><path id="Stroke 128" fill-rule="evenodd" clip-rule="evenodd" d="M68.0361 34.6775C68.0361 13.583 85.138 -3.51849 106.233 -3.51849C127.328 -3.51849 144.429 13.5829 144.429 34.6775C144.429 55.7728 127.328 72.8735 106.233 72.8735C85.1377 72.8735 68.0361 55.7726 68.0361 34.6775ZM135.429 34.6775C135.429 18.5534 122.357 5.48151 106.233 5.48151C90.1085 5.48151 77.0361 18.5537 77.0361 34.6775C77.0361 50.802 90.1082 63.8735 106.233 63.8735C122.358 63.8735 135.429 50.8022 135.429 34.6775Z" fill="black"/><path id="Stroke 130" fill-rule="evenodd" clip-rule="evenodd" d="M161.957 43.7849C161.957 22.6898 179.058 5.58893 200.154 5.58893C221.249 5.58893 238.35 22.6896 238.35 43.7849C238.35 64.8802 221.249 81.9809 200.154 81.9809C179.058 81.9809 161.957 64.8801 161.957 43.7849ZM229.35 43.7849C229.35 27.6602 216.278 14.5889 200.154 14.5889C184.029 14.5889 170.957 27.6604 170.957 43.7849C170.957 59.9094 184.029 72.9809 200.154 72.9809C216.278 72.9809 229.35 59.9096 229.35 43.7849Z" fill="black"/><path id="Stroke 132" d="M17.3582 7.30992C18.2541 5.07026 20.7475 3.94707 23.0032 4.72688L23.2076 4.80303L73.2076 24.803C75.5151 25.726 76.6375 28.3449 75.7145 30.6524C74.8186 32.8921 72.3252 34.0153 70.0695 33.2355L69.8651 33.1593L19.8651 13.1593C17.5576 12.2363 16.4352 9.61745 17.3582 7.30992Z" fill="black"/><path id="Stroke 134" d="M135.843 36.5655C136.11 34.166 138.218 32.4182 140.602 32.5723L140.814 32.5908L167.034 35.5088C169.504 35.7837 171.283 38.0089 171.008 40.4789C170.741 42.8784 168.634 44.6262 166.249 44.4722L166.038 44.4536L139.818 41.5356C137.348 41.2607 135.569 39.0355 135.843 36.5655Z" fill="black"/></g><g id="Group 5"><path id="Fill 1" fill-rule="evenodd" clip-rule="evenodd" d="M22.5 66C22.5 71.799 17.8 76.5 12 76.5C6.201 76.5 1.5 71.799 1.5 66C1.5 60.2 6.201 55.5 12 55.5C17.8 55.5 22.5 60.2 22.5 66" fill="white"/></g></g></g><g id="Facial Hair" transform="translate(1596 1446) scale(212 211)"><g id="Facial Hair/None" stroke="none" stroke-width="1" fill="none" fill-rule="evenodd" fill-opacity="0"/></g></g></g></g></svg>