<svg viewBox="-2.7162162162161962 54.50000000000006 414.22297297297285 456.43749999999994" fill="none" xmlns="http://www.w3.org/2000/svg" xmlns:xlink="http://www.w3.org/1999/xlink" overflow="visible" width="414.22297297297285px" height="456.43749999999994px"><g id="Master/Composition/Space"><circle id="Oval" cx="42" cy="371" r="42" fill="#FFA9C4"/><ellipse id="Oval_2" cx="201" cy="275.5" rx="170" ry="169.5" fill="#AED5F8"/><path id="Polygon" fill-rule="evenodd" clip-rule="evenodd" d="M71 124L104 157L71 190L38 157L71 124Z" fill="#7A8DFF"/><g id="Character And Mask"><ellipse id="Mask" opacity="0.278134" cx="201" cy="251.5" rx="170" ry="193.5" fill="#0007E9"/><mask id="mask0_410_65892dd4212c-fb7d-43bd-9ef6-fde08999efef" style="mask-type:luminance" maskUnits="userSpaceOnUse" x="-88" y="44" width="515" height="462" fill="#ffffff"><ellipse id="Mask_2" cx="169.405" cy="275.075" rx="256.983" ry="230.696" fill="#ffffff"/></mask><g mask="url(#mask0_410_65892dd4212c-fb7d-43bd-9ef6-fde08999efef)"><g id="Head/Front" transform="rotate(-27 34.6362 124.278) translate(34.6362 124.278) scale(1.5147058823529411 1.4423076923076923)"><g id="Head/Front/Short 2"><g id="Head"><path id="SKIN" fill-rule="evenodd" clip-rule="evenodd" d="M73.9354 75.2443C80.411 79.1475 86.7736 81.0333 89.7603 80.2635C97.2496 78.333 97.9382 50.9351 92.1433 40.1339C86.3485 29.3328 56.5583 24.625 55.0568 46.0255C54.5356 53.4529 57.6544 60.0814 62.2623 65.4901L54 104H78L73.9354 75.2443Z" fill="#57331f"/></g><path id="Hair" fill-rule="evenodd" clip-rule="evenodd" d="M60.4181 70.3075C57.4059 56.9065 48.8245 47.7714 50.1351 41.7817C51.4457 35.792 57.1213 34.3321 57.1213 34.3321C57.1213 34.3321 60.0567 22.4572 76.0556 24.2304C92.0546 26.0036 101.819 32.6478 97.6025 47.2679C93.7261 47.2679 89.0465 45.866 82.5755 48.2679C79.4957 49.411 78.17 55.358 78.17 55.358H75.2458C75.2458 55.358 70.9887 48.3006 66.8508 50.1712C62.7128 52.0418 64.9695 59.2586 64.9695 59.2586L63.5291 70.3075H60.4181Z" fill="#2c1b18"/></g></g><g id="Character Lower Body"><path id="SKIN" fill-rule="evenodd" clip-rule="evenodd" d="M206.353 326.343L280.302 506.186L329.901 658.228H349.486L270.648 326.343L206.353 326.343Z" fill="#57331f"/><path id="SKIN" fill-rule="evenodd" clip-rule="evenodd" d="M191.462 326.343C190.674 389.541 179.19 474.627 177.355 478.566C175.521 482.506 50.6775 578.76 50.6775 578.76L64.167 592.631C64.167 592.631 211.47 510.105 218.287 499.098C225.103 488.091 247.295 386.803 265.113 326.343H191.462Z" fill="#57331f"/><path id="Pant" fill-rule="evenodd" clip-rule="evenodd" d="M256.073 642.568L349.191 632.857L274.153 326.343H196.776L256.073 642.568Z" fill="#191847"/><path id="Pant" fill-rule="evenodd" clip-rule="evenodd" d="M69.939 556.383L131.019 625.851C131.019 625.851 227.521 524.579 243.541 493.691C259.561 462.803 272.343 326.343 272.343 326.343H178.446C178.446 326.343 171.464 446.394 169.033 451.981C166.602 457.568 69.939 556.383 69.939 556.383Z" fill="#393f82"/></g><g id="Upper Body" transform="rotate(-14 -3.60303 230.938) translate(-3.60303 230.938) scale(1.50390625 1.4491978609625669)"><g id="Upper Body/Hoodie"><path id="SKIN" fill-rule="evenodd" clip-rule="evenodd" d="M222.68 115.635L190.781 92.2115L183.73 109.642L215.318 122.741C224.251 133.235 229.246 137.61 230.304 135.865C231.195 134.394 230.499 133.017 229.857 131.749C229.357 130.76 228.89 129.838 229.233 128.989C230.018 127.049 236.019 127.254 241.705 127.691C247.392 128.128 245.735 125.598 244.364 124.349C238.559 120.874 231.331 117.97 222.68 115.635ZM55.398 156.908C58.3285 150.963 68.308 93.0199 68.308 93.0199L89.2054 93.1021C89.2054 93.1021 69.8506 155.583 68.308 159.406C66.3041 164.372 69.708 171.587 72.0162 176.48C72.3733 177.237 72.7041 177.938 72.9847 178.567C69.782 180 68.2435 178.268 66.6216 176.442C64.7896 174.379 62.8512 172.197 58.288 174.319C56.525 175.14 54.8568 176.109 53.2269 177.057C47.5969 180.329 42.4249 183.336 35.3891 178.994C34.2737 178.306 33.0514 175.715 36.0047 173.69C43.3624 168.645 53.9654 159.815 55.398 156.908Z" fill="#57331f"/><path id="Coat Back" fill-rule="evenodd" clip-rule="evenodd" d="M127.695 5.33203L136.342 3.84886C168.425 31.5643 181.603 84.8089 220.929 113.015L211.464 124.748C143.24 116.3 126.33 51.3548 127.695 5.33203Z" fill="#77d692"/><path id="Shirt" fill-rule="evenodd" clip-rule="evenodd" d="M90 114C90 114 142.008 114 166.511 114C170.008 114 169.349 108.952 168.843 106.404C163.011 77.0038 140.241 45.3115 140.241 3.46073L118.172 0C99.9175 29.3584 93.6048 65.5046 90 114Z" fill="#C7D1D9"/><path id="Coat Front" fill-rule="evenodd" clip-rule="evenodd" d="M81.3968 135C77.9582 143.259 74.5862 150.465 71.4089 156H54.9999C53.2345 98.9186 74.8454 54.9964 92.9315 28.5129C88.9158 28.2259 85.2911 26.5455 82.9999 22.4112C74.9335 7.85608 77.8467 -0.157593 86.4671 -2.79173C91.2074 -4.24021 95.6656 -3.25154 101.002 -2.06804C105.369 -1.09961 110.325 -0.000719281 116.504 2.76336e-08C116.506 2.76336e-08 116.508 2.76336e-08 116.51 2.76336e-08C117.109 2.76336e-08 117.654 0.0401216 118.148 0.116866L125.472 0.53474C125.472 0.53474 155.205 101.305 141.872 135H81.3968Z" fill="#a8e5ba"/><path id="Shade" fill-rule="evenodd" clip-rule="evenodd" d="M81.397 135C85.9087 124.164 90.5352 111.516 94.9874 98.4544C96.6448 112.839 99.4048 127.286 104 135H81.397Z" fill="black" fill-opacity="0.1"/></g></g></g></g><circle id="Oval_3" cx="291" cy="442" r="42" fill="#FFEBA9"/><path id="Polygon_2" opacity="0.399135" fill-rule="evenodd" clip-rule="evenodd" d="M294 82L302 90L294 98L286 90L294 82Z" fill="#2026A2"/></g></svg>