<svg viewBox="9.042553191489361 95.85000000000002 250.00000000000003 335.47499999999997" fill="none" xmlns="http://www.w3.org/2000/svg" xmlns:xlink="http://www.w3.org/1999/xlink" overflow="visible" width="250.00000000000003px" height="335.47499999999997px"><g id="Master/Pose/Sitting"><g id="Head/Front" transform="translate(38 73) scale(1 1)"><g id="Head/Front/Short 2"><g id="Head"><path id="SKIN" fill-rule="evenodd" clip-rule="evenodd" d="M73.9354 75.2443C80.411 79.1475 86.7736 81.0333 89.7603 80.2635C97.2496 78.333 97.9382 50.9351 92.1433 40.1339C86.3485 29.3328 56.5583 24.625 55.0568 46.0255C54.5356 53.4529 57.6544 60.0814 62.2623 65.4901L54 104H78L73.9354 75.2443Z" fill="#57331f"/></g><path id="Hair" fill-rule="evenodd" clip-rule="evenodd" d="M60.4181 70.3075C57.4059 56.9065 48.8245 47.7714 50.1351 41.7817C51.4457 35.792 57.1213 34.3321 57.1213 34.3321C57.1213 34.3321 60.0567 22.4572 76.0556 24.2304C92.0546 26.0036 101.819 32.6478 97.6025 47.2679C93.7261 47.2679 89.0465 45.866 82.5755 48.2679C79.4957 49.411 78.17 55.358 78.17 55.358H75.2458C75.2458 55.358 70.9887 48.3006 66.8508 50.1712C62.7128 52.0418 64.9695 59.2586 64.9695 59.2586L63.5291 70.3075H60.4181Z" fill="#2c1b18"/></g></g><g id="Lower Body/Sitting" transform="translate(-44 260) scale(1 1)"><g id="Lower Body/Sitting/Skinny Jeans 1"><g id="Seat"><g id="Seat_2"><path id="Seat Stuff" fill-rule="evenodd" clip-rule="evenodd" d="M92.6226 42H169.877L180 166H65L92.6226 42Z" fill="#C5CFD6"/><path id="Seat Stuff_2" fill-rule="evenodd" clip-rule="evenodd" d="M92.6226 42H116.383L130.604 166H65L92.6226 42Z" fill="black" fill-opacity="0.1"/></g></g><path id="LegBack" fill-rule="evenodd" clip-rule="evenodd" d="M212.323 66.5665C203.642 84.9781 190.077 129.672 190.077 129.672L201.593 134.934C201.593 134.934 230.814 87.9524 248.672 55.8364C247.84 63.0664 246.993 71.2061 246.208 79.7626C244.347 100.033 246.207 143.827 247.208 156.477C247.837 164.428 258.64 162.762 259.648 156.457C259.819 155.389 260.515 151.639 261.554 146.045C266.647 118.613 279.977 46.8178 280 29.2384C280.01 22.1647 266.19 15.8101 257.953 20.7561C252.296 14.7192 241.588 11.2397 235.436 21.212C231.525 27.5517 222.233 45.5497 212.323 66.5665Z" fill="#57331f"/><path id="LegLower" fill-rule="evenodd" clip-rule="evenodd" d="M190.9 113.125L230.427 19.4873C239.897 4.25483 266.446 22.587 263.217 31.4217C255.885 51.4793 218.6 116.414 216.415 122.39L190.9 113.125Z" fill="#191847"/><path id="shoe" fill-rule="evenodd" clip-rule="evenodd" d="M191.664 124.185C190.971 123.241 189.63 123.017 188.734 123.771C187.099 125.146 184.748 127.264 183.899 128.734C182.547 131.076 180.733 136.021 180.733 136.021C183.45 137.59 229.578 164.222 229.578 164.222C229.578 164.222 235.116 159.027 231.304 156.157C227.491 153.286 225.012 151.315 225.012 151.315L208.152 128.087C207.821 127.631 207.179 127.538 206.733 127.882L203.23 130.579C203.23 130.579 198.409 130.159 196.035 128.788C194.589 127.953 192.824 125.767 191.664 124.185Z" fill="#E4E4E4"/><path id="shoe_2" fill-rule="evenodd" clip-rule="evenodd" d="M247.45 150.284C246.378 149.813 245.104 150.29 244.705 151.391C243.977 153.398 243 156.409 243 158.106C243 160.811 243.901 166 243.901 166C247.039 166 300.303 166 300.303 166C300.303 166 302.502 158.732 297.765 158.152C293.028 157.573 289.895 157.106 289.895 157.106L263.68 145.419C263.165 145.189 262.563 145.43 262.348 145.951L260.663 150.039C260.663 150.039 256.278 152.085 253.537 152.085C251.868 152.085 249.246 151.074 247.45 150.284Z" fill="#E4E4E4"/><path id="Leg and Butt" fill-rule="evenodd" clip-rule="evenodd" d="M282.77 36.433C282.77 63 270.154 124.97 270.146 130.82L243 130.841C243 130.841 248.96 47.8977 247.227 47.0042C245.493 46.1107 176.176 53.925 155.386 53.925C125.408 53.925 113.006 35.0204 112 0H171.386C183.478 1.29387 246.549 14.0153 269.972 18.3884C280 20.2606 282.77 29.1145 282.77 36.433Z" fill="#393f82"/></g></g><g id="Upper Body" transform="translate(-22 155) scale(1 1)"><g id="Upper Body/Hoodie"><path id="SKIN" fill-rule="evenodd" clip-rule="evenodd" d="M222.68 115.635L190.781 92.2115L183.73 109.642L215.318 122.741C224.251 133.235 229.246 137.61 230.304 135.865C231.195 134.394 230.499 133.017 229.857 131.749C229.357 130.76 228.89 129.838 229.233 128.989C230.018 127.049 236.019 127.254 241.705 127.691C247.392 128.128 245.735 125.598 244.364 124.349C238.559 120.874 231.331 117.97 222.68 115.635ZM55.398 156.908C58.3285 150.963 68.308 93.0199 68.308 93.0199L89.2054 93.1021C89.2054 93.1021 69.8506 155.583 68.308 159.406C66.3041 164.372 69.708 171.587 72.0162 176.48C72.3733 177.237 72.7041 177.938 72.9847 178.567C69.782 180 68.2435 178.268 66.6216 176.442C64.7896 174.379 62.8512 172.197 58.288 174.319C56.525 175.14 54.8568 176.109 53.2269 177.057C47.5969 180.329 42.4249 183.336 35.3891 178.994C34.2737 178.306 33.0514 175.715 36.0047 173.69C43.3624 168.645 53.9654 159.815 55.398 156.908Z" fill="#57331f"/><path id="Coat Back" fill-rule="evenodd" clip-rule="evenodd" d="M127.695 5.33203L136.342 3.84886C168.425 31.5643 181.603 84.8089 220.929 113.015L211.464 124.748C143.24 116.3 126.33 51.3548 127.695 5.33203Z" fill="#77d692"/><path id="Shirt" fill-rule="evenodd" clip-rule="evenodd" d="M90 114C90 114 142.008 114 166.511 114C170.008 114 169.349 108.952 168.843 106.404C163.011 77.0038 140.241 45.3115 140.241 3.46073L118.172 0C99.9175 29.3584 93.6048 65.5046 90 114Z" fill="#C7D1D9"/><path id="Coat Front" fill-rule="evenodd" clip-rule="evenodd" d="M81.3968 135C77.9582 143.259 74.5862 150.465 71.4089 156H54.9999C53.2345 98.9186 74.8454 54.9964 92.9315 28.5129C88.9158 28.2259 85.2911 26.5455 82.9999 22.4112C74.9335 7.85608 77.8467 -0.157593 86.4671 -2.79173C91.2074 -4.24021 95.6656 -3.25154 101.002 -2.06804C105.369 -1.09961 110.325 -0.000719281 116.504 2.76336e-08C116.506 2.76336e-08 116.508 2.76336e-08 116.51 2.76336e-08C117.109 2.76336e-08 117.654 0.0401216 118.148 0.116866L125.472 0.53474C125.472 0.53474 155.205 101.305 141.872 135H81.3968Z" fill="#a8e5ba"/><path id="Shade" fill-rule="evenodd" clip-rule="evenodd" d="M81.397 135C85.9087 124.164 90.5352 111.516 94.9874 98.4544C96.6448 112.839 99.4048 127.286 104 135H81.397Z" fill="black" fill-opacity="0.1"/></g></g></g></svg>