<svg viewBox="14.361702127659584 21.30000000000001 255.31914893617017 410.02500000000003" fill="none" xmlns="http://www.w3.org/2000/svg" xmlns:xlink="http://www.w3.org/1999/xlink" overflow="visible" width="255.31914893617017px" height="410.02500000000003px"><g id="Master/Pose/Standing"><g id="Head/Front" transform="translate(82 0) scale(1 1)"><g id="Head/Front/Short 2"><g id="Head"><path id="SKIN" fill-rule="evenodd" clip-rule="evenodd" d="M73.9354 75.2443C80.411 79.1475 86.7736 81.0333 89.7603 80.2635C97.2496 78.333 97.9382 50.9351 92.1433 40.1339C86.3485 29.3328 56.5583 24.625 55.0568 46.0255C54.5356 53.4529 57.6544 60.0814 62.2623 65.4901L54 104H78L73.9354 75.2443Z" fill="#57331f"/></g><path id="Hair" fill-rule="evenodd" clip-rule="evenodd" d="M60.4181 70.3075C57.4059 56.9065 48.8245 47.7714 50.1351 41.7817C51.4457 35.792 57.1213 34.3321 57.1213 34.3321C57.1213 34.3321 60.0567 22.4572 76.0556 24.2304C92.0546 26.0036 101.819 32.6478 97.6025 47.2679C93.7261 47.2679 89.0465 45.866 82.5755 48.2679C79.4957 49.411 78.17 55.358 78.17 55.358H75.2458C75.2458 55.358 70.9887 48.3006 66.8508 50.1712C62.7128 52.0418 64.9695 59.2586 64.9695 59.2586L63.5291 70.3075H60.4181Z" fill="#2c1b18"/></g></g><g id="Lower Body/Standing" transform="translate(0 187) scale(1 1)"><g id="Lower Body/Standing/Baggy Pants"><path id="SKIN" fill-rule="evenodd" clip-rule="evenodd" d="M134 0L183.082 124.227L216.001 229.25H229L176.674 0L134 0Z" fill="#57331f"/><path id="SKIN" fill-rule="evenodd" clip-rule="evenodd" d="M124.117 0C123.594 43.6542 115.972 102.427 114.754 105.149C113.536 107.87 30.6758 174.358 30.6758 174.358L39.629 183.939C39.629 183.939 137.397 126.934 141.921 119.331C146.445 111.728 161.174 41.7631 173 0H124.117Z" fill="#57331f"/><g id="Left [Shoe]"><path id="shoe" fill-rule="evenodd" clip-rule="evenodd" d="M32.116 172.564C31.7884 171.44 30.604 170.771 29.5042 171.173C27.4981 171.906 24.5641 173.092 23.2642 174.183C21.1921 175.922 17.7961 179.948 17.7961 179.948C19.8131 182.352 54.0505 223.154 54.0505 223.154C54.0505 223.154 61.0315 220.166 58.4307 216.165C55.8299 212.164 54.1738 209.464 54.1738 209.464L46.2757 181.87C46.1206 181.328 45.549 181.022 45.012 181.192L40.7975 182.529C40.7975 182.529 36.4116 180.485 34.6494 178.384C33.5766 177.106 32.665 174.448 32.116 172.564Z" fill="#E4E4E4"/></g><g id="Right {Shoe]"><path id="shoe_2" fill-rule="evenodd" clip-rule="evenodd" d="M213.45 223.284C212.378 222.813 211.104 223.29 210.705 224.391C209.977 226.398 209 229.409 209 231.106C209 233.811 209.901 239 209.901 239C213.039 239 266.303 239 266.303 239C266.303 239 268.502 231.732 263.765 231.152C259.028 230.573 255.895 230.106 255.895 230.106L229.68 218.419C229.165 218.189 228.563 218.43 228.348 218.951L226.663 223.039C226.663 223.039 222.278 225.085 219.537 225.085C217.868 225.085 215.246 224.074 213.45 223.284Z" fill="#E4E4E4"/></g><path id="Pant" fill-rule="evenodd" clip-rule="evenodd" d="M167 218.433L228.804 211.725L179 0H127.644L167 218.433Z" fill="#191847"/><path id="Pant" fill-rule="evenodd" clip-rule="evenodd" d="M43.46 158.9L84 206.886C84 206.886 148.05 136.932 158.683 115.596C169.315 94.26 177.799 0 177.799 0H115.478C115.478 0 110.844 82.9258 109.231 86.7848C107.617 90.6437 43.46 158.9 43.46 158.9Z" fill="#393f82"/></g></g><g id="Upper Body" transform="translate(22 82) scale(1 1)"><g id="Upper Body/Hoodie"><path id="SKIN" fill-rule="evenodd" clip-rule="evenodd" d="M222.68 115.635L190.781 92.2115L183.73 109.642L215.318 122.741C224.251 133.235 229.246 137.61 230.304 135.865C231.195 134.394 230.499 133.017 229.857 131.749C229.357 130.76 228.89 129.838 229.233 128.989C230.018 127.049 236.019 127.254 241.705 127.691C247.392 128.128 245.735 125.598 244.364 124.349C238.559 120.874 231.331 117.97 222.68 115.635ZM55.398 156.908C58.3285 150.963 68.308 93.0199 68.308 93.0199L89.2054 93.1021C89.2054 93.1021 69.8506 155.583 68.308 159.406C66.3041 164.372 69.708 171.587 72.0162 176.48C72.3733 177.237 72.7041 177.938 72.9847 178.567C69.782 180 68.2435 178.268 66.6216 176.442C64.7896 174.379 62.8512 172.197 58.288 174.319C56.525 175.14 54.8568 176.109 53.2269 177.057C47.5969 180.329 42.4249 183.336 35.3891 178.994C34.2737 178.306 33.0514 175.715 36.0047 173.69C43.3624 168.645 53.9654 159.815 55.398 156.908Z" fill="#57331f"/><path id="Coat Back" fill-rule="evenodd" clip-rule="evenodd" d="M127.695 5.33203L136.342 3.84886C168.425 31.5643 181.603 84.8089 220.929 113.015L211.464 124.748C143.24 116.3 126.33 51.3548 127.695 5.33203Z" fill="#77d692"/><path id="Shirt" fill-rule="evenodd" clip-rule="evenodd" d="M90 114C90 114 142.008 114 166.511 114C170.008 114 169.349 108.952 168.843 106.404C163.011 77.0038 140.241 45.3115 140.241 3.46073L118.172 0C99.9175 29.3584 93.6048 65.5046 90 114Z" fill="#C7D1D9"/><path id="Coat Front" fill-rule="evenodd" clip-rule="evenodd" d="M81.3968 135C77.9582 143.259 74.5862 150.465 71.4089 156H54.9999C53.2345 98.9186 74.8454 54.9964 92.9315 28.5129C88.9158 28.2259 85.2911 26.5455 82.9999 22.4112C74.9335 7.85608 77.8467 -0.157593 86.4671 -2.79173C91.2074 -4.24021 95.6656 -3.25154 101.002 -2.06804C105.369 -1.09961 110.325 -0.000719281 116.504 2.76336e-08C116.506 2.76336e-08 116.508 2.76336e-08 116.51 2.76336e-08C117.109 2.76336e-08 117.654 0.0401216 118.148 0.116866L125.472 0.53474C125.472 0.53474 155.205 101.305 141.872 135H81.3968Z" fill="#a8e5ba"/><path id="Shade" fill-rule="evenodd" clip-rule="evenodd" d="M81.397 135C85.9087 124.164 90.5352 111.516 94.9874 98.4544C96.6448 112.839 99.4048 127.286 104 135H81.397Z" fill="black" fill-opacity="0.1"/></g></g></g></svg>