<svg viewBox="-1.5957446808510838 21.30000000000001 313.8297872340426 410.02500000000003" fill="none" xmlns="http://www.w3.org/2000/svg" xmlns:xlink="http://www.w3.org/1999/xlink" overflow="visible" width="313.8297872340426px" height="410.02500000000003px"><g id="Master/Pose/Standing"><g id="Head/Front" transform="translate(82 0) scale(1 1)"><g id="Head/Front/Short 2"><g id="Head"><path id="SKIN" fill-rule="evenodd" clip-rule="evenodd" d="M73.9354 75.2443C80.411 79.1475 86.7736 81.0333 89.7603 80.2635C97.2496 78.333 97.9382 50.9351 92.1433 40.1339C86.3485 29.3328 56.5583 24.625 55.0568 46.0255C54.5356 53.4529 57.6544 60.0814 62.2623 65.4901L54 104H78L73.9354 75.2443Z" fill="#57331f"/></g><path id="Hair" fill-rule="evenodd" clip-rule="evenodd" d="M60.4181 70.3075C57.4059 56.9065 48.8245 47.7714 50.1351 41.7817C51.4457 35.792 57.1213 34.3321 57.1213 34.3321C57.1213 34.3321 60.0567 22.4572 76.0556 24.2304C92.0546 26.0036 101.819 32.6478 97.6025 47.2679C93.7261 47.2679 89.0465 45.866 82.5755 48.2679C79.4957 49.411 78.17 55.358 78.17 55.358H75.2458C75.2458 55.358 70.9887 48.3006 66.8508 50.1712C62.7128 52.0418 64.9695 59.2586 64.9695 59.2586L63.5291 70.3075H60.4181Z" fill="#2c1b18"/></g></g><g id="Lower Body/Standing" transform="translate(0 187) scale(1 1)"><g id="Lower Body/Standing/Jogging"><path id="SKIN" fill-rule="evenodd" clip-rule="evenodd" d="M130 0L204.306 124.227L260.015 229.25H272.014L178.674 0L130 0Z" fill="#3d2216"/><g id="Right [shoe]"><path id="shoe" fill-rule="evenodd" clip-rule="evenodd" d="M255.45 223.284C254.378 222.813 253.104 223.29 252.705 224.391C251.977 226.398 251 229.409 251 231.106C251 233.811 251.901 239 251.901 239C255.039 239 308.303 239 308.303 239C308.303 239 310.502 231.732 305.765 231.152C301.028 230.573 297.895 230.106 297.895 230.106L271.68 218.419C271.165 218.189 270.563 218.43 270.348 218.951L268.663 223.039C268.663 223.039 264.278 225.085 261.537 225.085C259.868 225.085 257.246 224.074 255.45 223.284Z" fill="#E4E4E4"/></g><path id="Pant" fill-rule="evenodd" clip-rule="evenodd" d="M244.543 212.433L267.683 205.433C267.683 205.433 252.476 159.971 230.405 105.374C208.335 50.7778 183 0 183 0H117.644C117.644 0 145.811 64.2315 177.366 116.725C208.921 169.219 244.543 212.433 244.543 212.433Z" fill="#191847"/><path id="SKIN" fill-rule="evenodd" clip-rule="evenodd" d="M125.117 0C118.104 43.6542 104.577 99.4275 103.301 101.149C102.45 102.296 71.8127 112.562 11.3899 131.947L13.9818 142.528C86.0359 132.132 124.002 124.066 127.881 118.331C133.699 109.728 162.749 41.7631 174 0H125.117Z" fill="#57331f"/><path id="Pant" fill-rule="evenodd" clip-rule="evenodd" d="M32.6294 122.8L37.1948 139.842C91.087 144.569 124.108 141.153 136.258 129.596C148.407 118.039 162.254 74.84 177.799 0H115.478C105.629 61.2839 100.123 93.2121 98.96 95.7848C97.7966 98.3574 75.6864 107.363 32.6294 122.8Z" fill="#393f82"/><g id="Left [shoe]"><path id="shoe_2" fill-rule="evenodd" clip-rule="evenodd" d="M15.9311 130.074C16.2095 128.937 15.5182 127.765 14.3648 127.563C12.2611 127.195 9.12692 126.756 7.45574 127.05C4.7919 127.52 -0.162158 129.309 -0.162158 129.309C0.382733 132.399 9.63191 184.854 9.63191 184.854C9.63191 184.854 17.1715 185.757 16.9197 180.991C16.6679 176.226 16.5838 173.059 16.5838 173.059L23.5408 145.213C23.6774 144.667 23.3357 144.115 22.7854 143.994L18.4673 143.044C18.4673 143.044 15.691 139.081 15.215 136.381C14.9252 134.738 15.4647 131.98 15.9311 130.074Z" fill="#E4E4E4"/></g></g></g><g id="Upper Body" transform="translate(22 82) scale(1 1)"><g id="Upper Body/Hoodie"><path id="SKIN" fill-rule="evenodd" clip-rule="evenodd" d="M222.68 115.635L190.781 92.2115L183.73 109.642L215.318 122.741C224.251 133.235 229.246 137.61 230.304 135.865C231.195 134.394 230.499 133.017 229.857 131.749C229.357 130.76 228.89 129.838 229.233 128.989C230.018 127.049 236.019 127.254 241.705 127.691C247.392 128.128 245.735 125.598 244.364 124.349C238.559 120.874 231.331 117.97 222.68 115.635ZM55.398 156.908C58.3285 150.963 68.308 93.0199 68.308 93.0199L89.2054 93.1021C89.2054 93.1021 69.8506 155.583 68.308 159.406C66.3041 164.372 69.708 171.587 72.0162 176.48C72.3733 177.237 72.7041 177.938 72.9847 178.567C69.782 180 68.2435 178.268 66.6216 176.442C64.7896 174.379 62.8512 172.197 58.288 174.319C56.525 175.14 54.8568 176.109 53.2269 177.057C47.5969 180.329 42.4249 183.336 35.3891 178.994C34.2737 178.306 33.0514 175.715 36.0047 173.69C43.3624 168.645 53.9654 159.815 55.398 156.908Z" fill="#57331f"/><path id="Coat Back" fill-rule="evenodd" clip-rule="evenodd" d="M127.695 5.33203L136.342 3.84886C168.425 31.5643 181.603 84.8089 220.929 113.015L211.464 124.748C143.24 116.3 126.33 51.3548 127.695 5.33203Z" fill="#77d692"/><path id="Shirt" fill-rule="evenodd" clip-rule="evenodd" d="M90 114C90 114 142.008 114 166.511 114C170.008 114 169.349 108.952 168.843 106.404C163.011 77.0038 140.241 45.3115 140.241 3.46073L118.172 0C99.9175 29.3584 93.6048 65.5046 90 114Z" fill="#C7D1D9"/><path id="Coat Front" fill-rule="evenodd" clip-rule="evenodd" d="M81.3968 135C77.9582 143.259 74.5862 150.465 71.4089 156H54.9999C53.2345 98.9186 74.8454 54.9964 92.9315 28.5129C88.9158 28.2259 85.2911 26.5455 82.9999 22.4112C74.9335 7.85608 77.8467 -0.157593 86.4671 -2.79173C91.2074 -4.24021 95.6656 -3.25154 101.002 -2.06804C105.369 -1.09961 110.325 -0.000719281 116.504 2.76336e-08C116.506 2.76336e-08 116.508 2.76336e-08 116.51 2.76336e-08C117.109 2.76336e-08 117.654 0.0401216 118.148 0.116866L125.472 0.53474C125.472 0.53474 155.205 101.305 141.872 135H81.3968Z" fill="#a8e5ba"/><path id="Shade" fill-rule="evenodd" clip-rule="evenodd" d="M81.397 135C85.9087 124.164 90.5352 111.516 94.9874 98.4544C96.6448 112.839 99.4048 127.286 104 135H81.397Z" fill="black" fill-opacity="0.1"/></g></g></g></svg>