<?xml version="1.0" encoding="UTF-8"?>
<svg version="1.1" viewBox="0 0 2000 2000" width="1280" height="1280" xmlns="http://www.w3.org/2000/svg">
<path transform="translate(0)" d="m0 0h2e3v2e3h-2e3z" fill="#FEFEFE"/>
<path transform="translate(0)" d="m0 0h2e3v2e3h-2e3zm202 202v1597l1 1h1594l3-1v-1597z" fill="#FEFEFE"/>
<path transform="translate(970,225)" d="m0 0h62l1 38h703l1 1v705h39v62l-1 1-742 1v640l-1 103h-62l-1-1-1-742-742-1-1-3v-59l1-1 742-1 1-742z"/>
<path transform="translate(422,365)" d="m0 0h213l26 2 27 5 21 7 17 8 13 9 10 9 8 8 9 13 9 17 6 19 4 27v31l-2 17-5 21-8 20-9 15-11 13-7 7-14 10-16 8-15 6-19 5-16 3-22 2h-117v148l-1 1h-101z"/>
<path transform="translate(1198,365)" d="m0 0h101l1 1v161l21-1h134l1-161h102v430l-2 1h-99l-1-1v-185l-122 1h-34v184l-2 1h-99l-1-1-1-9v-412z" fill="#FEFEFE"/>
<path transform="translate(202,202)" d="m0 0h1598v1597l-3 1h-1594l-1-1zm16 14-1 1v1567h1566l1-1v-1566l-43-1z"/>
<path transform="translate(1247,1145)" d="m0 0h101l1 47v299l200 1v84h-302z"/>
<path transform="translate(537,1145)" d="m0 0h101l1 39v305l-1 86-1 1h-100z"/>
<path transform="translate(525,448)" d="m0 0h75l30 1 16 4 11 6 7 6 6 9 4 9 2 11v20l-2 12-5 12-9 11-11 7-15 5-11 2-16 1h-82l-2-1v-111z" fill="#FEFEFE"/>
</svg>
